%TF.GenerationSoftware,KiCad,Pcbnew,5.1.10-88a1d61d58~88~ubuntu20.04.1*%
%TF.CreationDate,2021-08-10T15:11:50-03:00*%
%TF.ProjectId,lora_end_device,6c6f7261-5f65-46e6-945f-646576696365,rev?*%
%TF.SameCoordinates,Original*%
%TF.FileFunction,Legend,Top*%
%TF.FilePolarity,Positive*%
%FSLAX46Y46*%
G04 Gerber Fmt 4.6, Leading zero omitted, Abs format (unit mm)*
G04 Created by KiCad (PCBNEW 5.1.10-88a1d61d58~88~ubuntu20.04.1) date 2021-08-10 15:11:50*
%MOMM*%
%LPD*%
G01*
G04 APERTURE LIST*
%ADD10C,0.200000*%
%ADD11C,0.300000*%
%ADD12C,0.250000*%
%ADD13C,0.120000*%
%ADD14C,0.127000*%
%ADD15C,0.177800*%
%ADD16C,0.150000*%
G04 APERTURE END LIST*
D10*
X110823809Y-90366666D02*
X110861904Y-90252380D01*
X110861904Y-90061904D01*
X110823809Y-89985714D01*
X110785714Y-89947619D01*
X110709523Y-89909523D01*
X110633333Y-89909523D01*
X110557142Y-89947619D01*
X110519047Y-89985714D01*
X110480952Y-90061904D01*
X110442857Y-90214285D01*
X110404761Y-90290476D01*
X110366666Y-90328571D01*
X110290476Y-90366666D01*
X110214285Y-90366666D01*
X110138095Y-90328571D01*
X110100000Y-90290476D01*
X110061904Y-90214285D01*
X110061904Y-90023809D01*
X110100000Y-89909523D01*
X110823809Y-89261904D02*
X110861904Y-89338095D01*
X110861904Y-89490476D01*
X110823809Y-89566666D01*
X110747619Y-89604761D01*
X110442857Y-89604761D01*
X110366666Y-89566666D01*
X110328571Y-89490476D01*
X110328571Y-89338095D01*
X110366666Y-89261904D01*
X110442857Y-89223809D01*
X110519047Y-89223809D01*
X110595238Y-89604761D01*
X110328571Y-88880952D02*
X110861904Y-88880952D01*
X110404761Y-88880952D02*
X110366666Y-88842857D01*
X110328571Y-88766666D01*
X110328571Y-88652380D01*
X110366666Y-88576190D01*
X110442857Y-88538095D01*
X110861904Y-88538095D01*
X110823809Y-88195238D02*
X110861904Y-88119047D01*
X110861904Y-87966666D01*
X110823809Y-87890476D01*
X110747619Y-87852380D01*
X110709523Y-87852380D01*
X110633333Y-87890476D01*
X110595238Y-87966666D01*
X110595238Y-88080952D01*
X110557142Y-88157142D01*
X110480952Y-88195238D01*
X110442857Y-88195238D01*
X110366666Y-88157142D01*
X110328571Y-88080952D01*
X110328571Y-87966666D01*
X110366666Y-87890476D01*
X110861904Y-87395238D02*
X110823809Y-87471428D01*
X110785714Y-87509523D01*
X110709523Y-87547619D01*
X110480952Y-87547619D01*
X110404761Y-87509523D01*
X110366666Y-87471428D01*
X110328571Y-87395238D01*
X110328571Y-87280952D01*
X110366666Y-87204761D01*
X110404761Y-87166666D01*
X110480952Y-87128571D01*
X110709523Y-87128571D01*
X110785714Y-87166666D01*
X110823809Y-87204761D01*
X110861904Y-87280952D01*
X110861904Y-87395238D01*
X110861904Y-86785714D02*
X110328571Y-86785714D01*
X110480952Y-86785714D02*
X110404761Y-86747619D01*
X110366666Y-86709523D01*
X110328571Y-86633333D01*
X110328571Y-86557142D01*
X86861904Y-64490476D02*
X86480952Y-64757142D01*
X86861904Y-64947619D02*
X86061904Y-64947619D01*
X86061904Y-64642857D01*
X86100000Y-64566666D01*
X86138095Y-64528571D01*
X86214285Y-64490476D01*
X86328571Y-64490476D01*
X86404761Y-64528571D01*
X86442857Y-64566666D01*
X86480952Y-64642857D01*
X86480952Y-64947619D01*
X86823809Y-63842857D02*
X86861904Y-63919047D01*
X86861904Y-64071428D01*
X86823809Y-64147619D01*
X86747619Y-64185714D01*
X86442857Y-64185714D01*
X86366666Y-64147619D01*
X86328571Y-64071428D01*
X86328571Y-63919047D01*
X86366666Y-63842857D01*
X86442857Y-63804761D01*
X86519047Y-63804761D01*
X86595238Y-64185714D01*
X86823809Y-63500000D02*
X86861904Y-63423809D01*
X86861904Y-63271428D01*
X86823809Y-63195238D01*
X86747619Y-63157142D01*
X86709523Y-63157142D01*
X86633333Y-63195238D01*
X86595238Y-63271428D01*
X86595238Y-63385714D01*
X86557142Y-63461904D01*
X86480952Y-63500000D01*
X86442857Y-63500000D01*
X86366666Y-63461904D01*
X86328571Y-63385714D01*
X86328571Y-63271428D01*
X86366666Y-63195238D01*
X86823809Y-62509523D02*
X86861904Y-62585714D01*
X86861904Y-62738095D01*
X86823809Y-62814285D01*
X86747619Y-62852380D01*
X86442857Y-62852380D01*
X86366666Y-62814285D01*
X86328571Y-62738095D01*
X86328571Y-62585714D01*
X86366666Y-62509523D01*
X86442857Y-62471428D01*
X86519047Y-62471428D01*
X86595238Y-62852380D01*
X86328571Y-62242857D02*
X86328571Y-61938095D01*
X86061904Y-62128571D02*
X86747619Y-62128571D01*
X86823809Y-62090476D01*
X86861904Y-62014285D01*
X86861904Y-61938095D01*
X110861904Y-80509523D02*
X110061904Y-80509523D01*
X110061904Y-80204761D01*
X110100000Y-80128571D01*
X110138095Y-80090476D01*
X110214285Y-80052380D01*
X110328571Y-80052380D01*
X110404761Y-80090476D01*
X110442857Y-80128571D01*
X110480952Y-80204761D01*
X110480952Y-80509523D01*
X110861904Y-79252380D02*
X110480952Y-79519047D01*
X110861904Y-79709523D02*
X110061904Y-79709523D01*
X110061904Y-79404761D01*
X110100000Y-79328571D01*
X110138095Y-79290476D01*
X110214285Y-79252380D01*
X110328571Y-79252380D01*
X110404761Y-79290476D01*
X110442857Y-79328571D01*
X110480952Y-79404761D01*
X110480952Y-79709523D01*
X110100000Y-78490476D02*
X110061904Y-78566666D01*
X110061904Y-78680952D01*
X110100000Y-78795238D01*
X110176190Y-78871428D01*
X110252380Y-78909523D01*
X110404761Y-78947619D01*
X110519047Y-78947619D01*
X110671428Y-78909523D01*
X110747619Y-78871428D01*
X110823809Y-78795238D01*
X110861904Y-78680952D01*
X110861904Y-78604761D01*
X110823809Y-78490476D01*
X110785714Y-78452380D01*
X110519047Y-78452380D01*
X110519047Y-78604761D01*
X110061904Y-70776190D02*
X110709523Y-70776190D01*
X110785714Y-70738095D01*
X110823809Y-70700000D01*
X110861904Y-70623809D01*
X110861904Y-70471428D01*
X110823809Y-70395238D01*
X110785714Y-70357142D01*
X110709523Y-70319047D01*
X110061904Y-70319047D01*
X110633333Y-69976190D02*
X110633333Y-69595238D01*
X110861904Y-70052380D02*
X110061904Y-69785714D01*
X110861904Y-69519047D01*
X110861904Y-68795238D02*
X110480952Y-69061904D01*
X110861904Y-69252380D02*
X110061904Y-69252380D01*
X110061904Y-68947619D01*
X110100000Y-68871428D01*
X110138095Y-68833333D01*
X110214285Y-68795238D01*
X110328571Y-68795238D01*
X110404761Y-68833333D01*
X110442857Y-68871428D01*
X110480952Y-68947619D01*
X110480952Y-69252380D01*
X110061904Y-68566666D02*
X110061904Y-68109523D01*
X110861904Y-68338095D02*
X110061904Y-68338095D01*
D11*
X89671428Y-95842857D02*
X90357142Y-95842857D01*
X90014285Y-97042857D02*
X90014285Y-95842857D01*
X90642857Y-97042857D02*
X91271428Y-96242857D01*
X90642857Y-96242857D02*
X91271428Y-97042857D01*
X94242857Y-97042857D02*
X93842857Y-96471428D01*
X93557142Y-97042857D02*
X93557142Y-95842857D01*
X94014285Y-95842857D01*
X94128571Y-95900000D01*
X94185714Y-95957142D01*
X94242857Y-96071428D01*
X94242857Y-96242857D01*
X94185714Y-96357142D01*
X94128571Y-96414285D01*
X94014285Y-96471428D01*
X93557142Y-96471428D01*
X94642857Y-97042857D02*
X95271428Y-96242857D01*
X94642857Y-96242857D02*
X95271428Y-97042857D01*
D10*
X75152380Y-60633333D02*
X75533333Y-60633333D01*
X75076190Y-60861904D02*
X75342857Y-60061904D01*
X75609523Y-60861904D01*
X75876190Y-60328571D02*
X75876190Y-60861904D01*
X75876190Y-60404761D02*
X75914285Y-60366666D01*
X75990476Y-60328571D01*
X76104761Y-60328571D01*
X76180952Y-60366666D01*
X76219047Y-60442857D01*
X76219047Y-60861904D01*
X76485714Y-60328571D02*
X76790476Y-60328571D01*
X76600000Y-60061904D02*
X76600000Y-60747619D01*
X76638095Y-60823809D01*
X76714285Y-60861904D01*
X76790476Y-60861904D01*
X77361904Y-60823809D02*
X77285714Y-60861904D01*
X77133333Y-60861904D01*
X77057142Y-60823809D01*
X77019047Y-60747619D01*
X77019047Y-60442857D01*
X77057142Y-60366666D01*
X77133333Y-60328571D01*
X77285714Y-60328571D01*
X77361904Y-60366666D01*
X77400000Y-60442857D01*
X77400000Y-60519047D01*
X77019047Y-60595238D01*
X77742857Y-60328571D02*
X77742857Y-60861904D01*
X77742857Y-60404761D02*
X77780952Y-60366666D01*
X77857142Y-60328571D01*
X77971428Y-60328571D01*
X78047619Y-60366666D01*
X78085714Y-60442857D01*
X78085714Y-60861904D01*
X78809523Y-60861904D02*
X78809523Y-60442857D01*
X78771428Y-60366666D01*
X78695238Y-60328571D01*
X78542857Y-60328571D01*
X78466666Y-60366666D01*
X78809523Y-60823809D02*
X78733333Y-60861904D01*
X78542857Y-60861904D01*
X78466666Y-60823809D01*
X78428571Y-60747619D01*
X78428571Y-60671428D01*
X78466666Y-60595238D01*
X78542857Y-60557142D01*
X78733333Y-60557142D01*
X78809523Y-60519047D01*
D11*
X114178571Y-86107142D02*
X115321428Y-86107142D01*
X114750000Y-86678571D02*
X114750000Y-85535714D01*
D10*
X115202380Y-89452380D02*
X114202380Y-89452380D01*
X114535714Y-88976190D02*
X115202380Y-88976190D01*
X114630952Y-88976190D02*
X114583333Y-88928571D01*
X114535714Y-88833333D01*
X114535714Y-88690476D01*
X114583333Y-88595238D01*
X114678571Y-88547619D01*
X115202380Y-88547619D01*
D12*
X114250000Y-91238095D02*
X114202380Y-91333333D01*
X114202380Y-91476190D01*
X114250000Y-91619047D01*
X114345238Y-91714285D01*
X114440476Y-91761904D01*
X114630952Y-91809523D01*
X114773809Y-91809523D01*
X114964285Y-91761904D01*
X115059523Y-91714285D01*
X115154761Y-91619047D01*
X115202380Y-91476190D01*
X115202380Y-91380952D01*
X115154761Y-91238095D01*
X115107142Y-91190476D01*
X114773809Y-91190476D01*
X114773809Y-91380952D01*
D10*
X115452380Y-71642857D02*
X114976190Y-71976190D01*
X115452380Y-72214285D02*
X114452380Y-72214285D01*
X114452380Y-71833333D01*
X114500000Y-71738095D01*
X114547619Y-71690476D01*
X114642857Y-71642857D01*
X114785714Y-71642857D01*
X114880952Y-71690476D01*
X114928571Y-71738095D01*
X114976190Y-71833333D01*
X114976190Y-72214285D01*
X115452380Y-71309523D02*
X114785714Y-70785714D01*
X114785714Y-71309523D02*
X115452380Y-70785714D01*
X114452380Y-69785714D02*
X114452380Y-69214285D01*
X115452380Y-69500000D02*
X114452380Y-69500000D01*
X115452380Y-68976190D02*
X114785714Y-68452380D01*
X114785714Y-68976190D02*
X115452380Y-68452380D01*
X114500000Y-66785714D02*
X114452380Y-66880952D01*
X114452380Y-67023809D01*
X114500000Y-67166666D01*
X114595238Y-67261904D01*
X114690476Y-67309523D01*
X114880952Y-67357142D01*
X115023809Y-67357142D01*
X115214285Y-67309523D01*
X115309523Y-67261904D01*
X115404761Y-67166666D01*
X115452380Y-67023809D01*
X115452380Y-66928571D01*
X115404761Y-66785714D01*
X115357142Y-66738095D01*
X115023809Y-66738095D01*
X115023809Y-66928571D01*
D11*
X60903571Y-76428571D02*
X60903571Y-77142857D01*
X59403571Y-77142857D01*
X60903571Y-75714285D02*
X60832142Y-75857142D01*
X60760714Y-75928571D01*
X60617857Y-76000000D01*
X60189285Y-76000000D01*
X60046428Y-75928571D01*
X59975000Y-75857142D01*
X59903571Y-75714285D01*
X59903571Y-75500000D01*
X59975000Y-75357142D01*
X60046428Y-75285714D01*
X60189285Y-75214285D01*
X60617857Y-75214285D01*
X60760714Y-75285714D01*
X60832142Y-75357142D01*
X60903571Y-75500000D01*
X60903571Y-75714285D01*
X60903571Y-73714285D02*
X60189285Y-74214285D01*
X60903571Y-74571428D02*
X59403571Y-74571428D01*
X59403571Y-74000000D01*
X59475000Y-73857142D01*
X59546428Y-73785714D01*
X59689285Y-73714285D01*
X59903571Y-73714285D01*
X60046428Y-73785714D01*
X60117857Y-73857142D01*
X60189285Y-74000000D01*
X60189285Y-74571428D01*
X60903571Y-72428571D02*
X60117857Y-72428571D01*
X59975000Y-72500000D01*
X59903571Y-72642857D01*
X59903571Y-72928571D01*
X59975000Y-73071428D01*
X60832142Y-72428571D02*
X60903571Y-72571428D01*
X60903571Y-72928571D01*
X60832142Y-73071428D01*
X60689285Y-73142857D01*
X60546428Y-73142857D01*
X60403571Y-73071428D01*
X60332142Y-72928571D01*
X60332142Y-72571428D01*
X60260714Y-72428571D01*
X59403571Y-71857142D02*
X60903571Y-71500000D01*
X59832142Y-71214285D01*
X60903571Y-70928571D01*
X59403571Y-70571428D01*
X60475000Y-70071428D02*
X60475000Y-69357142D01*
X60903571Y-70214285D02*
X59403571Y-69714285D01*
X60903571Y-69214285D01*
X60903571Y-68714285D02*
X59403571Y-68714285D01*
X60903571Y-67857142D01*
X59403571Y-67857142D01*
X62667857Y-78357142D02*
X62667857Y-77857142D01*
X63453571Y-77642857D02*
X63453571Y-78357142D01*
X61953571Y-78357142D01*
X61953571Y-77642857D01*
X62453571Y-77000000D02*
X63453571Y-77000000D01*
X62596428Y-77000000D02*
X62525000Y-76928571D01*
X62453571Y-76785714D01*
X62453571Y-76571428D01*
X62525000Y-76428571D01*
X62667857Y-76357142D01*
X63453571Y-76357142D01*
X63453571Y-75000000D02*
X61953571Y-75000000D01*
X63382142Y-75000000D02*
X63453571Y-75142857D01*
X63453571Y-75428571D01*
X63382142Y-75571428D01*
X63310714Y-75642857D01*
X63167857Y-75714285D01*
X62739285Y-75714285D01*
X62596428Y-75642857D01*
X62525000Y-75571428D01*
X62453571Y-75428571D01*
X62453571Y-75142857D01*
X62525000Y-75000000D01*
X63453571Y-73142857D02*
X61953571Y-73142857D01*
X61953571Y-72785714D01*
X62025000Y-72571428D01*
X62167857Y-72428571D01*
X62310714Y-72357142D01*
X62596428Y-72285714D01*
X62810714Y-72285714D01*
X63096428Y-72357142D01*
X63239285Y-72428571D01*
X63382142Y-72571428D01*
X63453571Y-72785714D01*
X63453571Y-73142857D01*
X63382142Y-71071428D02*
X63453571Y-71214285D01*
X63453571Y-71500000D01*
X63382142Y-71642857D01*
X63239285Y-71714285D01*
X62667857Y-71714285D01*
X62525000Y-71642857D01*
X62453571Y-71500000D01*
X62453571Y-71214285D01*
X62525000Y-71071428D01*
X62667857Y-71000000D01*
X62810714Y-71000000D01*
X62953571Y-71714285D01*
X62453571Y-70500000D02*
X63453571Y-70142857D01*
X62453571Y-69785714D01*
X63453571Y-69214285D02*
X62453571Y-69214285D01*
X61953571Y-69214285D02*
X62025000Y-69285714D01*
X62096428Y-69214285D01*
X62025000Y-69142857D01*
X61953571Y-69214285D01*
X62096428Y-69214285D01*
X63382142Y-67857142D02*
X63453571Y-68000000D01*
X63453571Y-68285714D01*
X63382142Y-68428571D01*
X63310714Y-68500000D01*
X63167857Y-68571428D01*
X62739285Y-68571428D01*
X62596428Y-68500000D01*
X62525000Y-68428571D01*
X62453571Y-68285714D01*
X62453571Y-68000000D01*
X62525000Y-67857142D01*
X63382142Y-66642857D02*
X63453571Y-66785714D01*
X63453571Y-67071428D01*
X63382142Y-67214285D01*
X63239285Y-67285714D01*
X62667857Y-67285714D01*
X62525000Y-67214285D01*
X62453571Y-67071428D01*
X62453571Y-66785714D01*
X62525000Y-66642857D01*
X62667857Y-66571428D01*
X62810714Y-66571428D01*
X62953571Y-67285714D01*
D13*
%TO.C,U3*%
X77590000Y-87090000D02*
X77590000Y-88350000D01*
X77590000Y-93910000D02*
X77590000Y-92650000D01*
X81350000Y-87090000D02*
X77590000Y-87090000D01*
X83600000Y-93910000D02*
X77590000Y-93910000D01*
%TO.C,J7*%
X113830000Y-92330000D02*
X112500000Y-92330000D01*
X113830000Y-91000000D02*
X113830000Y-92330000D01*
X113830000Y-89730000D02*
X111170000Y-89730000D01*
X111170000Y-89730000D02*
X111170000Y-84590000D01*
X113830000Y-89730000D02*
X113830000Y-84590000D01*
X113830000Y-84590000D02*
X111170000Y-84590000D01*
%TO.C,C1*%
X70740000Y-96260000D02*
X71440000Y-96260000D01*
X74260000Y-96260000D02*
X73560000Y-96260000D01*
X74260000Y-93629437D02*
X74260000Y-96260000D01*
X70740000Y-93629437D02*
X70740000Y-96260000D01*
X73560000Y-92929437D02*
X74260000Y-93629437D01*
X71440000Y-92929437D02*
X70740000Y-93629437D01*
X73935000Y-92125000D02*
X73935000Y-92500000D01*
X74122500Y-92312500D02*
X73747500Y-92312500D01*
%TO.C,C2*%
X104238748Y-86265000D02*
X104761252Y-86265000D01*
X104238748Y-87735000D02*
X104761252Y-87735000D01*
%TO.C,C3*%
X104238748Y-90265000D02*
X104761252Y-90265000D01*
X104238748Y-91735000D02*
X104761252Y-91735000D01*
%TO.C,C4*%
X76738748Y-96735000D02*
X77261252Y-96735000D01*
X76738748Y-95265000D02*
X77261252Y-95265000D01*
%TO.C,C5*%
X86235000Y-93238748D02*
X86235000Y-93761252D01*
X84765000Y-93238748D02*
X84765000Y-93761252D01*
%TO.C,C6*%
X66265000Y-77788748D02*
X66265000Y-78311252D01*
X67735000Y-77788748D02*
X67735000Y-78311252D01*
%TO.C,C7*%
X89761252Y-82265000D02*
X89238748Y-82265000D01*
X89761252Y-83735000D02*
X89238748Y-83735000D01*
%TO.C,D1*%
X69400000Y-91135000D02*
X73285000Y-91135000D01*
X73285000Y-91135000D02*
X73285000Y-88865000D01*
X73285000Y-88865000D02*
X69400000Y-88865000D01*
%TO.C,D2*%
X93590000Y-92500000D02*
X93590000Y-95385000D01*
X93590000Y-95385000D02*
X95410000Y-95385000D01*
X95410000Y-95385000D02*
X95410000Y-92500000D01*
%TO.C,D3*%
X91410000Y-95385000D02*
X91410000Y-92500000D01*
X89590000Y-95385000D02*
X91410000Y-95385000D01*
X89590000Y-92500000D02*
X89590000Y-95385000D01*
%TO.C,J1*%
X58090000Y-95410000D02*
X58090000Y-87590000D01*
X67410000Y-89390000D02*
X67840000Y-89390000D01*
X58090000Y-95410000D02*
X60040000Y-95410000D01*
X62260000Y-95410000D02*
X65490000Y-95410000D01*
X67410000Y-93610000D02*
X67410000Y-94690000D01*
X67410000Y-88310000D02*
X67410000Y-89390000D01*
X62260000Y-87590000D02*
X65490000Y-87590000D01*
X58090000Y-87590000D02*
X60040000Y-87590000D01*
D14*
%TO.C,J2*%
X78300000Y-62200000D02*
X78300000Y-64800000D01*
X75700000Y-62200000D02*
X75700000Y-62830000D01*
X75700000Y-64800000D02*
X75700000Y-64170000D01*
%TO.C,J3*%
X73500000Y-59500000D02*
X73500000Y-67500000D01*
X73500000Y-67500000D02*
X65500000Y-67500000D01*
X65500000Y-67500000D02*
X65500000Y-59500000D01*
X65500000Y-59500000D02*
X73500000Y-59500000D01*
D10*
X69600000Y-68000000D02*
G75*
G03*
X69600000Y-68000000I-100000J0D01*
G01*
D13*
%TO.C,J4*%
X113830000Y-65590000D02*
X111170000Y-65590000D01*
X113830000Y-70730000D02*
X113830000Y-65590000D01*
X111170000Y-70730000D02*
X111170000Y-65590000D01*
X113830000Y-70730000D02*
X111170000Y-70730000D01*
X113830000Y-72000000D02*
X113830000Y-73330000D01*
X113830000Y-73330000D02*
X112500000Y-73330000D01*
%TO.C,J5*%
X90330000Y-66330000D02*
X89000000Y-66330000D01*
X90330000Y-65000000D02*
X90330000Y-66330000D01*
X90330000Y-63730000D02*
X87670000Y-63730000D01*
X87670000Y-63730000D02*
X87670000Y-61130000D01*
X90330000Y-63730000D02*
X90330000Y-61130000D01*
X90330000Y-61130000D02*
X87670000Y-61130000D01*
%TO.C,J6*%
X111170000Y-81870000D02*
X113830000Y-81870000D01*
X111170000Y-79270000D02*
X111170000Y-81870000D01*
X113830000Y-79270000D02*
X113830000Y-81870000D01*
X111170000Y-79270000D02*
X113830000Y-79270000D01*
X111170000Y-78000000D02*
X111170000Y-76670000D01*
X111170000Y-76670000D02*
X112500000Y-76670000D01*
%TO.C,R1*%
X107772936Y-86265000D02*
X108227064Y-86265000D01*
X107772936Y-87735000D02*
X108227064Y-87735000D01*
%TO.C,R2*%
X104272936Y-89735000D02*
X104727064Y-89735000D01*
X104272936Y-88265000D02*
X104727064Y-88265000D01*
%TO.C,R3*%
X82772936Y-66735000D02*
X83227064Y-66735000D01*
X82772936Y-65265000D02*
X83227064Y-65265000D01*
%TO.C,R4*%
X95235000Y-89272936D02*
X95235000Y-89727064D01*
X93765000Y-89272936D02*
X93765000Y-89727064D01*
%TO.C,R5*%
X89765000Y-89272936D02*
X89765000Y-89727064D01*
X91235000Y-89272936D02*
X91235000Y-89727064D01*
%TO.C,R6*%
X88265000Y-69227064D02*
X88265000Y-68772936D01*
X89735000Y-69227064D02*
X89735000Y-68772936D01*
%TO.C,U4*%
X85600000Y-84100000D02*
X69400000Y-84100000D01*
X69400000Y-84100000D02*
X69400000Y-83700000D01*
X85600000Y-68300000D02*
X85600000Y-67900000D01*
X85600000Y-67900000D02*
X69400000Y-67900000D01*
X69400000Y-67900000D02*
X69400000Y-68300000D01*
X85600000Y-84100000D02*
X85600000Y-83750000D01*
X85600000Y-83750000D02*
X86500000Y-83750000D01*
D15*
%TO.C,U5*%
X108127000Y-82127000D02*
X91873000Y-82127000D01*
X91873000Y-82127000D02*
X91873000Y-81241000D01*
X108127000Y-81241000D02*
X108127000Y-82127000D01*
X91873000Y-65744000D02*
X91873000Y-57873000D01*
X91873000Y-57873000D02*
X108127000Y-57873000D01*
X108127000Y-57873000D02*
X108127000Y-65744000D01*
%TO.C,U3*%
D16*
X81738095Y-94452380D02*
X81738095Y-95261904D01*
X81785714Y-95357142D01*
X81833333Y-95404761D01*
X81928571Y-95452380D01*
X82119047Y-95452380D01*
X82214285Y-95404761D01*
X82261904Y-95357142D01*
X82309523Y-95261904D01*
X82309523Y-94452380D01*
X82690476Y-94452380D02*
X83309523Y-94452380D01*
X82976190Y-94833333D01*
X83119047Y-94833333D01*
X83214285Y-94880952D01*
X83261904Y-94928571D01*
X83309523Y-95023809D01*
X83309523Y-95261904D01*
X83261904Y-95357142D01*
X83214285Y-95404761D01*
X83119047Y-95452380D01*
X82833333Y-95452380D01*
X82738095Y-95404761D01*
X82690476Y-95357142D01*
%TO.C,J7*%
X111666666Y-83202380D02*
X111666666Y-83916666D01*
X111619047Y-84059523D01*
X111523809Y-84154761D01*
X111380952Y-84202380D01*
X111285714Y-84202380D01*
X112047619Y-83202380D02*
X112714285Y-83202380D01*
X112285714Y-84202380D01*
%TO.C,C1*%
X69333333Y-95857142D02*
X69285714Y-95904761D01*
X69142857Y-95952380D01*
X69047619Y-95952380D01*
X68904761Y-95904761D01*
X68809523Y-95809523D01*
X68761904Y-95714285D01*
X68714285Y-95523809D01*
X68714285Y-95380952D01*
X68761904Y-95190476D01*
X68809523Y-95095238D01*
X68904761Y-95000000D01*
X69047619Y-94952380D01*
X69142857Y-94952380D01*
X69285714Y-95000000D01*
X69333333Y-95047619D01*
X70285714Y-95952380D02*
X69714285Y-95952380D01*
X70000000Y-95952380D02*
X70000000Y-94952380D01*
X69904761Y-95095238D01*
X69809523Y-95190476D01*
X69714285Y-95238095D01*
%TO.C,C2*%
X104333333Y-85857142D02*
X104285714Y-85904761D01*
X104142857Y-85952380D01*
X104047619Y-85952380D01*
X103904761Y-85904761D01*
X103809523Y-85809523D01*
X103761904Y-85714285D01*
X103714285Y-85523809D01*
X103714285Y-85380952D01*
X103761904Y-85190476D01*
X103809523Y-85095238D01*
X103904761Y-85000000D01*
X104047619Y-84952380D01*
X104142857Y-84952380D01*
X104285714Y-85000000D01*
X104333333Y-85047619D01*
X104714285Y-85047619D02*
X104761904Y-85000000D01*
X104857142Y-84952380D01*
X105095238Y-84952380D01*
X105190476Y-85000000D01*
X105238095Y-85047619D01*
X105285714Y-85142857D01*
X105285714Y-85238095D01*
X105238095Y-85380952D01*
X104666666Y-85952380D01*
X105285714Y-85952380D01*
%TO.C,C3*%
X106833333Y-91357142D02*
X106785714Y-91404761D01*
X106642857Y-91452380D01*
X106547619Y-91452380D01*
X106404761Y-91404761D01*
X106309523Y-91309523D01*
X106261904Y-91214285D01*
X106214285Y-91023809D01*
X106214285Y-90880952D01*
X106261904Y-90690476D01*
X106309523Y-90595238D01*
X106404761Y-90500000D01*
X106547619Y-90452380D01*
X106642857Y-90452380D01*
X106785714Y-90500000D01*
X106833333Y-90547619D01*
X107166666Y-90452380D02*
X107785714Y-90452380D01*
X107452380Y-90833333D01*
X107595238Y-90833333D01*
X107690476Y-90880952D01*
X107738095Y-90928571D01*
X107785714Y-91023809D01*
X107785714Y-91261904D01*
X107738095Y-91357142D01*
X107690476Y-91404761D01*
X107595238Y-91452380D01*
X107309523Y-91452380D01*
X107214285Y-91404761D01*
X107166666Y-91357142D01*
%TO.C,C4*%
X79142857Y-95833333D02*
X79095238Y-95785714D01*
X79047619Y-95642857D01*
X79047619Y-95547619D01*
X79095238Y-95404761D01*
X79190476Y-95309523D01*
X79285714Y-95261904D01*
X79476190Y-95214285D01*
X79619047Y-95214285D01*
X79809523Y-95261904D01*
X79904761Y-95309523D01*
X80000000Y-95404761D01*
X80047619Y-95547619D01*
X80047619Y-95642857D01*
X80000000Y-95785714D01*
X79952380Y-95833333D01*
X79714285Y-96690476D02*
X79047619Y-96690476D01*
X80095238Y-96452380D02*
X79380952Y-96214285D01*
X79380952Y-96833333D01*
%TO.C,C5*%
X85333333Y-96357142D02*
X85285714Y-96404761D01*
X85142857Y-96452380D01*
X85047619Y-96452380D01*
X84904761Y-96404761D01*
X84809523Y-96309523D01*
X84761904Y-96214285D01*
X84714285Y-96023809D01*
X84714285Y-95880952D01*
X84761904Y-95690476D01*
X84809523Y-95595238D01*
X84904761Y-95500000D01*
X85047619Y-95452380D01*
X85142857Y-95452380D01*
X85285714Y-95500000D01*
X85333333Y-95547619D01*
X86238095Y-95452380D02*
X85761904Y-95452380D01*
X85714285Y-95928571D01*
X85761904Y-95880952D01*
X85857142Y-95833333D01*
X86095238Y-95833333D01*
X86190476Y-95880952D01*
X86238095Y-95928571D01*
X86285714Y-96023809D01*
X86285714Y-96261904D01*
X86238095Y-96357142D01*
X86190476Y-96404761D01*
X86095238Y-96452380D01*
X85857142Y-96452380D01*
X85761904Y-96404761D01*
X85714285Y-96357142D01*
%TO.C,C6*%
X66833333Y-75907142D02*
X66785714Y-75954761D01*
X66642857Y-76002380D01*
X66547619Y-76002380D01*
X66404761Y-75954761D01*
X66309523Y-75859523D01*
X66261904Y-75764285D01*
X66214285Y-75573809D01*
X66214285Y-75430952D01*
X66261904Y-75240476D01*
X66309523Y-75145238D01*
X66404761Y-75050000D01*
X66547619Y-75002380D01*
X66642857Y-75002380D01*
X66785714Y-75050000D01*
X66833333Y-75097619D01*
X67690476Y-75002380D02*
X67500000Y-75002380D01*
X67404761Y-75050000D01*
X67357142Y-75097619D01*
X67261904Y-75240476D01*
X67214285Y-75430952D01*
X67214285Y-75811904D01*
X67261904Y-75907142D01*
X67309523Y-75954761D01*
X67404761Y-76002380D01*
X67595238Y-76002380D01*
X67690476Y-75954761D01*
X67738095Y-75907142D01*
X67785714Y-75811904D01*
X67785714Y-75573809D01*
X67738095Y-75478571D01*
X67690476Y-75430952D01*
X67595238Y-75383333D01*
X67404761Y-75383333D01*
X67309523Y-75430952D01*
X67261904Y-75478571D01*
X67214285Y-75573809D01*
%TO.C,C7*%
X88833333Y-81857142D02*
X88785714Y-81904761D01*
X88642857Y-81952380D01*
X88547619Y-81952380D01*
X88404761Y-81904761D01*
X88309523Y-81809523D01*
X88261904Y-81714285D01*
X88214285Y-81523809D01*
X88214285Y-81380952D01*
X88261904Y-81190476D01*
X88309523Y-81095238D01*
X88404761Y-81000000D01*
X88547619Y-80952380D01*
X88642857Y-80952380D01*
X88785714Y-81000000D01*
X88833333Y-81047619D01*
X89166666Y-80952380D02*
X89833333Y-80952380D01*
X89404761Y-81952380D01*
%TO.C,D1*%
X69261904Y-88452380D02*
X69261904Y-87452380D01*
X69500000Y-87452380D01*
X69642857Y-87500000D01*
X69738095Y-87595238D01*
X69785714Y-87690476D01*
X69833333Y-87880952D01*
X69833333Y-88023809D01*
X69785714Y-88214285D01*
X69738095Y-88309523D01*
X69642857Y-88404761D01*
X69500000Y-88452380D01*
X69261904Y-88452380D01*
X70785714Y-88452380D02*
X70214285Y-88452380D01*
X70500000Y-88452380D02*
X70500000Y-87452380D01*
X70404761Y-87595238D01*
X70309523Y-87690476D01*
X70214285Y-87738095D01*
%TO.C,D2*%
X92952380Y-95238095D02*
X91952380Y-95238095D01*
X91952380Y-95000000D01*
X92000000Y-94857142D01*
X92095238Y-94761904D01*
X92190476Y-94714285D01*
X92380952Y-94666666D01*
X92523809Y-94666666D01*
X92714285Y-94714285D01*
X92809523Y-94761904D01*
X92904761Y-94857142D01*
X92952380Y-95000000D01*
X92952380Y-95238095D01*
X92047619Y-94285714D02*
X92000000Y-94238095D01*
X91952380Y-94142857D01*
X91952380Y-93904761D01*
X92000000Y-93809523D01*
X92047619Y-93761904D01*
X92142857Y-93714285D01*
X92238095Y-93714285D01*
X92380952Y-93761904D01*
X92952380Y-94333333D01*
X92952380Y-93714285D01*
%TO.C,D3*%
X88952380Y-95238095D02*
X87952380Y-95238095D01*
X87952380Y-95000000D01*
X88000000Y-94857142D01*
X88095238Y-94761904D01*
X88190476Y-94714285D01*
X88380952Y-94666666D01*
X88523809Y-94666666D01*
X88714285Y-94714285D01*
X88809523Y-94761904D01*
X88904761Y-94857142D01*
X88952380Y-95000000D01*
X88952380Y-95238095D01*
X87952380Y-94333333D02*
X87952380Y-93714285D01*
X88333333Y-94047619D01*
X88333333Y-93904761D01*
X88380952Y-93809523D01*
X88428571Y-93761904D01*
X88523809Y-93714285D01*
X88761904Y-93714285D01*
X88857142Y-93761904D01*
X88904761Y-93809523D01*
X88952380Y-93904761D01*
X88952380Y-94190476D01*
X88904761Y-94285714D01*
X88857142Y-94333333D01*
%TO.C,J1*%
X63666666Y-85952380D02*
X63666666Y-86666666D01*
X63619047Y-86809523D01*
X63523809Y-86904761D01*
X63380952Y-86952380D01*
X63285714Y-86952380D01*
X64666666Y-86952380D02*
X64095238Y-86952380D01*
X64380952Y-86952380D02*
X64380952Y-85952380D01*
X64285714Y-86095238D01*
X64190476Y-86190476D01*
X64095238Y-86238095D01*
%TO.C,J2*%
X79166666Y-61952380D02*
X79166666Y-62666666D01*
X79119047Y-62809523D01*
X79023809Y-62904761D01*
X78880952Y-62952380D01*
X78785714Y-62952380D01*
X79595238Y-62047619D02*
X79642857Y-62000000D01*
X79738095Y-61952380D01*
X79976190Y-61952380D01*
X80071428Y-62000000D01*
X80119047Y-62047619D01*
X80166666Y-62142857D01*
X80166666Y-62238095D01*
X80119047Y-62380952D01*
X79547619Y-62952380D01*
X80166666Y-62952380D01*
%TO.C,J3*%
X64166666Y-61952380D02*
X64166666Y-62666666D01*
X64119047Y-62809523D01*
X64023809Y-62904761D01*
X63880952Y-62952380D01*
X63785714Y-62952380D01*
X64547619Y-61952380D02*
X65166666Y-61952380D01*
X64833333Y-62333333D01*
X64976190Y-62333333D01*
X65071428Y-62380952D01*
X65119047Y-62428571D01*
X65166666Y-62523809D01*
X65166666Y-62761904D01*
X65119047Y-62857142D01*
X65071428Y-62904761D01*
X64976190Y-62952380D01*
X64690476Y-62952380D01*
X64595238Y-62904761D01*
X64547619Y-62857142D01*
%TO.C,J4*%
X111666666Y-64202380D02*
X111666666Y-64916666D01*
X111619047Y-65059523D01*
X111523809Y-65154761D01*
X111380952Y-65202380D01*
X111285714Y-65202380D01*
X112571428Y-64535714D02*
X112571428Y-65202380D01*
X112333333Y-64154761D02*
X112095238Y-64869047D01*
X112714285Y-64869047D01*
%TO.C,J5*%
X88166666Y-59702380D02*
X88166666Y-60416666D01*
X88119047Y-60559523D01*
X88023809Y-60654761D01*
X87880952Y-60702380D01*
X87785714Y-60702380D01*
X89119047Y-59702380D02*
X88642857Y-59702380D01*
X88595238Y-60178571D01*
X88642857Y-60130952D01*
X88738095Y-60083333D01*
X88976190Y-60083333D01*
X89071428Y-60130952D01*
X89119047Y-60178571D01*
X89166666Y-60273809D01*
X89166666Y-60511904D01*
X89119047Y-60607142D01*
X89071428Y-60654761D01*
X88976190Y-60702380D01*
X88738095Y-60702380D01*
X88642857Y-60654761D01*
X88595238Y-60607142D01*
%TO.C,J6*%
X111666666Y-75202380D02*
X111666666Y-75916666D01*
X111619047Y-76059523D01*
X111523809Y-76154761D01*
X111380952Y-76202380D01*
X111285714Y-76202380D01*
X112571428Y-75202380D02*
X112380952Y-75202380D01*
X112285714Y-75250000D01*
X112238095Y-75297619D01*
X112142857Y-75440476D01*
X112095238Y-75630952D01*
X112095238Y-76011904D01*
X112142857Y-76107142D01*
X112190476Y-76154761D01*
X112285714Y-76202380D01*
X112476190Y-76202380D01*
X112571428Y-76154761D01*
X112619047Y-76107142D01*
X112666666Y-76011904D01*
X112666666Y-75773809D01*
X112619047Y-75678571D01*
X112571428Y-75630952D01*
X112476190Y-75583333D01*
X112285714Y-75583333D01*
X112190476Y-75630952D01*
X112142857Y-75678571D01*
X112095238Y-75773809D01*
%TO.C,R1*%
X107833333Y-85802380D02*
X107500000Y-85326190D01*
X107261904Y-85802380D02*
X107261904Y-84802380D01*
X107642857Y-84802380D01*
X107738095Y-84850000D01*
X107785714Y-84897619D01*
X107833333Y-84992857D01*
X107833333Y-85135714D01*
X107785714Y-85230952D01*
X107738095Y-85278571D01*
X107642857Y-85326190D01*
X107261904Y-85326190D01*
X108785714Y-85802380D02*
X108214285Y-85802380D01*
X108500000Y-85802380D02*
X108500000Y-84802380D01*
X108404761Y-84945238D01*
X108309523Y-85040476D01*
X108214285Y-85088095D01*
%TO.C,R2*%
X106833333Y-89452380D02*
X106500000Y-88976190D01*
X106261904Y-89452380D02*
X106261904Y-88452380D01*
X106642857Y-88452380D01*
X106738095Y-88500000D01*
X106785714Y-88547619D01*
X106833333Y-88642857D01*
X106833333Y-88785714D01*
X106785714Y-88880952D01*
X106738095Y-88928571D01*
X106642857Y-88976190D01*
X106261904Y-88976190D01*
X107214285Y-88547619D02*
X107261904Y-88500000D01*
X107357142Y-88452380D01*
X107595238Y-88452380D01*
X107690476Y-88500000D01*
X107738095Y-88547619D01*
X107785714Y-88642857D01*
X107785714Y-88738095D01*
X107738095Y-88880952D01*
X107166666Y-89452380D01*
X107785714Y-89452380D01*
%TO.C,R3*%
X82333333Y-64952380D02*
X82000000Y-64476190D01*
X81761904Y-64952380D02*
X81761904Y-63952380D01*
X82142857Y-63952380D01*
X82238095Y-64000000D01*
X82285714Y-64047619D01*
X82333333Y-64142857D01*
X82333333Y-64285714D01*
X82285714Y-64380952D01*
X82238095Y-64428571D01*
X82142857Y-64476190D01*
X81761904Y-64476190D01*
X82666666Y-63952380D02*
X83285714Y-63952380D01*
X82952380Y-64333333D01*
X83095238Y-64333333D01*
X83190476Y-64380952D01*
X83238095Y-64428571D01*
X83285714Y-64523809D01*
X83285714Y-64761904D01*
X83238095Y-64857142D01*
X83190476Y-64904761D01*
X83095238Y-64952380D01*
X82809523Y-64952380D01*
X82714285Y-64904761D01*
X82666666Y-64857142D01*
%TO.C,R4*%
X94333333Y-87452380D02*
X94000000Y-86976190D01*
X93761904Y-87452380D02*
X93761904Y-86452380D01*
X94142857Y-86452380D01*
X94238095Y-86500000D01*
X94285714Y-86547619D01*
X94333333Y-86642857D01*
X94333333Y-86785714D01*
X94285714Y-86880952D01*
X94238095Y-86928571D01*
X94142857Y-86976190D01*
X93761904Y-86976190D01*
X95190476Y-86785714D02*
X95190476Y-87452380D01*
X94952380Y-86404761D02*
X94714285Y-87119047D01*
X95333333Y-87119047D01*
%TO.C,R5*%
X90333333Y-87452380D02*
X90000000Y-86976190D01*
X89761904Y-87452380D02*
X89761904Y-86452380D01*
X90142857Y-86452380D01*
X90238095Y-86500000D01*
X90285714Y-86547619D01*
X90333333Y-86642857D01*
X90333333Y-86785714D01*
X90285714Y-86880952D01*
X90238095Y-86928571D01*
X90142857Y-86976190D01*
X89761904Y-86976190D01*
X91238095Y-86452380D02*
X90761904Y-86452380D01*
X90714285Y-86928571D01*
X90761904Y-86880952D01*
X90857142Y-86833333D01*
X91095238Y-86833333D01*
X91190476Y-86880952D01*
X91238095Y-86928571D01*
X91285714Y-87023809D01*
X91285714Y-87261904D01*
X91238095Y-87357142D01*
X91190476Y-87404761D01*
X91095238Y-87452380D01*
X90857142Y-87452380D01*
X90761904Y-87404761D01*
X90714285Y-87357142D01*
%TO.C,R6*%
X88833333Y-71952380D02*
X88500000Y-71476190D01*
X88261904Y-71952380D02*
X88261904Y-70952380D01*
X88642857Y-70952380D01*
X88738095Y-71000000D01*
X88785714Y-71047619D01*
X88833333Y-71142857D01*
X88833333Y-71285714D01*
X88785714Y-71380952D01*
X88738095Y-71428571D01*
X88642857Y-71476190D01*
X88261904Y-71476190D01*
X89690476Y-70952380D02*
X89500000Y-70952380D01*
X89404761Y-71000000D01*
X89357142Y-71047619D01*
X89261904Y-71190476D01*
X89214285Y-71380952D01*
X89214285Y-71761904D01*
X89261904Y-71857142D01*
X89309523Y-71904761D01*
X89404761Y-71952380D01*
X89595238Y-71952380D01*
X89690476Y-71904761D01*
X89738095Y-71857142D01*
X89785714Y-71761904D01*
X89785714Y-71523809D01*
X89738095Y-71428571D01*
X89690476Y-71380952D01*
X89595238Y-71333333D01*
X89404761Y-71333333D01*
X89309523Y-71380952D01*
X89261904Y-71428571D01*
X89214285Y-71523809D01*
%TO.C,U2*%
X98238095Y-85452380D02*
X98238095Y-86261904D01*
X98285714Y-86357142D01*
X98333333Y-86404761D01*
X98428571Y-86452380D01*
X98619047Y-86452380D01*
X98714285Y-86404761D01*
X98761904Y-86357142D01*
X98809523Y-86261904D01*
X98809523Y-85452380D01*
X99238095Y-85547619D02*
X99285714Y-85500000D01*
X99380952Y-85452380D01*
X99619047Y-85452380D01*
X99714285Y-85500000D01*
X99761904Y-85547619D01*
X99809523Y-85642857D01*
X99809523Y-85738095D01*
X99761904Y-85880952D01*
X99190476Y-86452380D01*
X99809523Y-86452380D01*
%TO.C,U4*%
X68738095Y-84702380D02*
X68738095Y-85511904D01*
X68785714Y-85607142D01*
X68833333Y-85654761D01*
X68928571Y-85702380D01*
X69119047Y-85702380D01*
X69214285Y-85654761D01*
X69261904Y-85607142D01*
X69309523Y-85511904D01*
X69309523Y-84702380D01*
X70214285Y-85035714D02*
X70214285Y-85702380D01*
X69976190Y-84654761D02*
X69738095Y-85369047D01*
X70357142Y-85369047D01*
%TO.C,U5*%
X91988095Y-82702380D02*
X91988095Y-83511904D01*
X92035714Y-83607142D01*
X92083333Y-83654761D01*
X92178571Y-83702380D01*
X92369047Y-83702380D01*
X92464285Y-83654761D01*
X92511904Y-83607142D01*
X92559523Y-83511904D01*
X92559523Y-82702380D01*
X93511904Y-82702380D02*
X93035714Y-82702380D01*
X92988095Y-83178571D01*
X93035714Y-83130952D01*
X93130952Y-83083333D01*
X93369047Y-83083333D01*
X93464285Y-83130952D01*
X93511904Y-83178571D01*
X93559523Y-83273809D01*
X93559523Y-83511904D01*
X93511904Y-83607142D01*
X93464285Y-83654761D01*
X93369047Y-83702380D01*
X93130952Y-83702380D01*
X93035714Y-83654761D01*
X92988095Y-83607142D01*
%TD*%
M02*
