%TF.GenerationSoftware,KiCad,Pcbnew,5.1.10-88a1d61d58~88~ubuntu20.04.1*%
%TF.CreationDate,2021-08-10T15:11:50-03:00*%
%TF.ProjectId,lora_end_device,6c6f7261-5f65-46e6-945f-646576696365,rev?*%
%TF.SameCoordinates,Original*%
%TF.FileFunction,Copper,L2,Bot*%
%TF.FilePolarity,Positive*%
%FSLAX46Y46*%
G04 Gerber Fmt 4.6, Leading zero omitted, Abs format (unit mm)*
G04 Created by KiCad (PCBNEW 5.1.10-88a1d61d58~88~ubuntu20.04.1) date 2021-08-10 15:11:50*
%MOMM*%
%LPD*%
G01*
G04 APERTURE LIST*
%TA.AperFunction,ComponentPad*%
%ADD10C,5.000000*%
%TD*%
%TA.AperFunction,ComponentPad*%
%ADD11O,1.700000X1.700000*%
%TD*%
%TA.AperFunction,ComponentPad*%
%ADD12R,1.700000X1.700000*%
%TD*%
%TA.AperFunction,ComponentPad*%
%ADD13R,2.250000X2.250000*%
%TD*%
%TA.AperFunction,ComponentPad*%
%ADD14C,2.550000*%
%TD*%
%TA.AperFunction,ViaPad*%
%ADD15C,0.800000*%
%TD*%
%TA.AperFunction,Conductor*%
%ADD16C,0.250000*%
%TD*%
%TA.AperFunction,Conductor*%
%ADD17C,0.254000*%
%TD*%
%TA.AperFunction,Conductor*%
%ADD18C,0.100000*%
%TD*%
G04 APERTURE END LIST*
D10*
%TO.P,H4,1*%
%TO.N,GND*%
X114000000Y-96000000D03*
%TD*%
%TO.P,H3,1*%
%TO.N,GND*%
X114000000Y-61000000D03*
%TD*%
%TO.P,H2,1*%
%TO.N,GND*%
X61000000Y-61000000D03*
%TD*%
%TO.P,H1,1*%
%TO.N,GND*%
X61000000Y-82000000D03*
%TD*%
D11*
%TO.P,J7,3*%
%TO.N,+3V3*%
X112500000Y-85920000D03*
%TO.P,J7,2*%
%TO.N,Net-(J7-Pad2)*%
X112500000Y-88460000D03*
D12*
%TO.P,J7,1*%
%TO.N,GND*%
X112500000Y-91000000D03*
%TD*%
D13*
%TO.P,J3,1*%
%TO.N,Net-(J2-Pad2)*%
X69500000Y-63500000D03*
D14*
%TO.P,J3,2*%
%TO.N,GND*%
X72040000Y-66040000D03*
%TO.P,J3,3*%
X66960000Y-66040000D03*
%TO.P,J3,4*%
X66960000Y-60960000D03*
%TO.P,J3,5*%
X72040000Y-60960000D03*
%TD*%
D12*
%TO.P,J4,1*%
%TO.N,Net-(J4-Pad1)*%
X112500000Y-72000000D03*
D11*
%TO.P,J4,2*%
%TO.N,Net-(J4-Pad2)*%
X112500000Y-69460000D03*
%TO.P,J4,3*%
%TO.N,GND*%
X112500000Y-66920000D03*
%TD*%
%TO.P,J5,2*%
%TO.N,GND*%
X89000000Y-62460000D03*
D12*
%TO.P,J5,1*%
%TO.N,Net-(J5-Pad1)*%
X89000000Y-65000000D03*
%TD*%
%TO.P,J6,1*%
%TO.N,Net-(J6-Pad1)*%
X112500000Y-78000000D03*
D11*
%TO.P,J6,2*%
%TO.N,GND*%
X112500000Y-80540000D03*
%TD*%
D15*
%TO.N,+3V3*%
X98000000Y-85000000D03*
X96000000Y-85000000D03*
%TO.N,Net-(J6-Pad1)*%
X104000000Y-74500000D03*
X90500000Y-87500000D03*
%TO.N,Net-(R3-Pad1)*%
X105500000Y-78500000D03*
X87500000Y-74500000D03*
%TO.N,Net-(R4-Pad1)*%
X104000000Y-76500000D03*
X94500000Y-87500000D03*
%TO.N,Net-(U4-Pad14)*%
X105500000Y-69500000D03*
X72500000Y-79000000D03*
%TO.N,Net-(U4-Pad15)*%
X105500000Y-72000000D03*
X72500000Y-81000000D03*
%TD*%
D16*
%TO.N,+3V3*%
X98000000Y-85000000D02*
X96000000Y-85000000D01*
%TO.N,Net-(J6-Pad1)*%
X102500000Y-74500000D02*
X90500000Y-86500000D01*
X102500000Y-74500000D02*
X104000000Y-74500000D01*
X90500000Y-86500000D02*
X90500000Y-87500000D01*
%TO.N,Net-(R3-Pad1)*%
X105500000Y-78500000D02*
X105500000Y-74000000D01*
X105274999Y-73774999D02*
X88225001Y-73774999D01*
X105500000Y-74000000D02*
X105274999Y-73774999D01*
X88225001Y-73774999D02*
X87500000Y-74500000D01*
%TO.N,Net-(R4-Pad1)*%
X101500000Y-76500000D02*
X94500000Y-83500000D01*
X94500000Y-83500000D02*
X94500000Y-86500000D01*
X101500000Y-76500000D02*
X104000000Y-76500000D01*
X94500000Y-86500000D02*
X94500000Y-87500000D01*
%TO.N,Net-(U4-Pad14)*%
X105500000Y-69500000D02*
X82000000Y-69500000D01*
X82000000Y-69500000D02*
X72500000Y-79000000D01*
%TO.N,Net-(U4-Pad15)*%
X105500000Y-72000000D02*
X81500000Y-72000000D01*
X81500000Y-72000000D02*
X72500000Y-81000000D01*
%TD*%
D17*
%TO.N,GND*%
X58976457Y-58796852D02*
X61000000Y-60820395D01*
X63023543Y-58796852D01*
X62933119Y-58660000D01*
X91340000Y-58660000D01*
X91340001Y-64967571D01*
X91336807Y-65000000D01*
X91349550Y-65129383D01*
X91387290Y-65253793D01*
X91448575Y-65368450D01*
X91531052Y-65468948D01*
X91631550Y-65551425D01*
X91746207Y-65612710D01*
X91870617Y-65650450D01*
X91967581Y-65660000D01*
X92000000Y-65663193D01*
X92032419Y-65660000D01*
X107967581Y-65660000D01*
X108000000Y-65663193D01*
X108032419Y-65660000D01*
X108129383Y-65650450D01*
X108253793Y-65612710D01*
X108368450Y-65551425D01*
X108468948Y-65468948D01*
X108551425Y-65368450D01*
X108612710Y-65253793D01*
X108650450Y-65129383D01*
X108663193Y-65000000D01*
X108660000Y-64967581D01*
X108660000Y-63203148D01*
X111976457Y-63203148D01*
X112252627Y-63621118D01*
X112797557Y-63911649D01*
X113388696Y-64090287D01*
X114003328Y-64150168D01*
X114617831Y-64088990D01*
X115208592Y-63909103D01*
X115747373Y-63621118D01*
X116023543Y-63203148D01*
X114000000Y-61179605D01*
X111976457Y-63203148D01*
X108660000Y-63203148D01*
X108660000Y-61003328D01*
X110849832Y-61003328D01*
X110911010Y-61617831D01*
X111090897Y-62208592D01*
X111378882Y-62747373D01*
X111796852Y-63023543D01*
X113820395Y-61000000D01*
X111796852Y-58976457D01*
X111378882Y-59252627D01*
X111088351Y-59797557D01*
X110909713Y-60388696D01*
X110849832Y-61003328D01*
X108660000Y-61003328D01*
X108660000Y-58660000D01*
X112066881Y-58660000D01*
X111976457Y-58796852D01*
X114000000Y-60820395D01*
X116023543Y-58796852D01*
X115933119Y-58660000D01*
X116340000Y-58660000D01*
X116340000Y-59066881D01*
X116203148Y-58976457D01*
X114179605Y-61000000D01*
X116203148Y-63023543D01*
X116340000Y-62933119D01*
X116340001Y-94066881D01*
X116203148Y-93976457D01*
X114179605Y-96000000D01*
X116203148Y-98023543D01*
X116340001Y-97933119D01*
X116340001Y-98340000D01*
X115933119Y-98340000D01*
X116023543Y-98203148D01*
X114000000Y-96179605D01*
X111976457Y-98203148D01*
X112066881Y-98340000D01*
X58660000Y-98340000D01*
X58660000Y-96003328D01*
X110849832Y-96003328D01*
X110911010Y-96617831D01*
X111090897Y-97208592D01*
X111378882Y-97747373D01*
X111796852Y-98023543D01*
X113820395Y-96000000D01*
X111796852Y-93976457D01*
X111378882Y-94252627D01*
X111088351Y-94797557D01*
X110909713Y-95388696D01*
X110849832Y-96003328D01*
X58660000Y-96003328D01*
X58660000Y-93588212D01*
X62865000Y-93588212D01*
X62865000Y-93811788D01*
X62908617Y-94031067D01*
X62994176Y-94237624D01*
X63118388Y-94423520D01*
X63276480Y-94581612D01*
X63462376Y-94705824D01*
X63668933Y-94791383D01*
X63888212Y-94835000D01*
X64111788Y-94835000D01*
X64331067Y-94791383D01*
X64537624Y-94705824D01*
X64723520Y-94581612D01*
X64881612Y-94423520D01*
X65005824Y-94237624D01*
X65091383Y-94031067D01*
X65135000Y-93811788D01*
X65135000Y-93796852D01*
X111976457Y-93796852D01*
X114000000Y-95820395D01*
X116023543Y-93796852D01*
X115747373Y-93378882D01*
X115202443Y-93088351D01*
X114611304Y-92909713D01*
X113996672Y-92849832D01*
X113382169Y-92911010D01*
X112791408Y-93090897D01*
X112252627Y-93378882D01*
X111976457Y-93796852D01*
X65135000Y-93796852D01*
X65135000Y-93588212D01*
X65091383Y-93368933D01*
X65005824Y-93162376D01*
X64881612Y-92976480D01*
X64723520Y-92818388D01*
X64537624Y-92694176D01*
X64331067Y-92608617D01*
X64111788Y-92565000D01*
X63888212Y-92565000D01*
X63668933Y-92608617D01*
X63462376Y-92694176D01*
X63276480Y-92818388D01*
X63118388Y-92976480D01*
X62994176Y-93162376D01*
X62908617Y-93368933D01*
X62865000Y-93588212D01*
X58660000Y-93588212D01*
X58660000Y-91850000D01*
X111011928Y-91850000D01*
X111024188Y-91974482D01*
X111060498Y-92094180D01*
X111119463Y-92204494D01*
X111198815Y-92301185D01*
X111295506Y-92380537D01*
X111405820Y-92439502D01*
X111525518Y-92475812D01*
X111650000Y-92488072D01*
X112214250Y-92485000D01*
X112373000Y-92326250D01*
X112373000Y-91127000D01*
X112627000Y-91127000D01*
X112627000Y-92326250D01*
X112785750Y-92485000D01*
X113350000Y-92488072D01*
X113474482Y-92475812D01*
X113594180Y-92439502D01*
X113704494Y-92380537D01*
X113801185Y-92301185D01*
X113880537Y-92204494D01*
X113939502Y-92094180D01*
X113975812Y-91974482D01*
X113988072Y-91850000D01*
X113985000Y-91285750D01*
X113826250Y-91127000D01*
X112627000Y-91127000D01*
X112373000Y-91127000D01*
X111173750Y-91127000D01*
X111015000Y-91285750D01*
X111011928Y-91850000D01*
X58660000Y-91850000D01*
X58660000Y-89188212D01*
X62865000Y-89188212D01*
X62865000Y-89411788D01*
X62908617Y-89631067D01*
X62994176Y-89837624D01*
X63118388Y-90023520D01*
X63276480Y-90181612D01*
X63462376Y-90305824D01*
X63668933Y-90391383D01*
X63888212Y-90435000D01*
X64111788Y-90435000D01*
X64331067Y-90391383D01*
X64537624Y-90305824D01*
X64723520Y-90181612D01*
X64755132Y-90150000D01*
X111011928Y-90150000D01*
X111015000Y-90714250D01*
X111173750Y-90873000D01*
X112373000Y-90873000D01*
X112373000Y-90853000D01*
X112627000Y-90853000D01*
X112627000Y-90873000D01*
X113826250Y-90873000D01*
X113985000Y-90714250D01*
X113988072Y-90150000D01*
X113975812Y-90025518D01*
X113939502Y-89905820D01*
X113880537Y-89795506D01*
X113801185Y-89698815D01*
X113704494Y-89619463D01*
X113594180Y-89560498D01*
X113521620Y-89538487D01*
X113653475Y-89406632D01*
X113815990Y-89163411D01*
X113927932Y-88893158D01*
X113985000Y-88606260D01*
X113985000Y-88313740D01*
X113927932Y-88026842D01*
X113815990Y-87756589D01*
X113653475Y-87513368D01*
X113446632Y-87306525D01*
X113272240Y-87190000D01*
X113446632Y-87073475D01*
X113653475Y-86866632D01*
X113815990Y-86623411D01*
X113927932Y-86353158D01*
X113985000Y-86066260D01*
X113985000Y-85773740D01*
X113927932Y-85486842D01*
X113815990Y-85216589D01*
X113653475Y-84973368D01*
X113446632Y-84766525D01*
X113203411Y-84604010D01*
X112933158Y-84492068D01*
X112646260Y-84435000D01*
X112353740Y-84435000D01*
X112066842Y-84492068D01*
X111796589Y-84604010D01*
X111553368Y-84766525D01*
X111346525Y-84973368D01*
X111184010Y-85216589D01*
X111072068Y-85486842D01*
X111015000Y-85773740D01*
X111015000Y-86066260D01*
X111072068Y-86353158D01*
X111184010Y-86623411D01*
X111346525Y-86866632D01*
X111553368Y-87073475D01*
X111727760Y-87190000D01*
X111553368Y-87306525D01*
X111346525Y-87513368D01*
X111184010Y-87756589D01*
X111072068Y-88026842D01*
X111015000Y-88313740D01*
X111015000Y-88606260D01*
X111072068Y-88893158D01*
X111184010Y-89163411D01*
X111346525Y-89406632D01*
X111478380Y-89538487D01*
X111405820Y-89560498D01*
X111295506Y-89619463D01*
X111198815Y-89698815D01*
X111119463Y-89795506D01*
X111060498Y-89905820D01*
X111024188Y-90025518D01*
X111011928Y-90150000D01*
X64755132Y-90150000D01*
X64881612Y-90023520D01*
X65005824Y-89837624D01*
X65091383Y-89631067D01*
X65135000Y-89411788D01*
X65135000Y-89188212D01*
X65091383Y-88968933D01*
X65005824Y-88762376D01*
X64881612Y-88576480D01*
X64723520Y-88418388D01*
X64537624Y-88294176D01*
X64331067Y-88208617D01*
X64111788Y-88165000D01*
X63888212Y-88165000D01*
X63668933Y-88208617D01*
X63462376Y-88294176D01*
X63276480Y-88418388D01*
X63118388Y-88576480D01*
X62994176Y-88762376D01*
X62908617Y-88968933D01*
X62865000Y-89188212D01*
X58660000Y-89188212D01*
X58660000Y-84203148D01*
X58976457Y-84203148D01*
X59252627Y-84621118D01*
X59797557Y-84911649D01*
X60388696Y-85090287D01*
X61003328Y-85150168D01*
X61617831Y-85088990D01*
X62208592Y-84909103D01*
X62747373Y-84621118D01*
X63023543Y-84203148D01*
X61000000Y-82179605D01*
X58976457Y-84203148D01*
X58660000Y-84203148D01*
X58660000Y-83933119D01*
X58796852Y-84023543D01*
X60820395Y-82000000D01*
X61179605Y-82000000D01*
X63203148Y-84023543D01*
X63621118Y-83747373D01*
X63911649Y-83202443D01*
X64090287Y-82611304D01*
X64150168Y-81996672D01*
X64088990Y-81382169D01*
X63909103Y-80791408D01*
X63621118Y-80252627D01*
X63203148Y-79976457D01*
X61179605Y-82000000D01*
X60820395Y-82000000D01*
X58796852Y-79976457D01*
X58660000Y-80066881D01*
X58660000Y-79796852D01*
X58976457Y-79796852D01*
X61000000Y-81820395D01*
X63023543Y-79796852D01*
X62747373Y-79378882D01*
X62202443Y-79088351D01*
X61611304Y-78909713D01*
X61491706Y-78898061D01*
X71465000Y-78898061D01*
X71465000Y-79101939D01*
X71504774Y-79301898D01*
X71582795Y-79490256D01*
X71696063Y-79659774D01*
X71840226Y-79803937D01*
X72009744Y-79917205D01*
X72198102Y-79995226D01*
X72222103Y-80000000D01*
X72198102Y-80004774D01*
X72009744Y-80082795D01*
X71840226Y-80196063D01*
X71696063Y-80340226D01*
X71582795Y-80509744D01*
X71504774Y-80698102D01*
X71465000Y-80898061D01*
X71465000Y-81101939D01*
X71504774Y-81301898D01*
X71582795Y-81490256D01*
X71696063Y-81659774D01*
X71840226Y-81803937D01*
X72009744Y-81917205D01*
X72198102Y-81995226D01*
X72398061Y-82035000D01*
X72601939Y-82035000D01*
X72801898Y-81995226D01*
X72990256Y-81917205D01*
X73159774Y-81803937D01*
X73303937Y-81659774D01*
X73417205Y-81490256D01*
X73495226Y-81301898D01*
X73535000Y-81101939D01*
X73535000Y-81039801D01*
X81814802Y-72760000D01*
X104796289Y-72760000D01*
X104840226Y-72803937D01*
X105009744Y-72917205D01*
X105198102Y-72995226D01*
X105282979Y-73012109D01*
X105274999Y-73011323D01*
X105237677Y-73014999D01*
X88262323Y-73014999D01*
X88225000Y-73011323D01*
X88187677Y-73014999D01*
X88187668Y-73014999D01*
X88076015Y-73025996D01*
X87932754Y-73069453D01*
X87800725Y-73140025D01*
X87685000Y-73234998D01*
X87661202Y-73263997D01*
X87460198Y-73465000D01*
X87398061Y-73465000D01*
X87198102Y-73504774D01*
X87009744Y-73582795D01*
X86840226Y-73696063D01*
X86696063Y-73840226D01*
X86582795Y-74009744D01*
X86504774Y-74198102D01*
X86465000Y-74398061D01*
X86465000Y-74601939D01*
X86504774Y-74801898D01*
X86582795Y-74990256D01*
X86696063Y-75159774D01*
X86840226Y-75303937D01*
X87009744Y-75417205D01*
X87198102Y-75495226D01*
X87398061Y-75535000D01*
X87601939Y-75535000D01*
X87801898Y-75495226D01*
X87990256Y-75417205D01*
X88159774Y-75303937D01*
X88303937Y-75159774D01*
X88417205Y-74990256D01*
X88495226Y-74801898D01*
X88535000Y-74601939D01*
X88535000Y-74539802D01*
X88539803Y-74534999D01*
X101390199Y-74534999D01*
X89989003Y-85936196D01*
X89959999Y-85959999D01*
X89904871Y-86027174D01*
X89865026Y-86075724D01*
X89794455Y-86207753D01*
X89794454Y-86207754D01*
X89750997Y-86351015D01*
X89740000Y-86462668D01*
X89740000Y-86462678D01*
X89736324Y-86500000D01*
X89740000Y-86537323D01*
X89740000Y-86796289D01*
X89696063Y-86840226D01*
X89582795Y-87009744D01*
X89504774Y-87198102D01*
X89465000Y-87398061D01*
X89465000Y-87601939D01*
X89504774Y-87801898D01*
X89582795Y-87990256D01*
X89696063Y-88159774D01*
X89840226Y-88303937D01*
X90009744Y-88417205D01*
X90198102Y-88495226D01*
X90398061Y-88535000D01*
X90601939Y-88535000D01*
X90801898Y-88495226D01*
X90990256Y-88417205D01*
X91159774Y-88303937D01*
X91303937Y-88159774D01*
X91417205Y-87990256D01*
X91495226Y-87801898D01*
X91535000Y-87601939D01*
X91535000Y-87398061D01*
X91495226Y-87198102D01*
X91417205Y-87009744D01*
X91303937Y-86840226D01*
X91269256Y-86805545D01*
X93740000Y-84334801D01*
X93740001Y-86462658D01*
X93740000Y-86462668D01*
X93740000Y-86796289D01*
X93696063Y-86840226D01*
X93582795Y-87009744D01*
X93504774Y-87198102D01*
X93465000Y-87398061D01*
X93465000Y-87601939D01*
X93504774Y-87801898D01*
X93582795Y-87990256D01*
X93696063Y-88159774D01*
X93840226Y-88303937D01*
X94009744Y-88417205D01*
X94198102Y-88495226D01*
X94398061Y-88535000D01*
X94601939Y-88535000D01*
X94801898Y-88495226D01*
X94990256Y-88417205D01*
X95159774Y-88303937D01*
X95303937Y-88159774D01*
X95417205Y-87990256D01*
X95495226Y-87801898D01*
X95535000Y-87601939D01*
X95535000Y-87398061D01*
X95495226Y-87198102D01*
X95417205Y-87009744D01*
X95303937Y-86840226D01*
X95260000Y-86796289D01*
X95260000Y-85723711D01*
X95340226Y-85803937D01*
X95509744Y-85917205D01*
X95698102Y-85995226D01*
X95898061Y-86035000D01*
X96101939Y-86035000D01*
X96301898Y-85995226D01*
X96490256Y-85917205D01*
X96659774Y-85803937D01*
X96703711Y-85760000D01*
X97296289Y-85760000D01*
X97340226Y-85803937D01*
X97509744Y-85917205D01*
X97698102Y-85995226D01*
X97898061Y-86035000D01*
X98101939Y-86035000D01*
X98301898Y-85995226D01*
X98490256Y-85917205D01*
X98659774Y-85803937D01*
X98803937Y-85659774D01*
X98917205Y-85490256D01*
X98995226Y-85301898D01*
X99035000Y-85101939D01*
X99035000Y-84898061D01*
X98995226Y-84698102D01*
X98917205Y-84509744D01*
X98803937Y-84340226D01*
X98659774Y-84196063D01*
X98490256Y-84082795D01*
X98301898Y-84004774D01*
X98101939Y-83965000D01*
X97898061Y-83965000D01*
X97698102Y-84004774D01*
X97509744Y-84082795D01*
X97340226Y-84196063D01*
X97296289Y-84240000D01*
X96703711Y-84240000D01*
X96659774Y-84196063D01*
X96490256Y-84082795D01*
X96301898Y-84004774D01*
X96101939Y-83965000D01*
X95898061Y-83965000D01*
X95698102Y-84004774D01*
X95509744Y-84082795D01*
X95340226Y-84196063D01*
X95260000Y-84276289D01*
X95260000Y-83814801D01*
X98177911Y-80896890D01*
X111058524Y-80896890D01*
X111103175Y-81044099D01*
X111228359Y-81306920D01*
X111402412Y-81540269D01*
X111618645Y-81735178D01*
X111868748Y-81884157D01*
X112143109Y-81981481D01*
X112373000Y-81860814D01*
X112373000Y-80667000D01*
X112627000Y-80667000D01*
X112627000Y-81860814D01*
X112856891Y-81981481D01*
X113131252Y-81884157D01*
X113381355Y-81735178D01*
X113597588Y-81540269D01*
X113771641Y-81306920D01*
X113896825Y-81044099D01*
X113941476Y-80896890D01*
X113820155Y-80667000D01*
X112627000Y-80667000D01*
X112373000Y-80667000D01*
X111179845Y-80667000D01*
X111058524Y-80896890D01*
X98177911Y-80896890D01*
X101814802Y-77260000D01*
X103296289Y-77260000D01*
X103340226Y-77303937D01*
X103509744Y-77417205D01*
X103698102Y-77495226D01*
X103898061Y-77535000D01*
X104101939Y-77535000D01*
X104301898Y-77495226D01*
X104490256Y-77417205D01*
X104659774Y-77303937D01*
X104740000Y-77223711D01*
X104740000Y-77796289D01*
X104696063Y-77840226D01*
X104582795Y-78009744D01*
X104504774Y-78198102D01*
X104465000Y-78398061D01*
X104465000Y-78601939D01*
X104504774Y-78801898D01*
X104582795Y-78990256D01*
X104696063Y-79159774D01*
X104840226Y-79303937D01*
X105009744Y-79417205D01*
X105198102Y-79495226D01*
X105398061Y-79535000D01*
X105601939Y-79535000D01*
X105801898Y-79495226D01*
X105990256Y-79417205D01*
X106159774Y-79303937D01*
X106303937Y-79159774D01*
X106417205Y-78990256D01*
X106495226Y-78801898D01*
X106535000Y-78601939D01*
X106535000Y-78398061D01*
X106495226Y-78198102D01*
X106417205Y-78009744D01*
X106303937Y-77840226D01*
X106260000Y-77796289D01*
X106260000Y-77150000D01*
X111011928Y-77150000D01*
X111011928Y-78850000D01*
X111024188Y-78974482D01*
X111060498Y-79094180D01*
X111119463Y-79204494D01*
X111198815Y-79301185D01*
X111295506Y-79380537D01*
X111405820Y-79439502D01*
X111486466Y-79463966D01*
X111402412Y-79539731D01*
X111228359Y-79773080D01*
X111103175Y-80035901D01*
X111058524Y-80183110D01*
X111179845Y-80413000D01*
X112373000Y-80413000D01*
X112373000Y-80393000D01*
X112627000Y-80393000D01*
X112627000Y-80413000D01*
X113820155Y-80413000D01*
X113941476Y-80183110D01*
X113896825Y-80035901D01*
X113771641Y-79773080D01*
X113597588Y-79539731D01*
X113513534Y-79463966D01*
X113594180Y-79439502D01*
X113704494Y-79380537D01*
X113801185Y-79301185D01*
X113880537Y-79204494D01*
X113939502Y-79094180D01*
X113975812Y-78974482D01*
X113988072Y-78850000D01*
X113988072Y-77150000D01*
X113975812Y-77025518D01*
X113939502Y-76905820D01*
X113880537Y-76795506D01*
X113801185Y-76698815D01*
X113704494Y-76619463D01*
X113594180Y-76560498D01*
X113474482Y-76524188D01*
X113350000Y-76511928D01*
X111650000Y-76511928D01*
X111525518Y-76524188D01*
X111405820Y-76560498D01*
X111295506Y-76619463D01*
X111198815Y-76698815D01*
X111119463Y-76795506D01*
X111060498Y-76905820D01*
X111024188Y-77025518D01*
X111011928Y-77150000D01*
X106260000Y-77150000D01*
X106260000Y-74037322D01*
X106263676Y-73999999D01*
X106260000Y-73962676D01*
X106260000Y-73962667D01*
X106249003Y-73851014D01*
X106205546Y-73707753D01*
X106134974Y-73575724D01*
X106040001Y-73459999D01*
X106011002Y-73436200D01*
X105838802Y-73264001D01*
X105815000Y-73234998D01*
X105699275Y-73140025D01*
X105567246Y-73069453D01*
X105453668Y-73035000D01*
X105601939Y-73035000D01*
X105801898Y-72995226D01*
X105990256Y-72917205D01*
X106159774Y-72803937D01*
X106303937Y-72659774D01*
X106417205Y-72490256D01*
X106495226Y-72301898D01*
X106535000Y-72101939D01*
X106535000Y-71898061D01*
X106495226Y-71698102D01*
X106417205Y-71509744D01*
X106303937Y-71340226D01*
X106159774Y-71196063D01*
X106090836Y-71150000D01*
X111011928Y-71150000D01*
X111011928Y-72850000D01*
X111024188Y-72974482D01*
X111060498Y-73094180D01*
X111119463Y-73204494D01*
X111198815Y-73301185D01*
X111295506Y-73380537D01*
X111405820Y-73439502D01*
X111525518Y-73475812D01*
X111650000Y-73488072D01*
X113350000Y-73488072D01*
X113474482Y-73475812D01*
X113594180Y-73439502D01*
X113704494Y-73380537D01*
X113801185Y-73301185D01*
X113880537Y-73204494D01*
X113939502Y-73094180D01*
X113975812Y-72974482D01*
X113988072Y-72850000D01*
X113988072Y-71150000D01*
X113975812Y-71025518D01*
X113939502Y-70905820D01*
X113880537Y-70795506D01*
X113801185Y-70698815D01*
X113704494Y-70619463D01*
X113594180Y-70560498D01*
X113521620Y-70538487D01*
X113653475Y-70406632D01*
X113815990Y-70163411D01*
X113927932Y-69893158D01*
X113985000Y-69606260D01*
X113985000Y-69313740D01*
X113927932Y-69026842D01*
X113815990Y-68756589D01*
X113653475Y-68513368D01*
X113446632Y-68306525D01*
X113264466Y-68184805D01*
X113381355Y-68115178D01*
X113597588Y-67920269D01*
X113771641Y-67686920D01*
X113896825Y-67424099D01*
X113941476Y-67276890D01*
X113820155Y-67047000D01*
X112627000Y-67047000D01*
X112627000Y-67067000D01*
X112373000Y-67067000D01*
X112373000Y-67047000D01*
X111179845Y-67047000D01*
X111058524Y-67276890D01*
X111103175Y-67424099D01*
X111228359Y-67686920D01*
X111402412Y-67920269D01*
X111618645Y-68115178D01*
X111735534Y-68184805D01*
X111553368Y-68306525D01*
X111346525Y-68513368D01*
X111184010Y-68756589D01*
X111072068Y-69026842D01*
X111015000Y-69313740D01*
X111015000Y-69606260D01*
X111072068Y-69893158D01*
X111184010Y-70163411D01*
X111346525Y-70406632D01*
X111478380Y-70538487D01*
X111405820Y-70560498D01*
X111295506Y-70619463D01*
X111198815Y-70698815D01*
X111119463Y-70795506D01*
X111060498Y-70905820D01*
X111024188Y-71025518D01*
X111011928Y-71150000D01*
X106090836Y-71150000D01*
X105990256Y-71082795D01*
X105801898Y-71004774D01*
X105601939Y-70965000D01*
X105398061Y-70965000D01*
X105198102Y-71004774D01*
X105009744Y-71082795D01*
X104840226Y-71196063D01*
X104796289Y-71240000D01*
X81537322Y-71240000D01*
X81499999Y-71236324D01*
X81462676Y-71240000D01*
X81462667Y-71240000D01*
X81351014Y-71250997D01*
X81311957Y-71262844D01*
X82314802Y-70260000D01*
X104796289Y-70260000D01*
X104840226Y-70303937D01*
X105009744Y-70417205D01*
X105198102Y-70495226D01*
X105398061Y-70535000D01*
X105601939Y-70535000D01*
X105801898Y-70495226D01*
X105990256Y-70417205D01*
X106159774Y-70303937D01*
X106303937Y-70159774D01*
X106417205Y-69990256D01*
X106495226Y-69801898D01*
X106535000Y-69601939D01*
X106535000Y-69398061D01*
X106495226Y-69198102D01*
X106417205Y-69009744D01*
X106303937Y-68840226D01*
X106159774Y-68696063D01*
X105990256Y-68582795D01*
X105801898Y-68504774D01*
X105601939Y-68465000D01*
X105398061Y-68465000D01*
X105198102Y-68504774D01*
X105009744Y-68582795D01*
X104840226Y-68696063D01*
X104796289Y-68740000D01*
X82037323Y-68740000D01*
X82000000Y-68736324D01*
X81962677Y-68740000D01*
X81962667Y-68740000D01*
X81851014Y-68750997D01*
X81707753Y-68794454D01*
X81575724Y-68865026D01*
X81459999Y-68959999D01*
X81436201Y-68988997D01*
X72460199Y-77965000D01*
X72398061Y-77965000D01*
X72198102Y-78004774D01*
X72009744Y-78082795D01*
X71840226Y-78196063D01*
X71696063Y-78340226D01*
X71582795Y-78509744D01*
X71504774Y-78698102D01*
X71465000Y-78898061D01*
X61491706Y-78898061D01*
X60996672Y-78849832D01*
X60382169Y-78911010D01*
X59791408Y-79090897D01*
X59252627Y-79378882D01*
X58976457Y-79796852D01*
X58660000Y-79796852D01*
X58660000Y-67371415D01*
X65808190Y-67371415D01*
X65937116Y-67663945D01*
X66273586Y-67832296D01*
X66636435Y-67931771D01*
X67011718Y-67958545D01*
X67385015Y-67911591D01*
X67741978Y-67792713D01*
X67982884Y-67663945D01*
X68111810Y-67371415D01*
X70888190Y-67371415D01*
X71017116Y-67663945D01*
X71353586Y-67832296D01*
X71716435Y-67931771D01*
X72091718Y-67958545D01*
X72465015Y-67911591D01*
X72821978Y-67792713D01*
X73062884Y-67663945D01*
X73191810Y-67371415D01*
X72040000Y-66219605D01*
X70888190Y-67371415D01*
X68111810Y-67371415D01*
X66960000Y-66219605D01*
X65808190Y-67371415D01*
X58660000Y-67371415D01*
X58660000Y-66091718D01*
X65041455Y-66091718D01*
X65088409Y-66465015D01*
X65207287Y-66821978D01*
X65336055Y-67062884D01*
X65628585Y-67191810D01*
X66780395Y-66040000D01*
X65628585Y-64888190D01*
X65336055Y-65017116D01*
X65167704Y-65353586D01*
X65068229Y-65716435D01*
X65041455Y-66091718D01*
X58660000Y-66091718D01*
X58660000Y-63203148D01*
X58976457Y-63203148D01*
X59252627Y-63621118D01*
X59797557Y-63911649D01*
X60388696Y-64090287D01*
X61003328Y-64150168D01*
X61617831Y-64088990D01*
X62208592Y-63909103D01*
X62747373Y-63621118D01*
X63023543Y-63203148D01*
X61000000Y-61179605D01*
X58976457Y-63203148D01*
X58660000Y-63203148D01*
X58660000Y-62933119D01*
X58796852Y-63023543D01*
X60820395Y-61000000D01*
X61179605Y-61000000D01*
X63203148Y-63023543D01*
X63621118Y-62747373D01*
X63864213Y-62291415D01*
X65808190Y-62291415D01*
X65937116Y-62583945D01*
X66273586Y-62752296D01*
X66636435Y-62851771D01*
X67011718Y-62878545D01*
X67385015Y-62831591D01*
X67736928Y-62714395D01*
X67736928Y-64292992D01*
X67646414Y-64247704D01*
X67283565Y-64148229D01*
X66908282Y-64121455D01*
X66534985Y-64168409D01*
X66178022Y-64287287D01*
X65937116Y-64416055D01*
X65808190Y-64708585D01*
X66960000Y-65860395D01*
X66974143Y-65846253D01*
X67153748Y-66025858D01*
X67139605Y-66040000D01*
X68291415Y-67191810D01*
X68583945Y-67062884D01*
X68752296Y-66726414D01*
X68851771Y-66363565D01*
X68878545Y-65988282D01*
X68831591Y-65614985D01*
X68714395Y-65263072D01*
X70292992Y-65263072D01*
X70247704Y-65353586D01*
X70148229Y-65716435D01*
X70121455Y-66091718D01*
X70168409Y-66465015D01*
X70287287Y-66821978D01*
X70416055Y-67062884D01*
X70708585Y-67191810D01*
X71860395Y-66040000D01*
X72219605Y-66040000D01*
X73371415Y-67191810D01*
X73663945Y-67062884D01*
X73832296Y-66726414D01*
X73877065Y-66563110D01*
X111058524Y-66563110D01*
X111179845Y-66793000D01*
X112373000Y-66793000D01*
X112373000Y-65599186D01*
X112627000Y-65599186D01*
X112627000Y-66793000D01*
X113820155Y-66793000D01*
X113941476Y-66563110D01*
X113896825Y-66415901D01*
X113771641Y-66153080D01*
X113597588Y-65919731D01*
X113381355Y-65724822D01*
X113131252Y-65575843D01*
X112856891Y-65478519D01*
X112627000Y-65599186D01*
X112373000Y-65599186D01*
X112143109Y-65478519D01*
X111868748Y-65575843D01*
X111618645Y-65724822D01*
X111402412Y-65919731D01*
X111228359Y-66153080D01*
X111103175Y-66415901D01*
X111058524Y-66563110D01*
X73877065Y-66563110D01*
X73931771Y-66363565D01*
X73958545Y-65988282D01*
X73911591Y-65614985D01*
X73792713Y-65258022D01*
X73663945Y-65017116D01*
X73371415Y-64888190D01*
X72219605Y-66040000D01*
X71860395Y-66040000D01*
X71846253Y-66025858D01*
X72025858Y-65846253D01*
X72040000Y-65860395D01*
X73191810Y-64708585D01*
X73062884Y-64416055D01*
X72726414Y-64247704D01*
X72370025Y-64150000D01*
X87511928Y-64150000D01*
X87511928Y-65850000D01*
X87524188Y-65974482D01*
X87560498Y-66094180D01*
X87619463Y-66204494D01*
X87698815Y-66301185D01*
X87795506Y-66380537D01*
X87905820Y-66439502D01*
X88025518Y-66475812D01*
X88150000Y-66488072D01*
X89850000Y-66488072D01*
X89974482Y-66475812D01*
X90094180Y-66439502D01*
X90204494Y-66380537D01*
X90301185Y-66301185D01*
X90380537Y-66204494D01*
X90439502Y-66094180D01*
X90475812Y-65974482D01*
X90488072Y-65850000D01*
X90488072Y-64150000D01*
X90475812Y-64025518D01*
X90439502Y-63905820D01*
X90380537Y-63795506D01*
X90301185Y-63698815D01*
X90204494Y-63619463D01*
X90094180Y-63560498D01*
X90013534Y-63536034D01*
X90097588Y-63460269D01*
X90271641Y-63226920D01*
X90396825Y-62964099D01*
X90441476Y-62816890D01*
X90320155Y-62587000D01*
X89127000Y-62587000D01*
X89127000Y-62607000D01*
X88873000Y-62607000D01*
X88873000Y-62587000D01*
X87679845Y-62587000D01*
X87558524Y-62816890D01*
X87603175Y-62964099D01*
X87728359Y-63226920D01*
X87902412Y-63460269D01*
X87986466Y-63536034D01*
X87905820Y-63560498D01*
X87795506Y-63619463D01*
X87698815Y-63698815D01*
X87619463Y-63795506D01*
X87560498Y-63905820D01*
X87524188Y-64025518D01*
X87511928Y-64150000D01*
X72370025Y-64150000D01*
X72363565Y-64148229D01*
X71988282Y-64121455D01*
X71614985Y-64168409D01*
X71263072Y-64285605D01*
X71263072Y-62707008D01*
X71353586Y-62752296D01*
X71716435Y-62851771D01*
X72091718Y-62878545D01*
X72465015Y-62831591D01*
X72821978Y-62712713D01*
X73062884Y-62583945D01*
X73191810Y-62291415D01*
X72040000Y-61139605D01*
X72025858Y-61153748D01*
X71846253Y-60974143D01*
X71860395Y-60960000D01*
X72219605Y-60960000D01*
X73371415Y-62111810D01*
X73391155Y-62103110D01*
X87558524Y-62103110D01*
X87679845Y-62333000D01*
X88873000Y-62333000D01*
X88873000Y-61139186D01*
X89127000Y-61139186D01*
X89127000Y-62333000D01*
X90320155Y-62333000D01*
X90441476Y-62103110D01*
X90396825Y-61955901D01*
X90271641Y-61693080D01*
X90097588Y-61459731D01*
X89881355Y-61264822D01*
X89631252Y-61115843D01*
X89356891Y-61018519D01*
X89127000Y-61139186D01*
X88873000Y-61139186D01*
X88643109Y-61018519D01*
X88368748Y-61115843D01*
X88118645Y-61264822D01*
X87902412Y-61459731D01*
X87728359Y-61693080D01*
X87603175Y-61955901D01*
X87558524Y-62103110D01*
X73391155Y-62103110D01*
X73663945Y-61982884D01*
X73832296Y-61646414D01*
X73931771Y-61283565D01*
X73958545Y-60908282D01*
X73911591Y-60534985D01*
X73792713Y-60178022D01*
X73663945Y-59937116D01*
X73371415Y-59808190D01*
X72219605Y-60960000D01*
X71860395Y-60960000D01*
X70708585Y-59808190D01*
X70416055Y-59937116D01*
X70247704Y-60273586D01*
X70148229Y-60636435D01*
X70121455Y-61011718D01*
X70168409Y-61385015D01*
X70285605Y-61736928D01*
X68707008Y-61736928D01*
X68752296Y-61646414D01*
X68851771Y-61283565D01*
X68878545Y-60908282D01*
X68831591Y-60534985D01*
X68712713Y-60178022D01*
X68583945Y-59937116D01*
X68291415Y-59808190D01*
X67139605Y-60960000D01*
X67153748Y-60974143D01*
X66974143Y-61153748D01*
X66960000Y-61139605D01*
X65808190Y-62291415D01*
X63864213Y-62291415D01*
X63911649Y-62202443D01*
X64090287Y-61611304D01*
X64148702Y-61011718D01*
X65041455Y-61011718D01*
X65088409Y-61385015D01*
X65207287Y-61741978D01*
X65336055Y-61982884D01*
X65628585Y-62111810D01*
X66780395Y-60960000D01*
X65628585Y-59808190D01*
X65336055Y-59937116D01*
X65167704Y-60273586D01*
X65068229Y-60636435D01*
X65041455Y-61011718D01*
X64148702Y-61011718D01*
X64150168Y-60996672D01*
X64088990Y-60382169D01*
X63909103Y-59791408D01*
X63822073Y-59628585D01*
X65808190Y-59628585D01*
X66960000Y-60780395D01*
X68111810Y-59628585D01*
X70888190Y-59628585D01*
X72040000Y-60780395D01*
X73191810Y-59628585D01*
X73062884Y-59336055D01*
X72726414Y-59167704D01*
X72363565Y-59068229D01*
X71988282Y-59041455D01*
X71614985Y-59088409D01*
X71258022Y-59207287D01*
X71017116Y-59336055D01*
X70888190Y-59628585D01*
X68111810Y-59628585D01*
X67982884Y-59336055D01*
X67646414Y-59167704D01*
X67283565Y-59068229D01*
X66908282Y-59041455D01*
X66534985Y-59088409D01*
X66178022Y-59207287D01*
X65937116Y-59336055D01*
X65808190Y-59628585D01*
X63822073Y-59628585D01*
X63621118Y-59252627D01*
X63203148Y-58976457D01*
X61179605Y-61000000D01*
X60820395Y-61000000D01*
X58796852Y-58976457D01*
X58660000Y-59066881D01*
X58660000Y-58660000D01*
X59066881Y-58660000D01*
X58976457Y-58796852D01*
%TA.AperFunction,Conductor*%
D18*
G36*
X58976457Y-58796852D02*
G01*
X61000000Y-60820395D01*
X63023543Y-58796852D01*
X62933119Y-58660000D01*
X91340000Y-58660000D01*
X91340001Y-64967571D01*
X91336807Y-65000000D01*
X91349550Y-65129383D01*
X91387290Y-65253793D01*
X91448575Y-65368450D01*
X91531052Y-65468948D01*
X91631550Y-65551425D01*
X91746207Y-65612710D01*
X91870617Y-65650450D01*
X91967581Y-65660000D01*
X92000000Y-65663193D01*
X92032419Y-65660000D01*
X107967581Y-65660000D01*
X108000000Y-65663193D01*
X108032419Y-65660000D01*
X108129383Y-65650450D01*
X108253793Y-65612710D01*
X108368450Y-65551425D01*
X108468948Y-65468948D01*
X108551425Y-65368450D01*
X108612710Y-65253793D01*
X108650450Y-65129383D01*
X108663193Y-65000000D01*
X108660000Y-64967581D01*
X108660000Y-63203148D01*
X111976457Y-63203148D01*
X112252627Y-63621118D01*
X112797557Y-63911649D01*
X113388696Y-64090287D01*
X114003328Y-64150168D01*
X114617831Y-64088990D01*
X115208592Y-63909103D01*
X115747373Y-63621118D01*
X116023543Y-63203148D01*
X114000000Y-61179605D01*
X111976457Y-63203148D01*
X108660000Y-63203148D01*
X108660000Y-61003328D01*
X110849832Y-61003328D01*
X110911010Y-61617831D01*
X111090897Y-62208592D01*
X111378882Y-62747373D01*
X111796852Y-63023543D01*
X113820395Y-61000000D01*
X111796852Y-58976457D01*
X111378882Y-59252627D01*
X111088351Y-59797557D01*
X110909713Y-60388696D01*
X110849832Y-61003328D01*
X108660000Y-61003328D01*
X108660000Y-58660000D01*
X112066881Y-58660000D01*
X111976457Y-58796852D01*
X114000000Y-60820395D01*
X116023543Y-58796852D01*
X115933119Y-58660000D01*
X116340000Y-58660000D01*
X116340000Y-59066881D01*
X116203148Y-58976457D01*
X114179605Y-61000000D01*
X116203148Y-63023543D01*
X116340000Y-62933119D01*
X116340001Y-94066881D01*
X116203148Y-93976457D01*
X114179605Y-96000000D01*
X116203148Y-98023543D01*
X116340001Y-97933119D01*
X116340001Y-98340000D01*
X115933119Y-98340000D01*
X116023543Y-98203148D01*
X114000000Y-96179605D01*
X111976457Y-98203148D01*
X112066881Y-98340000D01*
X58660000Y-98340000D01*
X58660000Y-96003328D01*
X110849832Y-96003328D01*
X110911010Y-96617831D01*
X111090897Y-97208592D01*
X111378882Y-97747373D01*
X111796852Y-98023543D01*
X113820395Y-96000000D01*
X111796852Y-93976457D01*
X111378882Y-94252627D01*
X111088351Y-94797557D01*
X110909713Y-95388696D01*
X110849832Y-96003328D01*
X58660000Y-96003328D01*
X58660000Y-93588212D01*
X62865000Y-93588212D01*
X62865000Y-93811788D01*
X62908617Y-94031067D01*
X62994176Y-94237624D01*
X63118388Y-94423520D01*
X63276480Y-94581612D01*
X63462376Y-94705824D01*
X63668933Y-94791383D01*
X63888212Y-94835000D01*
X64111788Y-94835000D01*
X64331067Y-94791383D01*
X64537624Y-94705824D01*
X64723520Y-94581612D01*
X64881612Y-94423520D01*
X65005824Y-94237624D01*
X65091383Y-94031067D01*
X65135000Y-93811788D01*
X65135000Y-93796852D01*
X111976457Y-93796852D01*
X114000000Y-95820395D01*
X116023543Y-93796852D01*
X115747373Y-93378882D01*
X115202443Y-93088351D01*
X114611304Y-92909713D01*
X113996672Y-92849832D01*
X113382169Y-92911010D01*
X112791408Y-93090897D01*
X112252627Y-93378882D01*
X111976457Y-93796852D01*
X65135000Y-93796852D01*
X65135000Y-93588212D01*
X65091383Y-93368933D01*
X65005824Y-93162376D01*
X64881612Y-92976480D01*
X64723520Y-92818388D01*
X64537624Y-92694176D01*
X64331067Y-92608617D01*
X64111788Y-92565000D01*
X63888212Y-92565000D01*
X63668933Y-92608617D01*
X63462376Y-92694176D01*
X63276480Y-92818388D01*
X63118388Y-92976480D01*
X62994176Y-93162376D01*
X62908617Y-93368933D01*
X62865000Y-93588212D01*
X58660000Y-93588212D01*
X58660000Y-91850000D01*
X111011928Y-91850000D01*
X111024188Y-91974482D01*
X111060498Y-92094180D01*
X111119463Y-92204494D01*
X111198815Y-92301185D01*
X111295506Y-92380537D01*
X111405820Y-92439502D01*
X111525518Y-92475812D01*
X111650000Y-92488072D01*
X112214250Y-92485000D01*
X112373000Y-92326250D01*
X112373000Y-91127000D01*
X112627000Y-91127000D01*
X112627000Y-92326250D01*
X112785750Y-92485000D01*
X113350000Y-92488072D01*
X113474482Y-92475812D01*
X113594180Y-92439502D01*
X113704494Y-92380537D01*
X113801185Y-92301185D01*
X113880537Y-92204494D01*
X113939502Y-92094180D01*
X113975812Y-91974482D01*
X113988072Y-91850000D01*
X113985000Y-91285750D01*
X113826250Y-91127000D01*
X112627000Y-91127000D01*
X112373000Y-91127000D01*
X111173750Y-91127000D01*
X111015000Y-91285750D01*
X111011928Y-91850000D01*
X58660000Y-91850000D01*
X58660000Y-89188212D01*
X62865000Y-89188212D01*
X62865000Y-89411788D01*
X62908617Y-89631067D01*
X62994176Y-89837624D01*
X63118388Y-90023520D01*
X63276480Y-90181612D01*
X63462376Y-90305824D01*
X63668933Y-90391383D01*
X63888212Y-90435000D01*
X64111788Y-90435000D01*
X64331067Y-90391383D01*
X64537624Y-90305824D01*
X64723520Y-90181612D01*
X64755132Y-90150000D01*
X111011928Y-90150000D01*
X111015000Y-90714250D01*
X111173750Y-90873000D01*
X112373000Y-90873000D01*
X112373000Y-90853000D01*
X112627000Y-90853000D01*
X112627000Y-90873000D01*
X113826250Y-90873000D01*
X113985000Y-90714250D01*
X113988072Y-90150000D01*
X113975812Y-90025518D01*
X113939502Y-89905820D01*
X113880537Y-89795506D01*
X113801185Y-89698815D01*
X113704494Y-89619463D01*
X113594180Y-89560498D01*
X113521620Y-89538487D01*
X113653475Y-89406632D01*
X113815990Y-89163411D01*
X113927932Y-88893158D01*
X113985000Y-88606260D01*
X113985000Y-88313740D01*
X113927932Y-88026842D01*
X113815990Y-87756589D01*
X113653475Y-87513368D01*
X113446632Y-87306525D01*
X113272240Y-87190000D01*
X113446632Y-87073475D01*
X113653475Y-86866632D01*
X113815990Y-86623411D01*
X113927932Y-86353158D01*
X113985000Y-86066260D01*
X113985000Y-85773740D01*
X113927932Y-85486842D01*
X113815990Y-85216589D01*
X113653475Y-84973368D01*
X113446632Y-84766525D01*
X113203411Y-84604010D01*
X112933158Y-84492068D01*
X112646260Y-84435000D01*
X112353740Y-84435000D01*
X112066842Y-84492068D01*
X111796589Y-84604010D01*
X111553368Y-84766525D01*
X111346525Y-84973368D01*
X111184010Y-85216589D01*
X111072068Y-85486842D01*
X111015000Y-85773740D01*
X111015000Y-86066260D01*
X111072068Y-86353158D01*
X111184010Y-86623411D01*
X111346525Y-86866632D01*
X111553368Y-87073475D01*
X111727760Y-87190000D01*
X111553368Y-87306525D01*
X111346525Y-87513368D01*
X111184010Y-87756589D01*
X111072068Y-88026842D01*
X111015000Y-88313740D01*
X111015000Y-88606260D01*
X111072068Y-88893158D01*
X111184010Y-89163411D01*
X111346525Y-89406632D01*
X111478380Y-89538487D01*
X111405820Y-89560498D01*
X111295506Y-89619463D01*
X111198815Y-89698815D01*
X111119463Y-89795506D01*
X111060498Y-89905820D01*
X111024188Y-90025518D01*
X111011928Y-90150000D01*
X64755132Y-90150000D01*
X64881612Y-90023520D01*
X65005824Y-89837624D01*
X65091383Y-89631067D01*
X65135000Y-89411788D01*
X65135000Y-89188212D01*
X65091383Y-88968933D01*
X65005824Y-88762376D01*
X64881612Y-88576480D01*
X64723520Y-88418388D01*
X64537624Y-88294176D01*
X64331067Y-88208617D01*
X64111788Y-88165000D01*
X63888212Y-88165000D01*
X63668933Y-88208617D01*
X63462376Y-88294176D01*
X63276480Y-88418388D01*
X63118388Y-88576480D01*
X62994176Y-88762376D01*
X62908617Y-88968933D01*
X62865000Y-89188212D01*
X58660000Y-89188212D01*
X58660000Y-84203148D01*
X58976457Y-84203148D01*
X59252627Y-84621118D01*
X59797557Y-84911649D01*
X60388696Y-85090287D01*
X61003328Y-85150168D01*
X61617831Y-85088990D01*
X62208592Y-84909103D01*
X62747373Y-84621118D01*
X63023543Y-84203148D01*
X61000000Y-82179605D01*
X58976457Y-84203148D01*
X58660000Y-84203148D01*
X58660000Y-83933119D01*
X58796852Y-84023543D01*
X60820395Y-82000000D01*
X61179605Y-82000000D01*
X63203148Y-84023543D01*
X63621118Y-83747373D01*
X63911649Y-83202443D01*
X64090287Y-82611304D01*
X64150168Y-81996672D01*
X64088990Y-81382169D01*
X63909103Y-80791408D01*
X63621118Y-80252627D01*
X63203148Y-79976457D01*
X61179605Y-82000000D01*
X60820395Y-82000000D01*
X58796852Y-79976457D01*
X58660000Y-80066881D01*
X58660000Y-79796852D01*
X58976457Y-79796852D01*
X61000000Y-81820395D01*
X63023543Y-79796852D01*
X62747373Y-79378882D01*
X62202443Y-79088351D01*
X61611304Y-78909713D01*
X61491706Y-78898061D01*
X71465000Y-78898061D01*
X71465000Y-79101939D01*
X71504774Y-79301898D01*
X71582795Y-79490256D01*
X71696063Y-79659774D01*
X71840226Y-79803937D01*
X72009744Y-79917205D01*
X72198102Y-79995226D01*
X72222103Y-80000000D01*
X72198102Y-80004774D01*
X72009744Y-80082795D01*
X71840226Y-80196063D01*
X71696063Y-80340226D01*
X71582795Y-80509744D01*
X71504774Y-80698102D01*
X71465000Y-80898061D01*
X71465000Y-81101939D01*
X71504774Y-81301898D01*
X71582795Y-81490256D01*
X71696063Y-81659774D01*
X71840226Y-81803937D01*
X72009744Y-81917205D01*
X72198102Y-81995226D01*
X72398061Y-82035000D01*
X72601939Y-82035000D01*
X72801898Y-81995226D01*
X72990256Y-81917205D01*
X73159774Y-81803937D01*
X73303937Y-81659774D01*
X73417205Y-81490256D01*
X73495226Y-81301898D01*
X73535000Y-81101939D01*
X73535000Y-81039801D01*
X81814802Y-72760000D01*
X104796289Y-72760000D01*
X104840226Y-72803937D01*
X105009744Y-72917205D01*
X105198102Y-72995226D01*
X105282979Y-73012109D01*
X105274999Y-73011323D01*
X105237677Y-73014999D01*
X88262323Y-73014999D01*
X88225000Y-73011323D01*
X88187677Y-73014999D01*
X88187668Y-73014999D01*
X88076015Y-73025996D01*
X87932754Y-73069453D01*
X87800725Y-73140025D01*
X87685000Y-73234998D01*
X87661202Y-73263997D01*
X87460198Y-73465000D01*
X87398061Y-73465000D01*
X87198102Y-73504774D01*
X87009744Y-73582795D01*
X86840226Y-73696063D01*
X86696063Y-73840226D01*
X86582795Y-74009744D01*
X86504774Y-74198102D01*
X86465000Y-74398061D01*
X86465000Y-74601939D01*
X86504774Y-74801898D01*
X86582795Y-74990256D01*
X86696063Y-75159774D01*
X86840226Y-75303937D01*
X87009744Y-75417205D01*
X87198102Y-75495226D01*
X87398061Y-75535000D01*
X87601939Y-75535000D01*
X87801898Y-75495226D01*
X87990256Y-75417205D01*
X88159774Y-75303937D01*
X88303937Y-75159774D01*
X88417205Y-74990256D01*
X88495226Y-74801898D01*
X88535000Y-74601939D01*
X88535000Y-74539802D01*
X88539803Y-74534999D01*
X101390199Y-74534999D01*
X89989003Y-85936196D01*
X89959999Y-85959999D01*
X89904871Y-86027174D01*
X89865026Y-86075724D01*
X89794455Y-86207753D01*
X89794454Y-86207754D01*
X89750997Y-86351015D01*
X89740000Y-86462668D01*
X89740000Y-86462678D01*
X89736324Y-86500000D01*
X89740000Y-86537323D01*
X89740000Y-86796289D01*
X89696063Y-86840226D01*
X89582795Y-87009744D01*
X89504774Y-87198102D01*
X89465000Y-87398061D01*
X89465000Y-87601939D01*
X89504774Y-87801898D01*
X89582795Y-87990256D01*
X89696063Y-88159774D01*
X89840226Y-88303937D01*
X90009744Y-88417205D01*
X90198102Y-88495226D01*
X90398061Y-88535000D01*
X90601939Y-88535000D01*
X90801898Y-88495226D01*
X90990256Y-88417205D01*
X91159774Y-88303937D01*
X91303937Y-88159774D01*
X91417205Y-87990256D01*
X91495226Y-87801898D01*
X91535000Y-87601939D01*
X91535000Y-87398061D01*
X91495226Y-87198102D01*
X91417205Y-87009744D01*
X91303937Y-86840226D01*
X91269256Y-86805545D01*
X93740000Y-84334801D01*
X93740001Y-86462658D01*
X93740000Y-86462668D01*
X93740000Y-86796289D01*
X93696063Y-86840226D01*
X93582795Y-87009744D01*
X93504774Y-87198102D01*
X93465000Y-87398061D01*
X93465000Y-87601939D01*
X93504774Y-87801898D01*
X93582795Y-87990256D01*
X93696063Y-88159774D01*
X93840226Y-88303937D01*
X94009744Y-88417205D01*
X94198102Y-88495226D01*
X94398061Y-88535000D01*
X94601939Y-88535000D01*
X94801898Y-88495226D01*
X94990256Y-88417205D01*
X95159774Y-88303937D01*
X95303937Y-88159774D01*
X95417205Y-87990256D01*
X95495226Y-87801898D01*
X95535000Y-87601939D01*
X95535000Y-87398061D01*
X95495226Y-87198102D01*
X95417205Y-87009744D01*
X95303937Y-86840226D01*
X95260000Y-86796289D01*
X95260000Y-85723711D01*
X95340226Y-85803937D01*
X95509744Y-85917205D01*
X95698102Y-85995226D01*
X95898061Y-86035000D01*
X96101939Y-86035000D01*
X96301898Y-85995226D01*
X96490256Y-85917205D01*
X96659774Y-85803937D01*
X96703711Y-85760000D01*
X97296289Y-85760000D01*
X97340226Y-85803937D01*
X97509744Y-85917205D01*
X97698102Y-85995226D01*
X97898061Y-86035000D01*
X98101939Y-86035000D01*
X98301898Y-85995226D01*
X98490256Y-85917205D01*
X98659774Y-85803937D01*
X98803937Y-85659774D01*
X98917205Y-85490256D01*
X98995226Y-85301898D01*
X99035000Y-85101939D01*
X99035000Y-84898061D01*
X98995226Y-84698102D01*
X98917205Y-84509744D01*
X98803937Y-84340226D01*
X98659774Y-84196063D01*
X98490256Y-84082795D01*
X98301898Y-84004774D01*
X98101939Y-83965000D01*
X97898061Y-83965000D01*
X97698102Y-84004774D01*
X97509744Y-84082795D01*
X97340226Y-84196063D01*
X97296289Y-84240000D01*
X96703711Y-84240000D01*
X96659774Y-84196063D01*
X96490256Y-84082795D01*
X96301898Y-84004774D01*
X96101939Y-83965000D01*
X95898061Y-83965000D01*
X95698102Y-84004774D01*
X95509744Y-84082795D01*
X95340226Y-84196063D01*
X95260000Y-84276289D01*
X95260000Y-83814801D01*
X98177911Y-80896890D01*
X111058524Y-80896890D01*
X111103175Y-81044099D01*
X111228359Y-81306920D01*
X111402412Y-81540269D01*
X111618645Y-81735178D01*
X111868748Y-81884157D01*
X112143109Y-81981481D01*
X112373000Y-81860814D01*
X112373000Y-80667000D01*
X112627000Y-80667000D01*
X112627000Y-81860814D01*
X112856891Y-81981481D01*
X113131252Y-81884157D01*
X113381355Y-81735178D01*
X113597588Y-81540269D01*
X113771641Y-81306920D01*
X113896825Y-81044099D01*
X113941476Y-80896890D01*
X113820155Y-80667000D01*
X112627000Y-80667000D01*
X112373000Y-80667000D01*
X111179845Y-80667000D01*
X111058524Y-80896890D01*
X98177911Y-80896890D01*
X101814802Y-77260000D01*
X103296289Y-77260000D01*
X103340226Y-77303937D01*
X103509744Y-77417205D01*
X103698102Y-77495226D01*
X103898061Y-77535000D01*
X104101939Y-77535000D01*
X104301898Y-77495226D01*
X104490256Y-77417205D01*
X104659774Y-77303937D01*
X104740000Y-77223711D01*
X104740000Y-77796289D01*
X104696063Y-77840226D01*
X104582795Y-78009744D01*
X104504774Y-78198102D01*
X104465000Y-78398061D01*
X104465000Y-78601939D01*
X104504774Y-78801898D01*
X104582795Y-78990256D01*
X104696063Y-79159774D01*
X104840226Y-79303937D01*
X105009744Y-79417205D01*
X105198102Y-79495226D01*
X105398061Y-79535000D01*
X105601939Y-79535000D01*
X105801898Y-79495226D01*
X105990256Y-79417205D01*
X106159774Y-79303937D01*
X106303937Y-79159774D01*
X106417205Y-78990256D01*
X106495226Y-78801898D01*
X106535000Y-78601939D01*
X106535000Y-78398061D01*
X106495226Y-78198102D01*
X106417205Y-78009744D01*
X106303937Y-77840226D01*
X106260000Y-77796289D01*
X106260000Y-77150000D01*
X111011928Y-77150000D01*
X111011928Y-78850000D01*
X111024188Y-78974482D01*
X111060498Y-79094180D01*
X111119463Y-79204494D01*
X111198815Y-79301185D01*
X111295506Y-79380537D01*
X111405820Y-79439502D01*
X111486466Y-79463966D01*
X111402412Y-79539731D01*
X111228359Y-79773080D01*
X111103175Y-80035901D01*
X111058524Y-80183110D01*
X111179845Y-80413000D01*
X112373000Y-80413000D01*
X112373000Y-80393000D01*
X112627000Y-80393000D01*
X112627000Y-80413000D01*
X113820155Y-80413000D01*
X113941476Y-80183110D01*
X113896825Y-80035901D01*
X113771641Y-79773080D01*
X113597588Y-79539731D01*
X113513534Y-79463966D01*
X113594180Y-79439502D01*
X113704494Y-79380537D01*
X113801185Y-79301185D01*
X113880537Y-79204494D01*
X113939502Y-79094180D01*
X113975812Y-78974482D01*
X113988072Y-78850000D01*
X113988072Y-77150000D01*
X113975812Y-77025518D01*
X113939502Y-76905820D01*
X113880537Y-76795506D01*
X113801185Y-76698815D01*
X113704494Y-76619463D01*
X113594180Y-76560498D01*
X113474482Y-76524188D01*
X113350000Y-76511928D01*
X111650000Y-76511928D01*
X111525518Y-76524188D01*
X111405820Y-76560498D01*
X111295506Y-76619463D01*
X111198815Y-76698815D01*
X111119463Y-76795506D01*
X111060498Y-76905820D01*
X111024188Y-77025518D01*
X111011928Y-77150000D01*
X106260000Y-77150000D01*
X106260000Y-74037322D01*
X106263676Y-73999999D01*
X106260000Y-73962676D01*
X106260000Y-73962667D01*
X106249003Y-73851014D01*
X106205546Y-73707753D01*
X106134974Y-73575724D01*
X106040001Y-73459999D01*
X106011002Y-73436200D01*
X105838802Y-73264001D01*
X105815000Y-73234998D01*
X105699275Y-73140025D01*
X105567246Y-73069453D01*
X105453668Y-73035000D01*
X105601939Y-73035000D01*
X105801898Y-72995226D01*
X105990256Y-72917205D01*
X106159774Y-72803937D01*
X106303937Y-72659774D01*
X106417205Y-72490256D01*
X106495226Y-72301898D01*
X106535000Y-72101939D01*
X106535000Y-71898061D01*
X106495226Y-71698102D01*
X106417205Y-71509744D01*
X106303937Y-71340226D01*
X106159774Y-71196063D01*
X106090836Y-71150000D01*
X111011928Y-71150000D01*
X111011928Y-72850000D01*
X111024188Y-72974482D01*
X111060498Y-73094180D01*
X111119463Y-73204494D01*
X111198815Y-73301185D01*
X111295506Y-73380537D01*
X111405820Y-73439502D01*
X111525518Y-73475812D01*
X111650000Y-73488072D01*
X113350000Y-73488072D01*
X113474482Y-73475812D01*
X113594180Y-73439502D01*
X113704494Y-73380537D01*
X113801185Y-73301185D01*
X113880537Y-73204494D01*
X113939502Y-73094180D01*
X113975812Y-72974482D01*
X113988072Y-72850000D01*
X113988072Y-71150000D01*
X113975812Y-71025518D01*
X113939502Y-70905820D01*
X113880537Y-70795506D01*
X113801185Y-70698815D01*
X113704494Y-70619463D01*
X113594180Y-70560498D01*
X113521620Y-70538487D01*
X113653475Y-70406632D01*
X113815990Y-70163411D01*
X113927932Y-69893158D01*
X113985000Y-69606260D01*
X113985000Y-69313740D01*
X113927932Y-69026842D01*
X113815990Y-68756589D01*
X113653475Y-68513368D01*
X113446632Y-68306525D01*
X113264466Y-68184805D01*
X113381355Y-68115178D01*
X113597588Y-67920269D01*
X113771641Y-67686920D01*
X113896825Y-67424099D01*
X113941476Y-67276890D01*
X113820155Y-67047000D01*
X112627000Y-67047000D01*
X112627000Y-67067000D01*
X112373000Y-67067000D01*
X112373000Y-67047000D01*
X111179845Y-67047000D01*
X111058524Y-67276890D01*
X111103175Y-67424099D01*
X111228359Y-67686920D01*
X111402412Y-67920269D01*
X111618645Y-68115178D01*
X111735534Y-68184805D01*
X111553368Y-68306525D01*
X111346525Y-68513368D01*
X111184010Y-68756589D01*
X111072068Y-69026842D01*
X111015000Y-69313740D01*
X111015000Y-69606260D01*
X111072068Y-69893158D01*
X111184010Y-70163411D01*
X111346525Y-70406632D01*
X111478380Y-70538487D01*
X111405820Y-70560498D01*
X111295506Y-70619463D01*
X111198815Y-70698815D01*
X111119463Y-70795506D01*
X111060498Y-70905820D01*
X111024188Y-71025518D01*
X111011928Y-71150000D01*
X106090836Y-71150000D01*
X105990256Y-71082795D01*
X105801898Y-71004774D01*
X105601939Y-70965000D01*
X105398061Y-70965000D01*
X105198102Y-71004774D01*
X105009744Y-71082795D01*
X104840226Y-71196063D01*
X104796289Y-71240000D01*
X81537322Y-71240000D01*
X81499999Y-71236324D01*
X81462676Y-71240000D01*
X81462667Y-71240000D01*
X81351014Y-71250997D01*
X81311957Y-71262844D01*
X82314802Y-70260000D01*
X104796289Y-70260000D01*
X104840226Y-70303937D01*
X105009744Y-70417205D01*
X105198102Y-70495226D01*
X105398061Y-70535000D01*
X105601939Y-70535000D01*
X105801898Y-70495226D01*
X105990256Y-70417205D01*
X106159774Y-70303937D01*
X106303937Y-70159774D01*
X106417205Y-69990256D01*
X106495226Y-69801898D01*
X106535000Y-69601939D01*
X106535000Y-69398061D01*
X106495226Y-69198102D01*
X106417205Y-69009744D01*
X106303937Y-68840226D01*
X106159774Y-68696063D01*
X105990256Y-68582795D01*
X105801898Y-68504774D01*
X105601939Y-68465000D01*
X105398061Y-68465000D01*
X105198102Y-68504774D01*
X105009744Y-68582795D01*
X104840226Y-68696063D01*
X104796289Y-68740000D01*
X82037323Y-68740000D01*
X82000000Y-68736324D01*
X81962677Y-68740000D01*
X81962667Y-68740000D01*
X81851014Y-68750997D01*
X81707753Y-68794454D01*
X81575724Y-68865026D01*
X81459999Y-68959999D01*
X81436201Y-68988997D01*
X72460199Y-77965000D01*
X72398061Y-77965000D01*
X72198102Y-78004774D01*
X72009744Y-78082795D01*
X71840226Y-78196063D01*
X71696063Y-78340226D01*
X71582795Y-78509744D01*
X71504774Y-78698102D01*
X71465000Y-78898061D01*
X61491706Y-78898061D01*
X60996672Y-78849832D01*
X60382169Y-78911010D01*
X59791408Y-79090897D01*
X59252627Y-79378882D01*
X58976457Y-79796852D01*
X58660000Y-79796852D01*
X58660000Y-67371415D01*
X65808190Y-67371415D01*
X65937116Y-67663945D01*
X66273586Y-67832296D01*
X66636435Y-67931771D01*
X67011718Y-67958545D01*
X67385015Y-67911591D01*
X67741978Y-67792713D01*
X67982884Y-67663945D01*
X68111810Y-67371415D01*
X70888190Y-67371415D01*
X71017116Y-67663945D01*
X71353586Y-67832296D01*
X71716435Y-67931771D01*
X72091718Y-67958545D01*
X72465015Y-67911591D01*
X72821978Y-67792713D01*
X73062884Y-67663945D01*
X73191810Y-67371415D01*
X72040000Y-66219605D01*
X70888190Y-67371415D01*
X68111810Y-67371415D01*
X66960000Y-66219605D01*
X65808190Y-67371415D01*
X58660000Y-67371415D01*
X58660000Y-66091718D01*
X65041455Y-66091718D01*
X65088409Y-66465015D01*
X65207287Y-66821978D01*
X65336055Y-67062884D01*
X65628585Y-67191810D01*
X66780395Y-66040000D01*
X65628585Y-64888190D01*
X65336055Y-65017116D01*
X65167704Y-65353586D01*
X65068229Y-65716435D01*
X65041455Y-66091718D01*
X58660000Y-66091718D01*
X58660000Y-63203148D01*
X58976457Y-63203148D01*
X59252627Y-63621118D01*
X59797557Y-63911649D01*
X60388696Y-64090287D01*
X61003328Y-64150168D01*
X61617831Y-64088990D01*
X62208592Y-63909103D01*
X62747373Y-63621118D01*
X63023543Y-63203148D01*
X61000000Y-61179605D01*
X58976457Y-63203148D01*
X58660000Y-63203148D01*
X58660000Y-62933119D01*
X58796852Y-63023543D01*
X60820395Y-61000000D01*
X61179605Y-61000000D01*
X63203148Y-63023543D01*
X63621118Y-62747373D01*
X63864213Y-62291415D01*
X65808190Y-62291415D01*
X65937116Y-62583945D01*
X66273586Y-62752296D01*
X66636435Y-62851771D01*
X67011718Y-62878545D01*
X67385015Y-62831591D01*
X67736928Y-62714395D01*
X67736928Y-64292992D01*
X67646414Y-64247704D01*
X67283565Y-64148229D01*
X66908282Y-64121455D01*
X66534985Y-64168409D01*
X66178022Y-64287287D01*
X65937116Y-64416055D01*
X65808190Y-64708585D01*
X66960000Y-65860395D01*
X66974143Y-65846253D01*
X67153748Y-66025858D01*
X67139605Y-66040000D01*
X68291415Y-67191810D01*
X68583945Y-67062884D01*
X68752296Y-66726414D01*
X68851771Y-66363565D01*
X68878545Y-65988282D01*
X68831591Y-65614985D01*
X68714395Y-65263072D01*
X70292992Y-65263072D01*
X70247704Y-65353586D01*
X70148229Y-65716435D01*
X70121455Y-66091718D01*
X70168409Y-66465015D01*
X70287287Y-66821978D01*
X70416055Y-67062884D01*
X70708585Y-67191810D01*
X71860395Y-66040000D01*
X72219605Y-66040000D01*
X73371415Y-67191810D01*
X73663945Y-67062884D01*
X73832296Y-66726414D01*
X73877065Y-66563110D01*
X111058524Y-66563110D01*
X111179845Y-66793000D01*
X112373000Y-66793000D01*
X112373000Y-65599186D01*
X112627000Y-65599186D01*
X112627000Y-66793000D01*
X113820155Y-66793000D01*
X113941476Y-66563110D01*
X113896825Y-66415901D01*
X113771641Y-66153080D01*
X113597588Y-65919731D01*
X113381355Y-65724822D01*
X113131252Y-65575843D01*
X112856891Y-65478519D01*
X112627000Y-65599186D01*
X112373000Y-65599186D01*
X112143109Y-65478519D01*
X111868748Y-65575843D01*
X111618645Y-65724822D01*
X111402412Y-65919731D01*
X111228359Y-66153080D01*
X111103175Y-66415901D01*
X111058524Y-66563110D01*
X73877065Y-66563110D01*
X73931771Y-66363565D01*
X73958545Y-65988282D01*
X73911591Y-65614985D01*
X73792713Y-65258022D01*
X73663945Y-65017116D01*
X73371415Y-64888190D01*
X72219605Y-66040000D01*
X71860395Y-66040000D01*
X71846253Y-66025858D01*
X72025858Y-65846253D01*
X72040000Y-65860395D01*
X73191810Y-64708585D01*
X73062884Y-64416055D01*
X72726414Y-64247704D01*
X72370025Y-64150000D01*
X87511928Y-64150000D01*
X87511928Y-65850000D01*
X87524188Y-65974482D01*
X87560498Y-66094180D01*
X87619463Y-66204494D01*
X87698815Y-66301185D01*
X87795506Y-66380537D01*
X87905820Y-66439502D01*
X88025518Y-66475812D01*
X88150000Y-66488072D01*
X89850000Y-66488072D01*
X89974482Y-66475812D01*
X90094180Y-66439502D01*
X90204494Y-66380537D01*
X90301185Y-66301185D01*
X90380537Y-66204494D01*
X90439502Y-66094180D01*
X90475812Y-65974482D01*
X90488072Y-65850000D01*
X90488072Y-64150000D01*
X90475812Y-64025518D01*
X90439502Y-63905820D01*
X90380537Y-63795506D01*
X90301185Y-63698815D01*
X90204494Y-63619463D01*
X90094180Y-63560498D01*
X90013534Y-63536034D01*
X90097588Y-63460269D01*
X90271641Y-63226920D01*
X90396825Y-62964099D01*
X90441476Y-62816890D01*
X90320155Y-62587000D01*
X89127000Y-62587000D01*
X89127000Y-62607000D01*
X88873000Y-62607000D01*
X88873000Y-62587000D01*
X87679845Y-62587000D01*
X87558524Y-62816890D01*
X87603175Y-62964099D01*
X87728359Y-63226920D01*
X87902412Y-63460269D01*
X87986466Y-63536034D01*
X87905820Y-63560498D01*
X87795506Y-63619463D01*
X87698815Y-63698815D01*
X87619463Y-63795506D01*
X87560498Y-63905820D01*
X87524188Y-64025518D01*
X87511928Y-64150000D01*
X72370025Y-64150000D01*
X72363565Y-64148229D01*
X71988282Y-64121455D01*
X71614985Y-64168409D01*
X71263072Y-64285605D01*
X71263072Y-62707008D01*
X71353586Y-62752296D01*
X71716435Y-62851771D01*
X72091718Y-62878545D01*
X72465015Y-62831591D01*
X72821978Y-62712713D01*
X73062884Y-62583945D01*
X73191810Y-62291415D01*
X72040000Y-61139605D01*
X72025858Y-61153748D01*
X71846253Y-60974143D01*
X71860395Y-60960000D01*
X72219605Y-60960000D01*
X73371415Y-62111810D01*
X73391155Y-62103110D01*
X87558524Y-62103110D01*
X87679845Y-62333000D01*
X88873000Y-62333000D01*
X88873000Y-61139186D01*
X89127000Y-61139186D01*
X89127000Y-62333000D01*
X90320155Y-62333000D01*
X90441476Y-62103110D01*
X90396825Y-61955901D01*
X90271641Y-61693080D01*
X90097588Y-61459731D01*
X89881355Y-61264822D01*
X89631252Y-61115843D01*
X89356891Y-61018519D01*
X89127000Y-61139186D01*
X88873000Y-61139186D01*
X88643109Y-61018519D01*
X88368748Y-61115843D01*
X88118645Y-61264822D01*
X87902412Y-61459731D01*
X87728359Y-61693080D01*
X87603175Y-61955901D01*
X87558524Y-62103110D01*
X73391155Y-62103110D01*
X73663945Y-61982884D01*
X73832296Y-61646414D01*
X73931771Y-61283565D01*
X73958545Y-60908282D01*
X73911591Y-60534985D01*
X73792713Y-60178022D01*
X73663945Y-59937116D01*
X73371415Y-59808190D01*
X72219605Y-60960000D01*
X71860395Y-60960000D01*
X70708585Y-59808190D01*
X70416055Y-59937116D01*
X70247704Y-60273586D01*
X70148229Y-60636435D01*
X70121455Y-61011718D01*
X70168409Y-61385015D01*
X70285605Y-61736928D01*
X68707008Y-61736928D01*
X68752296Y-61646414D01*
X68851771Y-61283565D01*
X68878545Y-60908282D01*
X68831591Y-60534985D01*
X68712713Y-60178022D01*
X68583945Y-59937116D01*
X68291415Y-59808190D01*
X67139605Y-60960000D01*
X67153748Y-60974143D01*
X66974143Y-61153748D01*
X66960000Y-61139605D01*
X65808190Y-62291415D01*
X63864213Y-62291415D01*
X63911649Y-62202443D01*
X64090287Y-61611304D01*
X64148702Y-61011718D01*
X65041455Y-61011718D01*
X65088409Y-61385015D01*
X65207287Y-61741978D01*
X65336055Y-61982884D01*
X65628585Y-62111810D01*
X66780395Y-60960000D01*
X65628585Y-59808190D01*
X65336055Y-59937116D01*
X65167704Y-60273586D01*
X65068229Y-60636435D01*
X65041455Y-61011718D01*
X64148702Y-61011718D01*
X64150168Y-60996672D01*
X64088990Y-60382169D01*
X63909103Y-59791408D01*
X63822073Y-59628585D01*
X65808190Y-59628585D01*
X66960000Y-60780395D01*
X68111810Y-59628585D01*
X70888190Y-59628585D01*
X72040000Y-60780395D01*
X73191810Y-59628585D01*
X73062884Y-59336055D01*
X72726414Y-59167704D01*
X72363565Y-59068229D01*
X71988282Y-59041455D01*
X71614985Y-59088409D01*
X71258022Y-59207287D01*
X71017116Y-59336055D01*
X70888190Y-59628585D01*
X68111810Y-59628585D01*
X67982884Y-59336055D01*
X67646414Y-59167704D01*
X67283565Y-59068229D01*
X66908282Y-59041455D01*
X66534985Y-59088409D01*
X66178022Y-59207287D01*
X65937116Y-59336055D01*
X65808190Y-59628585D01*
X63822073Y-59628585D01*
X63621118Y-59252627D01*
X63203148Y-58976457D01*
X61179605Y-61000000D01*
X60820395Y-61000000D01*
X58796852Y-58976457D01*
X58660000Y-59066881D01*
X58660000Y-58660000D01*
X59066881Y-58660000D01*
X58976457Y-58796852D01*
G37*
%TD.AperFunction*%
%TD*%
M02*
