%TF.GenerationSoftware,KiCad,Pcbnew,5.1.10-88a1d61d58~88~ubuntu20.04.1*%
%TF.CreationDate,2021-08-10T15:11:50-03:00*%
%TF.ProjectId,lora_end_device,6c6f7261-5f65-46e6-945f-646576696365,rev?*%
%TF.SameCoordinates,Original*%
%TF.FileFunction,Copper,L1,Top*%
%TF.FilePolarity,Positive*%
%FSLAX46Y46*%
G04 Gerber Fmt 4.6, Leading zero omitted, Abs format (unit mm)*
G04 Created by KiCad (PCBNEW 5.1.10-88a1d61d58~88~ubuntu20.04.1) date 2021-08-10 15:11:50*
%MOMM*%
%LPD*%
G01*
G04 APERTURE LIST*
%TA.AperFunction,SMDPad,CuDef*%
%ADD10R,2.000000X3.800000*%
%TD*%
%TA.AperFunction,SMDPad,CuDef*%
%ADD11R,2.000000X1.500000*%
%TD*%
%TA.AperFunction,SMDPad,CuDef*%
%ADD12C,0.750000*%
%TD*%
%TA.AperFunction,ComponentPad*%
%ADD13C,5.000000*%
%TD*%
%TA.AperFunction,ComponentPad*%
%ADD14O,1.700000X1.700000*%
%TD*%
%TA.AperFunction,ComponentPad*%
%ADD15R,1.700000X1.700000*%
%TD*%
%TA.AperFunction,SMDPad,CuDef*%
%ADD16R,1.600000X2.200000*%
%TD*%
%TA.AperFunction,SMDPad,CuDef*%
%ADD17R,2.000000X0.500000*%
%TD*%
%TA.AperFunction,SMDPad,CuDef*%
%ADD18R,1.700000X2.000000*%
%TD*%
%TA.AperFunction,SMDPad,CuDef*%
%ADD19R,1.050000X1.000000*%
%TD*%
%TA.AperFunction,SMDPad,CuDef*%
%ADD20R,2.200000X1.050000*%
%TD*%
%TA.AperFunction,ComponentPad*%
%ADD21R,2.250000X2.250000*%
%TD*%
%TA.AperFunction,ComponentPad*%
%ADD22C,2.550000*%
%TD*%
%TA.AperFunction,SMDPad,CuDef*%
%ADD23R,1.200000X0.550000*%
%TD*%
%TA.AperFunction,SMDPad,CuDef*%
%ADD24R,2.000000X1.000000*%
%TD*%
%TA.AperFunction,SMDPad,CuDef*%
%ADD25R,2.600000X1.100000*%
%TD*%
%TA.AperFunction,SMDPad,CuDef*%
%ADD26R,3.200000X3.200000*%
%TD*%
%TA.AperFunction,ViaPad*%
%ADD27C,0.800000*%
%TD*%
%TA.AperFunction,Conductor*%
%ADD28C,0.250000*%
%TD*%
%TA.AperFunction,Conductor*%
%ADD29C,0.300000*%
%TD*%
%TA.AperFunction,Conductor*%
%ADD30C,0.254000*%
%TD*%
%TA.AperFunction,Conductor*%
%ADD31C,0.100000*%
%TD*%
G04 APERTURE END LIST*
D10*
%TO.P,U3,2*%
%TO.N,+3V3*%
X76350000Y-90500000D03*
D11*
X82650000Y-90500000D03*
%TO.P,U3,3*%
%TO.N,Net-(C1-Pad1)*%
X82650000Y-88200000D03*
%TO.P,U3,1*%
%TO.N,GND*%
X82650000Y-92800000D03*
%TD*%
D12*
%TO.P,FID3,*%
%TO.N,*%
X107000000Y-96000000D03*
%TD*%
%TO.P,FID2,*%
%TO.N,*%
X110000000Y-61000000D03*
%TD*%
D13*
%TO.P,H4,1*%
%TO.N,GND*%
X114000000Y-96000000D03*
%TD*%
%TO.P,H3,1*%
%TO.N,GND*%
X114000000Y-61000000D03*
%TD*%
%TO.P,H2,1*%
%TO.N,GND*%
X61000000Y-61000000D03*
%TD*%
%TO.P,H1,1*%
%TO.N,GND*%
X61000000Y-82000000D03*
%TD*%
D12*
%TO.P,FID1,*%
%TO.N,*%
X61500000Y-65500000D03*
%TD*%
D14*
%TO.P,J7,3*%
%TO.N,+3V3*%
X112500000Y-85920000D03*
%TO.P,J7,2*%
%TO.N,Net-(J7-Pad2)*%
X112500000Y-88460000D03*
D15*
%TO.P,J7,1*%
%TO.N,GND*%
X112500000Y-91000000D03*
%TD*%
D16*
%TO.P,C1,1*%
%TO.N,Net-(C1-Pad1)*%
X72500000Y-93000000D03*
%TO.P,C1,2*%
%TO.N,GND*%
X72500000Y-96000000D03*
%TD*%
%TO.P,C2,1*%
%TO.N,/Analog0*%
%TA.AperFunction,SMDPad,CuDef*%
G36*
G01*
X103050000Y-87475000D02*
X103050000Y-86525000D01*
G75*
G02*
X103300000Y-86275000I250000J0D01*
G01*
X103800000Y-86275000D01*
G75*
G02*
X104050000Y-86525000I0J-250000D01*
G01*
X104050000Y-87475000D01*
G75*
G02*
X103800000Y-87725000I-250000J0D01*
G01*
X103300000Y-87725000D01*
G75*
G02*
X103050000Y-87475000I0J250000D01*
G01*
G37*
%TD.AperFunction*%
%TO.P,C2,2*%
%TO.N,Net-(C2-Pad2)*%
%TA.AperFunction,SMDPad,CuDef*%
G36*
G01*
X104950000Y-87475000D02*
X104950000Y-86525000D01*
G75*
G02*
X105200000Y-86275000I250000J0D01*
G01*
X105700000Y-86275000D01*
G75*
G02*
X105950000Y-86525000I0J-250000D01*
G01*
X105950000Y-87475000D01*
G75*
G02*
X105700000Y-87725000I-250000J0D01*
G01*
X105200000Y-87725000D01*
G75*
G02*
X104950000Y-87475000I0J250000D01*
G01*
G37*
%TD.AperFunction*%
%TD*%
%TO.P,C3,1*%
%TO.N,Net-(C3-Pad1)*%
%TA.AperFunction,SMDPad,CuDef*%
G36*
G01*
X103050000Y-91475000D02*
X103050000Y-90525000D01*
G75*
G02*
X103300000Y-90275000I250000J0D01*
G01*
X103800000Y-90275000D01*
G75*
G02*
X104050000Y-90525000I0J-250000D01*
G01*
X104050000Y-91475000D01*
G75*
G02*
X103800000Y-91725000I-250000J0D01*
G01*
X103300000Y-91725000D01*
G75*
G02*
X103050000Y-91475000I0J250000D01*
G01*
G37*
%TD.AperFunction*%
%TO.P,C3,2*%
%TO.N,GND*%
%TA.AperFunction,SMDPad,CuDef*%
G36*
G01*
X104950000Y-91475000D02*
X104950000Y-90525000D01*
G75*
G02*
X105200000Y-90275000I250000J0D01*
G01*
X105700000Y-90275000D01*
G75*
G02*
X105950000Y-90525000I0J-250000D01*
G01*
X105950000Y-91475000D01*
G75*
G02*
X105700000Y-91725000I-250000J0D01*
G01*
X105200000Y-91725000D01*
G75*
G02*
X104950000Y-91475000I0J250000D01*
G01*
G37*
%TD.AperFunction*%
%TD*%
%TO.P,C4,2*%
%TO.N,GND*%
%TA.AperFunction,SMDPad,CuDef*%
G36*
G01*
X77450000Y-96475000D02*
X77450000Y-95525000D01*
G75*
G02*
X77700000Y-95275000I250000J0D01*
G01*
X78200000Y-95275000D01*
G75*
G02*
X78450000Y-95525000I0J-250000D01*
G01*
X78450000Y-96475000D01*
G75*
G02*
X78200000Y-96725000I-250000J0D01*
G01*
X77700000Y-96725000D01*
G75*
G02*
X77450000Y-96475000I0J250000D01*
G01*
G37*
%TD.AperFunction*%
%TO.P,C4,1*%
%TO.N,Net-(C1-Pad1)*%
%TA.AperFunction,SMDPad,CuDef*%
G36*
G01*
X75550000Y-96475000D02*
X75550000Y-95525000D01*
G75*
G02*
X75800000Y-95275000I250000J0D01*
G01*
X76300000Y-95275000D01*
G75*
G02*
X76550000Y-95525000I0J-250000D01*
G01*
X76550000Y-96475000D01*
G75*
G02*
X76300000Y-96725000I-250000J0D01*
G01*
X75800000Y-96725000D01*
G75*
G02*
X75550000Y-96475000I0J250000D01*
G01*
G37*
%TD.AperFunction*%
%TD*%
%TO.P,C5,1*%
%TO.N,+3V3*%
%TA.AperFunction,SMDPad,CuDef*%
G36*
G01*
X85025000Y-92050000D02*
X85975000Y-92050000D01*
G75*
G02*
X86225000Y-92300000I0J-250000D01*
G01*
X86225000Y-92800000D01*
G75*
G02*
X85975000Y-93050000I-250000J0D01*
G01*
X85025000Y-93050000D01*
G75*
G02*
X84775000Y-92800000I0J250000D01*
G01*
X84775000Y-92300000D01*
G75*
G02*
X85025000Y-92050000I250000J0D01*
G01*
G37*
%TD.AperFunction*%
%TO.P,C5,2*%
%TO.N,GND*%
%TA.AperFunction,SMDPad,CuDef*%
G36*
G01*
X85025000Y-93950000D02*
X85975000Y-93950000D01*
G75*
G02*
X86225000Y-94200000I0J-250000D01*
G01*
X86225000Y-94700000D01*
G75*
G02*
X85975000Y-94950000I-250000J0D01*
G01*
X85025000Y-94950000D01*
G75*
G02*
X84775000Y-94700000I0J250000D01*
G01*
X84775000Y-94200000D01*
G75*
G02*
X85025000Y-93950000I250000J0D01*
G01*
G37*
%TD.AperFunction*%
%TD*%
%TO.P,C6,2*%
%TO.N,GND*%
%TA.AperFunction,SMDPad,CuDef*%
G36*
G01*
X66525000Y-78500000D02*
X67475000Y-78500000D01*
G75*
G02*
X67725000Y-78750000I0J-250000D01*
G01*
X67725000Y-79250000D01*
G75*
G02*
X67475000Y-79500000I-250000J0D01*
G01*
X66525000Y-79500000D01*
G75*
G02*
X66275000Y-79250000I0J250000D01*
G01*
X66275000Y-78750000D01*
G75*
G02*
X66525000Y-78500000I250000J0D01*
G01*
G37*
%TD.AperFunction*%
%TO.P,C6,1*%
%TO.N,+3V3*%
%TA.AperFunction,SMDPad,CuDef*%
G36*
G01*
X66525000Y-76600000D02*
X67475000Y-76600000D01*
G75*
G02*
X67725000Y-76850000I0J-250000D01*
G01*
X67725000Y-77350000D01*
G75*
G02*
X67475000Y-77600000I-250000J0D01*
G01*
X66525000Y-77600000D01*
G75*
G02*
X66275000Y-77350000I0J250000D01*
G01*
X66275000Y-76850000D01*
G75*
G02*
X66525000Y-76600000I250000J0D01*
G01*
G37*
%TD.AperFunction*%
%TD*%
%TO.P,C7,2*%
%TO.N,GND*%
%TA.AperFunction,SMDPad,CuDef*%
G36*
G01*
X89050000Y-82525000D02*
X89050000Y-83475000D01*
G75*
G02*
X88800000Y-83725000I-250000J0D01*
G01*
X88300000Y-83725000D01*
G75*
G02*
X88050000Y-83475000I0J250000D01*
G01*
X88050000Y-82525000D01*
G75*
G02*
X88300000Y-82275000I250000J0D01*
G01*
X88800000Y-82275000D01*
G75*
G02*
X89050000Y-82525000I0J-250000D01*
G01*
G37*
%TD.AperFunction*%
%TO.P,C7,1*%
%TO.N,+3V3*%
%TA.AperFunction,SMDPad,CuDef*%
G36*
G01*
X90950000Y-82525000D02*
X90950000Y-83475000D01*
G75*
G02*
X90700000Y-83725000I-250000J0D01*
G01*
X90200000Y-83725000D01*
G75*
G02*
X89950000Y-83475000I0J250000D01*
G01*
X89950000Y-82525000D01*
G75*
G02*
X90200000Y-82275000I250000J0D01*
G01*
X90700000Y-82275000D01*
G75*
G02*
X90950000Y-82525000I0J-250000D01*
G01*
G37*
%TD.AperFunction*%
%TD*%
%TO.P,D1,1*%
%TO.N,Net-(C1-Pad1)*%
%TA.AperFunction,SMDPad,CuDef*%
G36*
G01*
X73025000Y-89375000D02*
X73025000Y-90625000D01*
G75*
G02*
X72775000Y-90875000I-250000J0D01*
G01*
X72025000Y-90875000D01*
G75*
G02*
X71775000Y-90625000I0J250000D01*
G01*
X71775000Y-89375000D01*
G75*
G02*
X72025000Y-89125000I250000J0D01*
G01*
X72775000Y-89125000D01*
G75*
G02*
X73025000Y-89375000I0J-250000D01*
G01*
G37*
%TD.AperFunction*%
%TO.P,D1,2*%
%TO.N,Net-(D1-Pad2)*%
%TA.AperFunction,SMDPad,CuDef*%
G36*
G01*
X70225000Y-89375000D02*
X70225000Y-90625000D01*
G75*
G02*
X69975000Y-90875000I-250000J0D01*
G01*
X69225000Y-90875000D01*
G75*
G02*
X68975000Y-90625000I0J250000D01*
G01*
X68975000Y-89375000D01*
G75*
G02*
X69225000Y-89125000I250000J0D01*
G01*
X69975000Y-89125000D01*
G75*
G02*
X70225000Y-89375000I0J-250000D01*
G01*
G37*
%TD.AperFunction*%
%TD*%
%TO.P,D2,1*%
%TO.N,GND*%
%TA.AperFunction,SMDPad,CuDef*%
G36*
G01*
X94900000Y-95125000D02*
X94100000Y-95125000D01*
G75*
G02*
X93850000Y-94875000I0J250000D01*
G01*
X93850000Y-94050000D01*
G75*
G02*
X94100000Y-93800000I250000J0D01*
G01*
X94900000Y-93800000D01*
G75*
G02*
X95150000Y-94050000I0J-250000D01*
G01*
X95150000Y-94875000D01*
G75*
G02*
X94900000Y-95125000I-250000J0D01*
G01*
G37*
%TD.AperFunction*%
%TO.P,D2,2*%
%TO.N,Net-(D2-Pad2)*%
%TA.AperFunction,SMDPad,CuDef*%
G36*
G01*
X94900000Y-93200000D02*
X94100000Y-93200000D01*
G75*
G02*
X93850000Y-92950000I0J250000D01*
G01*
X93850000Y-92125000D01*
G75*
G02*
X94100000Y-91875000I250000J0D01*
G01*
X94900000Y-91875000D01*
G75*
G02*
X95150000Y-92125000I0J-250000D01*
G01*
X95150000Y-92950000D01*
G75*
G02*
X94900000Y-93200000I-250000J0D01*
G01*
G37*
%TD.AperFunction*%
%TD*%
%TO.P,D3,2*%
%TO.N,Net-(D3-Pad2)*%
%TA.AperFunction,SMDPad,CuDef*%
G36*
G01*
X90900000Y-93200000D02*
X90100000Y-93200000D01*
G75*
G02*
X89850000Y-92950000I0J250000D01*
G01*
X89850000Y-92125000D01*
G75*
G02*
X90100000Y-91875000I250000J0D01*
G01*
X90900000Y-91875000D01*
G75*
G02*
X91150000Y-92125000I0J-250000D01*
G01*
X91150000Y-92950000D01*
G75*
G02*
X90900000Y-93200000I-250000J0D01*
G01*
G37*
%TD.AperFunction*%
%TO.P,D3,1*%
%TO.N,GND*%
%TA.AperFunction,SMDPad,CuDef*%
G36*
G01*
X90900000Y-95125000D02*
X90100000Y-95125000D01*
G75*
G02*
X89850000Y-94875000I0J250000D01*
G01*
X89850000Y-94050000D01*
G75*
G02*
X90100000Y-93800000I250000J0D01*
G01*
X90900000Y-93800000D01*
G75*
G02*
X91150000Y-94050000I0J-250000D01*
G01*
X91150000Y-94875000D01*
G75*
G02*
X90900000Y-95125000I-250000J0D01*
G01*
G37*
%TD.AperFunction*%
%TD*%
D17*
%TO.P,J1,1*%
%TO.N,Net-(D1-Pad2)*%
X66700000Y-89900000D03*
%TO.P,J1,2*%
%TO.N,Net-(J1-Pad2)*%
X66700000Y-90700000D03*
%TO.P,J1,3*%
%TO.N,Net-(J1-Pad3)*%
X66700000Y-91500000D03*
%TO.P,J1,4*%
%TO.N,Net-(J1-Pad4)*%
X66700000Y-92300000D03*
%TO.P,J1,5*%
%TO.N,GND*%
X66700000Y-93100000D03*
D18*
%TO.P,J1,6*%
X66600000Y-87050000D03*
X61150000Y-87050000D03*
X66600000Y-95950000D03*
X61150000Y-95950000D03*
%TD*%
D19*
%TO.P,J2,2*%
%TO.N,Net-(J2-Pad2)*%
X75475000Y-63500000D03*
D20*
%TO.P,J2,1*%
%TO.N,GND*%
X77000000Y-62025000D03*
%TO.P,J2,3*%
%TO.N,N/C*%
X77000000Y-64975000D03*
%TD*%
D21*
%TO.P,J3,1*%
%TO.N,Net-(J2-Pad2)*%
X69500000Y-63500000D03*
D22*
%TO.P,J3,2*%
%TO.N,GND*%
X72040000Y-66040000D03*
%TO.P,J3,3*%
X66960000Y-66040000D03*
%TO.P,J3,4*%
X66960000Y-60960000D03*
%TO.P,J3,5*%
X72040000Y-60960000D03*
%TD*%
D15*
%TO.P,J4,1*%
%TO.N,Net-(J4-Pad1)*%
X112500000Y-72000000D03*
D14*
%TO.P,J4,2*%
%TO.N,Net-(J4-Pad2)*%
X112500000Y-69460000D03*
%TO.P,J4,3*%
%TO.N,GND*%
X112500000Y-66920000D03*
%TD*%
%TO.P,J5,2*%
%TO.N,GND*%
X89000000Y-62460000D03*
D15*
%TO.P,J5,1*%
%TO.N,Net-(J5-Pad1)*%
X89000000Y-65000000D03*
%TD*%
%TO.P,J6,1*%
%TO.N,Net-(J6-Pad1)*%
X112500000Y-78000000D03*
D14*
%TO.P,J6,2*%
%TO.N,GND*%
X112500000Y-80540000D03*
%TD*%
%TO.P,R1,1*%
%TO.N,Net-(C2-Pad2)*%
%TA.AperFunction,SMDPad,CuDef*%
G36*
G01*
X106575000Y-87450001D02*
X106575000Y-86549999D01*
G75*
G02*
X106824999Y-86300000I249999J0D01*
G01*
X107350001Y-86300000D01*
G75*
G02*
X107600000Y-86549999I0J-249999D01*
G01*
X107600000Y-87450001D01*
G75*
G02*
X107350001Y-87700000I-249999J0D01*
G01*
X106824999Y-87700000D01*
G75*
G02*
X106575000Y-87450001I0J249999D01*
G01*
G37*
%TD.AperFunction*%
%TO.P,R1,2*%
%TO.N,Net-(J7-Pad2)*%
%TA.AperFunction,SMDPad,CuDef*%
G36*
G01*
X108400000Y-87450001D02*
X108400000Y-86549999D01*
G75*
G02*
X108649999Y-86300000I249999J0D01*
G01*
X109175001Y-86300000D01*
G75*
G02*
X109425000Y-86549999I0J-249999D01*
G01*
X109425000Y-87450001D01*
G75*
G02*
X109175001Y-87700000I-249999J0D01*
G01*
X108649999Y-87700000D01*
G75*
G02*
X108400000Y-87450001I0J249999D01*
G01*
G37*
%TD.AperFunction*%
%TD*%
%TO.P,R2,2*%
%TO.N,Net-(C2-Pad2)*%
%TA.AperFunction,SMDPad,CuDef*%
G36*
G01*
X104900000Y-89450001D02*
X104900000Y-88549999D01*
G75*
G02*
X105149999Y-88300000I249999J0D01*
G01*
X105675001Y-88300000D01*
G75*
G02*
X105925000Y-88549999I0J-249999D01*
G01*
X105925000Y-89450001D01*
G75*
G02*
X105675001Y-89700000I-249999J0D01*
G01*
X105149999Y-89700000D01*
G75*
G02*
X104900000Y-89450001I0J249999D01*
G01*
G37*
%TD.AperFunction*%
%TO.P,R2,1*%
%TO.N,Net-(C3-Pad1)*%
%TA.AperFunction,SMDPad,CuDef*%
G36*
G01*
X103075000Y-89450001D02*
X103075000Y-88549999D01*
G75*
G02*
X103324999Y-88300000I249999J0D01*
G01*
X103850001Y-88300000D01*
G75*
G02*
X104100000Y-88549999I0J-249999D01*
G01*
X104100000Y-89450001D01*
G75*
G02*
X103850001Y-89700000I-249999J0D01*
G01*
X103324999Y-89700000D01*
G75*
G02*
X103075000Y-89450001I0J249999D01*
G01*
G37*
%TD.AperFunction*%
%TD*%
%TO.P,R3,2*%
%TO.N,GND*%
%TA.AperFunction,SMDPad,CuDef*%
G36*
G01*
X83400000Y-66450001D02*
X83400000Y-65549999D01*
G75*
G02*
X83649999Y-65300000I249999J0D01*
G01*
X84175001Y-65300000D01*
G75*
G02*
X84425000Y-65549999I0J-249999D01*
G01*
X84425000Y-66450001D01*
G75*
G02*
X84175001Y-66700000I-249999J0D01*
G01*
X83649999Y-66700000D01*
G75*
G02*
X83400000Y-66450001I0J249999D01*
G01*
G37*
%TD.AperFunction*%
%TO.P,R3,1*%
%TO.N,Net-(R3-Pad1)*%
%TA.AperFunction,SMDPad,CuDef*%
G36*
G01*
X81575000Y-66450001D02*
X81575000Y-65549999D01*
G75*
G02*
X81824999Y-65300000I249999J0D01*
G01*
X82350001Y-65300000D01*
G75*
G02*
X82600000Y-65549999I0J-249999D01*
G01*
X82600000Y-66450001D01*
G75*
G02*
X82350001Y-66700000I-249999J0D01*
G01*
X81824999Y-66700000D01*
G75*
G02*
X81575000Y-66450001I0J249999D01*
G01*
G37*
%TD.AperFunction*%
%TD*%
%TO.P,R4,1*%
%TO.N,Net-(R4-Pad1)*%
%TA.AperFunction,SMDPad,CuDef*%
G36*
G01*
X94049999Y-88075000D02*
X94950001Y-88075000D01*
G75*
G02*
X95200000Y-88324999I0J-249999D01*
G01*
X95200000Y-88850001D01*
G75*
G02*
X94950001Y-89100000I-249999J0D01*
G01*
X94049999Y-89100000D01*
G75*
G02*
X93800000Y-88850001I0J249999D01*
G01*
X93800000Y-88324999D01*
G75*
G02*
X94049999Y-88075000I249999J0D01*
G01*
G37*
%TD.AperFunction*%
%TO.P,R4,2*%
%TO.N,Net-(D2-Pad2)*%
%TA.AperFunction,SMDPad,CuDef*%
G36*
G01*
X94049999Y-89900000D02*
X94950001Y-89900000D01*
G75*
G02*
X95200000Y-90149999I0J-249999D01*
G01*
X95200000Y-90675001D01*
G75*
G02*
X94950001Y-90925000I-249999J0D01*
G01*
X94049999Y-90925000D01*
G75*
G02*
X93800000Y-90675001I0J249999D01*
G01*
X93800000Y-90149999D01*
G75*
G02*
X94049999Y-89900000I249999J0D01*
G01*
G37*
%TD.AperFunction*%
%TD*%
%TO.P,R5,2*%
%TO.N,Net-(D3-Pad2)*%
%TA.AperFunction,SMDPad,CuDef*%
G36*
G01*
X90049999Y-89900000D02*
X90950001Y-89900000D01*
G75*
G02*
X91200000Y-90149999I0J-249999D01*
G01*
X91200000Y-90675001D01*
G75*
G02*
X90950001Y-90925000I-249999J0D01*
G01*
X90049999Y-90925000D01*
G75*
G02*
X89800000Y-90675001I0J249999D01*
G01*
X89800000Y-90149999D01*
G75*
G02*
X90049999Y-89900000I249999J0D01*
G01*
G37*
%TD.AperFunction*%
%TO.P,R5,1*%
%TO.N,Net-(J6-Pad1)*%
%TA.AperFunction,SMDPad,CuDef*%
G36*
G01*
X90049999Y-88075000D02*
X90950001Y-88075000D01*
G75*
G02*
X91200000Y-88324999I0J-249999D01*
G01*
X91200000Y-88850001D01*
G75*
G02*
X90950001Y-89100000I-249999J0D01*
G01*
X90049999Y-89100000D01*
G75*
G02*
X89800000Y-88850001I0J249999D01*
G01*
X89800000Y-88324999D01*
G75*
G02*
X90049999Y-88075000I249999J0D01*
G01*
G37*
%TD.AperFunction*%
%TD*%
%TO.P,R6,1*%
%TO.N,+3V3*%
%TA.AperFunction,SMDPad,CuDef*%
G36*
G01*
X89450001Y-70425000D02*
X88549999Y-70425000D01*
G75*
G02*
X88300000Y-70175001I0J249999D01*
G01*
X88300000Y-69649999D01*
G75*
G02*
X88549999Y-69400000I249999J0D01*
G01*
X89450001Y-69400000D01*
G75*
G02*
X89700000Y-69649999I0J-249999D01*
G01*
X89700000Y-70175001D01*
G75*
G02*
X89450001Y-70425000I-249999J0D01*
G01*
G37*
%TD.AperFunction*%
%TO.P,R6,2*%
%TO.N,Net-(J5-Pad1)*%
%TA.AperFunction,SMDPad,CuDef*%
G36*
G01*
X89450001Y-68600000D02*
X88549999Y-68600000D01*
G75*
G02*
X88300000Y-68350001I0J249999D01*
G01*
X88300000Y-67824999D01*
G75*
G02*
X88549999Y-67575000I249999J0D01*
G01*
X89450001Y-67575000D01*
G75*
G02*
X89700000Y-67824999I0J-249999D01*
G01*
X89700000Y-68350001D01*
G75*
G02*
X89450001Y-68600000I-249999J0D01*
G01*
G37*
%TD.AperFunction*%
%TD*%
D23*
%TO.P,U2,1*%
%TO.N,/Analog0*%
X100800100Y-89450000D03*
%TO.P,U2,2*%
%TO.N,GND*%
X100800100Y-88500000D03*
%TO.P,U2,3*%
%TO.N,Net-(C3-Pad1)*%
X100800100Y-87550000D03*
%TO.P,U2,4*%
%TO.N,/Analog0*%
X98199900Y-87550000D03*
%TO.P,U2,5*%
%TO.N,+3V3*%
X98199900Y-89450000D03*
%TD*%
D24*
%TO.P,U4,1*%
%TO.N,GND*%
X85500000Y-83000000D03*
%TO.P,U4,2*%
%TO.N,Net-(U4-Pad2)*%
X85500000Y-81000000D03*
%TO.P,U4,3*%
%TO.N,Net-(U4-Pad3)*%
X85500000Y-79000000D03*
%TO.P,U4,4*%
%TO.N,Net-(U4-Pad4)*%
X85500000Y-77000000D03*
%TO.P,U4,5*%
%TO.N,Net-(R3-Pad1)*%
X85500000Y-75000000D03*
%TO.P,U4,6*%
%TO.N,Net-(U4-Pad6)*%
X85500000Y-73000000D03*
%TO.P,U4,7*%
%TO.N,Net-(U4-Pad7)*%
X85500000Y-71000000D03*
%TO.P,U4,8*%
%TO.N,GND*%
X85500000Y-69000000D03*
%TO.P,U4,9*%
%TO.N,Net-(J2-Pad2)*%
X69500000Y-69000000D03*
%TO.P,U4,10*%
%TO.N,GND*%
X69500000Y-71000000D03*
%TO.P,U4,11*%
%TO.N,Net-(U4-Pad11)*%
X69500000Y-73000000D03*
%TO.P,U4,12*%
%TO.N,Net-(U4-Pad12)*%
X69500000Y-75000000D03*
%TO.P,U4,13*%
%TO.N,+3V3*%
X69500000Y-77000000D03*
%TO.P,U4,14*%
%TO.N,Net-(U4-Pad14)*%
X69500000Y-79000000D03*
%TO.P,U4,15*%
%TO.N,Net-(U4-Pad15)*%
X69500000Y-81000000D03*
%TO.P,U4,16*%
%TO.N,Net-(U4-Pad16)*%
X69500000Y-83000000D03*
%TD*%
D25*
%TO.P,U5,1*%
%TO.N,Net-(J5-Pad1)*%
X92000000Y-66500000D03*
%TO.P,U5,2*%
%TO.N,/Analog0*%
X92000000Y-68500000D03*
%TO.P,U5,3*%
%TO.N,+3V3*%
X92000000Y-70500000D03*
%TO.P,U5,4*%
%TO.N,Net-(U4-Pad6)*%
X92000000Y-72500000D03*
%TO.P,U5,5*%
%TO.N,Net-(U4-Pad4)*%
X92000000Y-74500000D03*
%TO.P,U5,6*%
%TO.N,Net-(U4-Pad2)*%
X92000000Y-76500000D03*
%TO.P,U5,7*%
%TO.N,Net-(U4-Pad3)*%
X92000000Y-78500000D03*
%TO.P,U5,8*%
%TO.N,+3V3*%
X92000000Y-80500000D03*
%TO.P,U5,9*%
%TO.N,GND*%
X108000000Y-80500000D03*
%TO.P,U5,10*%
%TO.N,Net-(R3-Pad1)*%
X108000000Y-78500000D03*
%TO.P,U5,11*%
%TO.N,Net-(R4-Pad1)*%
X108000000Y-76500000D03*
%TO.P,U5,12*%
%TO.N,Net-(J6-Pad1)*%
X108000000Y-74500000D03*
%TO.P,U5,13*%
%TO.N,Net-(U4-Pad15)*%
X108000000Y-72500000D03*
%TO.P,U5,14*%
%TO.N,Net-(U4-Pad14)*%
X108000000Y-70500000D03*
%TO.P,U5,15*%
%TO.N,Net-(J4-Pad1)*%
X108000000Y-68500000D03*
%TO.P,U5,16*%
%TO.N,Net-(J4-Pad2)*%
X108000000Y-66500000D03*
D26*
%TO.P,U5,P$1*%
%TO.N,N/C*%
X100000000Y-71200000D03*
%TD*%
D27*
%TO.N,+3V3*%
X98000000Y-85000000D03*
X96000000Y-85000000D03*
%TO.N,Net-(J6-Pad1)*%
X104000000Y-74500000D03*
X90500000Y-87500000D03*
%TO.N,Net-(R3-Pad1)*%
X105500000Y-78500000D03*
X87500000Y-74500000D03*
%TO.N,Net-(R4-Pad1)*%
X104000000Y-76500000D03*
X94500000Y-87500000D03*
%TO.N,Net-(U4-Pad14)*%
X105500000Y-69500000D03*
X72500000Y-79000000D03*
%TO.N,Net-(U4-Pad15)*%
X105500000Y-72000000D03*
X72500000Y-81000000D03*
%TD*%
D28*
%TO.N,Net-(C1-Pad1)*%
X72400000Y-92900000D02*
X72500000Y-93000000D01*
X72400000Y-90000000D02*
X72400000Y-92900000D01*
X73050000Y-93000000D02*
X76050000Y-96000000D01*
X72500000Y-93000000D02*
X73050000Y-93000000D01*
X76050000Y-96000000D02*
X79500000Y-92550000D01*
X79500000Y-92550000D02*
X79500000Y-90000000D01*
X81300000Y-88200000D02*
X82650000Y-88200000D01*
X79500000Y-90000000D02*
X81300000Y-88200000D01*
%TO.N,GND*%
X66700000Y-95850000D02*
X66600000Y-95950000D01*
X66700000Y-93100000D02*
X66700000Y-95850000D01*
X101650100Y-88500000D02*
X102000000Y-88849900D01*
X100800100Y-88500000D02*
X101650100Y-88500000D01*
X102000000Y-88849900D02*
X102000000Y-92000000D01*
X104399990Y-92050010D02*
X105450000Y-91000000D01*
X102050010Y-92050010D02*
X104399990Y-92050010D01*
X102000000Y-92000000D02*
X102050010Y-92050010D01*
%TO.N,/Analog0*%
X99249900Y-86500000D02*
X98199900Y-87550000D01*
X98199900Y-87550000D02*
X98199900Y-87699900D01*
X99950000Y-89450000D02*
X100800100Y-89450000D01*
X98199900Y-87699900D02*
X99950000Y-89450000D01*
X103050000Y-86500000D02*
X103550000Y-87000000D01*
X99249900Y-86500000D02*
X103050000Y-86500000D01*
X92000000Y-68500000D02*
X94500000Y-68500000D01*
X94500000Y-68500000D02*
X97000000Y-71000000D01*
X97000000Y-86350100D02*
X98199900Y-87550000D01*
X97000000Y-71000000D02*
X97000000Y-86350100D01*
%TO.N,Net-(C2-Pad2)*%
X107087500Y-87000000D02*
X105450000Y-87000000D01*
X105450000Y-88962500D02*
X105412500Y-89000000D01*
X105450000Y-87000000D02*
X105450000Y-88962500D01*
%TO.N,Net-(C3-Pad1)*%
X103100100Y-89000000D02*
X103587500Y-89000000D01*
X101650100Y-87550000D02*
X103100100Y-89000000D01*
X100800100Y-87550000D02*
X101650100Y-87550000D01*
X103550000Y-89037500D02*
X103587500Y-89000000D01*
X103550000Y-91000000D02*
X103550000Y-89037500D01*
%TO.N,+3V3*%
X84000000Y-90500000D02*
X82650000Y-90500000D01*
X67100000Y-77000000D02*
X67000000Y-77100000D01*
X69500000Y-77000000D02*
X67100000Y-77000000D01*
X98199900Y-89450000D02*
X96950000Y-89450000D01*
X96950000Y-89450000D02*
X96000000Y-88500000D01*
X89587500Y-70500000D02*
X89000000Y-69912500D01*
X92000000Y-70500000D02*
X89587500Y-70500000D01*
X92000000Y-70500000D02*
X94000000Y-70500000D01*
X94000000Y-70500000D02*
X94500000Y-71000000D01*
X76350000Y-90500000D02*
X76350000Y-79350000D01*
X74000000Y-77000000D02*
X69500000Y-77000000D01*
X76350000Y-79350000D02*
X74000000Y-77000000D01*
X112500000Y-85920000D02*
X111580000Y-85000000D01*
X111580000Y-85000000D02*
X98000000Y-85000000D01*
X82650000Y-90500000D02*
X83000000Y-90500000D01*
X83150000Y-90000000D02*
X82650000Y-90500000D01*
X90450000Y-83000000D02*
X92000000Y-83000000D01*
X92000000Y-80500000D02*
X92000000Y-83000000D01*
X92000000Y-80500000D02*
X94000000Y-80500000D01*
X94500000Y-80000000D02*
X94500000Y-71000000D01*
X94000000Y-80500000D02*
X94500000Y-80000000D01*
X83500000Y-90500000D02*
X82650000Y-90500000D01*
X89500000Y-84500000D02*
X83500000Y-90500000D01*
X91000000Y-84500000D02*
X89500000Y-84500000D01*
X92000000Y-83500000D02*
X91000000Y-84500000D01*
X92000000Y-83000000D02*
X92000000Y-83500000D01*
X82650000Y-90500000D02*
X85000000Y-90500000D01*
X95774999Y-86774999D02*
X96000000Y-87000000D01*
X85774999Y-90500000D02*
X89500000Y-86774999D01*
X96000000Y-88500000D02*
X96000000Y-87000000D01*
X83450000Y-90500000D02*
X85500000Y-92550000D01*
X82650000Y-90500000D02*
X83450000Y-90500000D01*
X95774999Y-86774999D02*
X89500000Y-86774999D01*
X85774999Y-90500000D02*
X85000000Y-90500000D01*
X98000000Y-85000000D02*
X98000000Y-85000000D01*
X96000000Y-85000000D02*
X90000000Y-85000000D01*
X84500000Y-90500000D02*
X82650000Y-90500000D01*
X90000000Y-85000000D02*
X84500000Y-90500000D01*
X76350000Y-90500000D02*
X76350000Y-90150000D01*
X76350000Y-90150000D02*
X80000000Y-86500000D01*
X80000000Y-86500000D02*
X84000000Y-86500000D01*
X84000000Y-86500000D02*
X85000000Y-87500000D01*
X82685002Y-90500000D02*
X82650000Y-90500000D01*
X85000000Y-88185002D02*
X82685002Y-90500000D01*
X85000000Y-87500000D02*
X85000000Y-88185002D01*
%TO.N,Net-(D1-Pad2)*%
X69500000Y-89900000D02*
X69600000Y-90000000D01*
X66700000Y-89900000D02*
X69500000Y-89900000D01*
%TO.N,Net-(D2-Pad2)*%
X94500000Y-90412500D02*
X94500000Y-92537500D01*
%TO.N,Net-(D3-Pad2)*%
X90500000Y-90412500D02*
X90500000Y-92537500D01*
D29*
%TO.N,Net-(J2-Pad2)*%
X75475000Y-63500000D02*
X69500000Y-63500000D01*
X69500000Y-63500000D02*
X69500000Y-69000000D01*
D28*
%TO.N,Net-(J4-Pad1)*%
X109550000Y-68500000D02*
X110500000Y-69450000D01*
X108000000Y-68500000D02*
X109550000Y-68500000D01*
X110500000Y-70000000D02*
X112500000Y-72000000D01*
X110500000Y-69450000D02*
X110500000Y-70000000D01*
%TO.N,Net-(J4-Pad2)*%
X109540000Y-66500000D02*
X112500000Y-69460000D01*
X108000000Y-66500000D02*
X109540000Y-66500000D01*
%TO.N,Net-(J5-Pad1)*%
X89000000Y-68087500D02*
X89000000Y-65000000D01*
X90500000Y-66500000D02*
X89000000Y-65000000D01*
X92000000Y-66500000D02*
X90500000Y-66500000D01*
%TO.N,Net-(J6-Pad1)*%
X109000000Y-74500000D02*
X112500000Y-78000000D01*
X108000000Y-74500000D02*
X109000000Y-74500000D01*
X108000000Y-74500000D02*
X105500000Y-74500000D01*
X105500000Y-74500000D02*
X104000000Y-74500000D01*
X90500000Y-88587500D02*
X90500000Y-87500000D01*
%TO.N,Net-(R3-Pad1)*%
X82087500Y-66000000D02*
X82087500Y-73587500D01*
X83500000Y-75000000D02*
X85500000Y-75000000D01*
X82087500Y-73587500D02*
X83500000Y-75000000D01*
X108000000Y-78500000D02*
X105500000Y-78500000D01*
X86000000Y-74500000D02*
X85500000Y-75000000D01*
X87500000Y-74500000D02*
X86000000Y-74500000D01*
%TO.N,Net-(R4-Pad1)*%
X108000000Y-76500000D02*
X105500000Y-76500000D01*
X105500000Y-76500000D02*
X104000000Y-76500000D01*
X94500000Y-88587500D02*
X94500000Y-87500000D01*
%TO.N,Net-(U4-Pad2)*%
X85500000Y-81000000D02*
X86500000Y-81000000D01*
X91000000Y-76500000D02*
X92000000Y-76500000D01*
X86500000Y-81000000D02*
X91000000Y-76500000D01*
%TO.N,Net-(U4-Pad3)*%
X90450000Y-78500000D02*
X92000000Y-78500000D01*
X87124999Y-81825001D02*
X90450000Y-78500000D01*
X84174999Y-81760001D02*
X84239999Y-81825001D01*
X84239999Y-81825001D02*
X87124999Y-81825001D01*
X84174999Y-80325001D02*
X84174999Y-81760001D01*
X85500000Y-79000000D02*
X84174999Y-80325001D01*
%TO.N,Net-(U4-Pad4)*%
X85500000Y-77000000D02*
X87000000Y-77000000D01*
X89500000Y-74500000D02*
X92000000Y-74500000D01*
X87000000Y-77000000D02*
X89500000Y-74500000D01*
%TO.N,Net-(U4-Pad6)*%
X85500000Y-73000000D02*
X89000000Y-73000000D01*
X89500000Y-72500000D02*
X92000000Y-72500000D01*
X89000000Y-73000000D02*
X89500000Y-72500000D01*
%TO.N,Net-(U4-Pad14)*%
X108000000Y-70500000D02*
X106500000Y-70500000D01*
X106500000Y-70500000D02*
X105500000Y-69500000D01*
X72500000Y-79000000D02*
X69500000Y-79000000D01*
%TO.N,Net-(U4-Pad15)*%
X108000000Y-72500000D02*
X106000000Y-72500000D01*
X106000000Y-72500000D02*
X105500000Y-72000000D01*
X72500000Y-81000000D02*
X69500000Y-81000000D01*
%TO.N,Net-(J7-Pad2)*%
X112500000Y-88460000D02*
X111040000Y-87000000D01*
X111040000Y-87000000D02*
X108912500Y-87000000D01*
%TD*%
D30*
%TO.N,GND*%
X66178022Y-59207287D02*
X65937116Y-59336055D01*
X65808190Y-59628585D01*
X66960000Y-60780395D01*
X68111810Y-59628585D01*
X67982884Y-59336055D01*
X67646414Y-59167704D01*
X67497940Y-59127000D01*
X71499105Y-59127000D01*
X71258022Y-59207287D01*
X71017116Y-59336055D01*
X70888190Y-59628585D01*
X72040000Y-60780395D01*
X73191810Y-59628585D01*
X73062884Y-59336055D01*
X72726414Y-59167704D01*
X72577940Y-59127000D01*
X91340000Y-59127000D01*
X91340001Y-64967571D01*
X91336807Y-65000000D01*
X91349550Y-65129383D01*
X91387290Y-65253793D01*
X91418364Y-65311928D01*
X90700000Y-65311928D01*
X90575518Y-65324188D01*
X90488072Y-65350714D01*
X90488072Y-64150000D01*
X90475812Y-64025518D01*
X90439502Y-63905820D01*
X90380537Y-63795506D01*
X90301185Y-63698815D01*
X90204494Y-63619463D01*
X90094180Y-63560498D01*
X90013534Y-63536034D01*
X90097588Y-63460269D01*
X90271641Y-63226920D01*
X90396825Y-62964099D01*
X90441476Y-62816890D01*
X90320155Y-62587000D01*
X89127000Y-62587000D01*
X89127000Y-62607000D01*
X88873000Y-62607000D01*
X88873000Y-62587000D01*
X87679845Y-62587000D01*
X87558524Y-62816890D01*
X87603175Y-62964099D01*
X87728359Y-63226920D01*
X87902412Y-63460269D01*
X87986466Y-63536034D01*
X87905820Y-63560498D01*
X87795506Y-63619463D01*
X87698815Y-63698815D01*
X87619463Y-63795506D01*
X87560498Y-63905820D01*
X87524188Y-64025518D01*
X87511928Y-64150000D01*
X87511928Y-65850000D01*
X87524188Y-65974482D01*
X87560498Y-66094180D01*
X87619463Y-66204494D01*
X87698815Y-66301185D01*
X87795506Y-66380537D01*
X87905820Y-66439502D01*
X88025518Y-66475812D01*
X88150000Y-66488072D01*
X88240001Y-66488072D01*
X88240000Y-66995473D01*
X88210149Y-67004528D01*
X88056613Y-67086595D01*
X87922038Y-67197038D01*
X87811595Y-67331613D01*
X87729528Y-67485149D01*
X87678992Y-67651745D01*
X87661928Y-67824999D01*
X87661928Y-68350001D01*
X87678992Y-68523255D01*
X87729528Y-68689851D01*
X87811595Y-68843387D01*
X87922038Y-68977962D01*
X87948891Y-69000000D01*
X87922038Y-69022038D01*
X87811595Y-69156613D01*
X87729528Y-69310149D01*
X87678992Y-69476745D01*
X87661928Y-69649999D01*
X87661928Y-70175001D01*
X87678992Y-70348255D01*
X87729528Y-70514851D01*
X87811595Y-70668387D01*
X87922038Y-70802962D01*
X88056613Y-70913405D01*
X88210149Y-70995472D01*
X88376745Y-71046008D01*
X88549999Y-71063072D01*
X89075611Y-71063072D01*
X89076492Y-71063795D01*
X89076496Y-71063799D01*
X89147185Y-71121811D01*
X89163224Y-71134974D01*
X89295253Y-71205546D01*
X89438514Y-71249003D01*
X89550167Y-71260000D01*
X89550176Y-71260000D01*
X89587499Y-71263676D01*
X89624822Y-71260000D01*
X90100130Y-71260000D01*
X90110498Y-71294180D01*
X90169463Y-71404494D01*
X90247842Y-71500000D01*
X90169463Y-71595506D01*
X90110498Y-71705820D01*
X90100130Y-71740000D01*
X89537325Y-71740000D01*
X89500000Y-71736324D01*
X89462675Y-71740000D01*
X89462667Y-71740000D01*
X89351014Y-71750997D01*
X89207753Y-71794454D01*
X89075724Y-71865026D01*
X88959999Y-71959999D01*
X88936196Y-71989003D01*
X88685199Y-72240000D01*
X87081046Y-72240000D01*
X87030537Y-72145506D01*
X86951185Y-72048815D01*
X86891704Y-72000000D01*
X86951185Y-71951185D01*
X87030537Y-71854494D01*
X87089502Y-71744180D01*
X87125812Y-71624482D01*
X87138072Y-71500000D01*
X87138072Y-70500000D01*
X87125812Y-70375518D01*
X87089502Y-70255820D01*
X87030537Y-70145506D01*
X86951185Y-70048815D01*
X86891704Y-70000000D01*
X86951185Y-69951185D01*
X87030537Y-69854494D01*
X87089502Y-69744180D01*
X87125812Y-69624482D01*
X87138072Y-69500000D01*
X87135000Y-69285750D01*
X86976250Y-69127000D01*
X85627000Y-69127000D01*
X85627000Y-69147000D01*
X85373000Y-69147000D01*
X85373000Y-69127000D01*
X84023750Y-69127000D01*
X83865000Y-69285750D01*
X83861928Y-69500000D01*
X83874188Y-69624482D01*
X83910498Y-69744180D01*
X83969463Y-69854494D01*
X84048815Y-69951185D01*
X84108296Y-70000000D01*
X84048815Y-70048815D01*
X83969463Y-70145506D01*
X83910498Y-70255820D01*
X83874188Y-70375518D01*
X83861928Y-70500000D01*
X83861928Y-71500000D01*
X83874188Y-71624482D01*
X83910498Y-71744180D01*
X83969463Y-71854494D01*
X84048815Y-71951185D01*
X84108296Y-72000000D01*
X84048815Y-72048815D01*
X83969463Y-72145506D01*
X83910498Y-72255820D01*
X83874188Y-72375518D01*
X83861928Y-72500000D01*
X83861928Y-73500000D01*
X83874188Y-73624482D01*
X83910498Y-73744180D01*
X83969463Y-73854494D01*
X84048815Y-73951185D01*
X84108296Y-74000000D01*
X84048815Y-74048815D01*
X83969463Y-74145506D01*
X83918954Y-74240000D01*
X83814802Y-74240000D01*
X82847500Y-73272699D01*
X82847500Y-68500000D01*
X83861928Y-68500000D01*
X83865000Y-68714250D01*
X84023750Y-68873000D01*
X85373000Y-68873000D01*
X85373000Y-68023750D01*
X85627000Y-68023750D01*
X85627000Y-68873000D01*
X86976250Y-68873000D01*
X87135000Y-68714250D01*
X87138072Y-68500000D01*
X87125812Y-68375518D01*
X87089502Y-68255820D01*
X87030537Y-68145506D01*
X86951185Y-68048815D01*
X86854494Y-67969463D01*
X86744180Y-67910498D01*
X86624482Y-67874188D01*
X86500000Y-67861928D01*
X85785750Y-67865000D01*
X85627000Y-68023750D01*
X85373000Y-68023750D01*
X85214250Y-67865000D01*
X84500000Y-67861928D01*
X84375518Y-67874188D01*
X84255820Y-67910498D01*
X84145506Y-67969463D01*
X84048815Y-68048815D01*
X83969463Y-68145506D01*
X83910498Y-68255820D01*
X83874188Y-68375518D01*
X83861928Y-68500000D01*
X82847500Y-68500000D01*
X82847500Y-67185030D01*
X82924637Y-67121724D01*
X82948815Y-67151185D01*
X83045506Y-67230537D01*
X83155820Y-67289502D01*
X83275518Y-67325812D01*
X83400000Y-67338072D01*
X83626750Y-67335000D01*
X83785500Y-67176250D01*
X83785500Y-66127000D01*
X84039500Y-66127000D01*
X84039500Y-67176250D01*
X84198250Y-67335000D01*
X84425000Y-67338072D01*
X84549482Y-67325812D01*
X84669180Y-67289502D01*
X84779494Y-67230537D01*
X84876185Y-67151185D01*
X84955537Y-67054494D01*
X85014502Y-66944180D01*
X85050812Y-66824482D01*
X85063072Y-66700000D01*
X85060000Y-66285750D01*
X84901250Y-66127000D01*
X84039500Y-66127000D01*
X83785500Y-66127000D01*
X83765500Y-66127000D01*
X83765500Y-65873000D01*
X83785500Y-65873000D01*
X83785500Y-64823750D01*
X84039500Y-64823750D01*
X84039500Y-65873000D01*
X84901250Y-65873000D01*
X85060000Y-65714250D01*
X85063072Y-65300000D01*
X85050812Y-65175518D01*
X85014502Y-65055820D01*
X84955537Y-64945506D01*
X84876185Y-64848815D01*
X84779494Y-64769463D01*
X84669180Y-64710498D01*
X84549482Y-64674188D01*
X84425000Y-64661928D01*
X84198250Y-64665000D01*
X84039500Y-64823750D01*
X83785500Y-64823750D01*
X83626750Y-64665000D01*
X83400000Y-64661928D01*
X83275518Y-64674188D01*
X83155820Y-64710498D01*
X83045506Y-64769463D01*
X82948815Y-64848815D01*
X82924637Y-64878276D01*
X82843387Y-64811595D01*
X82689851Y-64729528D01*
X82523255Y-64678992D01*
X82350001Y-64661928D01*
X81824999Y-64661928D01*
X81651745Y-64678992D01*
X81485149Y-64729528D01*
X81331613Y-64811595D01*
X81197038Y-64922038D01*
X81086595Y-65056613D01*
X81004528Y-65210149D01*
X80953992Y-65376745D01*
X80936928Y-65549999D01*
X80936928Y-66450001D01*
X80953992Y-66623255D01*
X81004528Y-66789851D01*
X81086595Y-66943387D01*
X81197038Y-67077962D01*
X81327500Y-67185030D01*
X81327501Y-73550168D01*
X81323824Y-73587500D01*
X81338498Y-73736485D01*
X81381954Y-73879746D01*
X81452526Y-74011776D01*
X81516315Y-74089502D01*
X81547500Y-74127501D01*
X81576498Y-74151299D01*
X82936201Y-75511003D01*
X82959999Y-75540001D01*
X83075724Y-75634974D01*
X83207753Y-75705546D01*
X83351014Y-75749003D01*
X83462667Y-75760000D01*
X83462675Y-75760000D01*
X83500000Y-75763676D01*
X83537325Y-75760000D01*
X83918954Y-75760000D01*
X83969463Y-75854494D01*
X84048815Y-75951185D01*
X84108296Y-76000000D01*
X84048815Y-76048815D01*
X83969463Y-76145506D01*
X83910498Y-76255820D01*
X83874188Y-76375518D01*
X83861928Y-76500000D01*
X83861928Y-77500000D01*
X83874188Y-77624482D01*
X83910498Y-77744180D01*
X83969463Y-77854494D01*
X84048815Y-77951185D01*
X84108296Y-78000000D01*
X84048815Y-78048815D01*
X83969463Y-78145506D01*
X83910498Y-78255820D01*
X83874188Y-78375518D01*
X83861928Y-78500000D01*
X83861928Y-79500000D01*
X83867601Y-79557598D01*
X83664001Y-79761198D01*
X83634998Y-79785000D01*
X83601746Y-79825518D01*
X83540025Y-79900725D01*
X83508342Y-79959999D01*
X83469453Y-80032755D01*
X83425996Y-80176016D01*
X83414999Y-80287669D01*
X83414999Y-80287679D01*
X83411323Y-80325001D01*
X83414999Y-80362324D01*
X83415000Y-81722669D01*
X83411323Y-81760001D01*
X83415000Y-81797334D01*
X83425997Y-81908987D01*
X83428490Y-81917205D01*
X83469453Y-82052247D01*
X83540025Y-82184277D01*
X83611200Y-82271003D01*
X83634999Y-82300002D01*
X83663997Y-82323800D01*
X83676195Y-82335998D01*
X83699998Y-82365002D01*
X83815723Y-82459975D01*
X83863362Y-82485439D01*
X83861928Y-82500000D01*
X83865000Y-82714250D01*
X84023750Y-82873000D01*
X85373000Y-82873000D01*
X85373000Y-82853000D01*
X85627000Y-82853000D01*
X85627000Y-82873000D01*
X86976250Y-82873000D01*
X87135000Y-82714250D01*
X87136817Y-82587513D01*
X87162321Y-82585001D01*
X87162332Y-82585001D01*
X87273985Y-82574004D01*
X87413723Y-82531616D01*
X87415000Y-82714250D01*
X87573750Y-82873000D01*
X88423000Y-82873000D01*
X88423000Y-81798750D01*
X88324526Y-81700276D01*
X90061928Y-79962874D01*
X90061928Y-81050000D01*
X90074188Y-81174482D01*
X90110498Y-81294180D01*
X90169463Y-81404494D01*
X90248815Y-81501185D01*
X90345506Y-81580537D01*
X90451004Y-81636928D01*
X90200000Y-81636928D01*
X90026746Y-81653992D01*
X89860150Y-81704528D01*
X89706614Y-81786595D01*
X89572038Y-81897038D01*
X89566658Y-81903594D01*
X89501185Y-81823815D01*
X89404494Y-81744463D01*
X89294180Y-81685498D01*
X89174482Y-81649188D01*
X89050000Y-81636928D01*
X88835750Y-81640000D01*
X88677000Y-81798750D01*
X88677000Y-82873000D01*
X88697000Y-82873000D01*
X88697000Y-83127000D01*
X88677000Y-83127000D01*
X88677000Y-84201250D01*
X88700474Y-84224724D01*
X85708315Y-87216883D01*
X85705546Y-87207753D01*
X85634974Y-87075724D01*
X85563799Y-86988997D01*
X85540001Y-86959999D01*
X85511004Y-86936202D01*
X84563804Y-85989002D01*
X84540001Y-85959999D01*
X84424276Y-85865026D01*
X84292247Y-85794454D01*
X84148986Y-85750997D01*
X84037333Y-85740000D01*
X84037322Y-85740000D01*
X84000000Y-85736324D01*
X83962678Y-85740000D01*
X80037333Y-85740000D01*
X80000000Y-85736323D01*
X79962667Y-85740000D01*
X79851014Y-85750997D01*
X79707753Y-85794454D01*
X79575724Y-85865026D01*
X79459999Y-85959999D01*
X79436201Y-85988997D01*
X77453115Y-87972084D01*
X77350000Y-87961928D01*
X77110000Y-87961928D01*
X77110000Y-83500000D01*
X83861928Y-83500000D01*
X83874188Y-83624482D01*
X83910498Y-83744180D01*
X83969463Y-83854494D01*
X84048815Y-83951185D01*
X84145506Y-84030537D01*
X84255820Y-84089502D01*
X84375518Y-84125812D01*
X84500000Y-84138072D01*
X85214250Y-84135000D01*
X85373000Y-83976250D01*
X85373000Y-83127000D01*
X85627000Y-83127000D01*
X85627000Y-83976250D01*
X85785750Y-84135000D01*
X86500000Y-84138072D01*
X86624482Y-84125812D01*
X86744180Y-84089502D01*
X86854494Y-84030537D01*
X86951185Y-83951185D01*
X87030537Y-83854494D01*
X87089502Y-83744180D01*
X87095320Y-83725000D01*
X87411928Y-83725000D01*
X87424188Y-83849482D01*
X87460498Y-83969180D01*
X87519463Y-84079494D01*
X87598815Y-84176185D01*
X87695506Y-84255537D01*
X87805820Y-84314502D01*
X87925518Y-84350812D01*
X88050000Y-84363072D01*
X88264250Y-84360000D01*
X88423000Y-84201250D01*
X88423000Y-83127000D01*
X87573750Y-83127000D01*
X87415000Y-83285750D01*
X87411928Y-83725000D01*
X87095320Y-83725000D01*
X87125812Y-83624482D01*
X87138072Y-83500000D01*
X87135000Y-83285750D01*
X86976250Y-83127000D01*
X85627000Y-83127000D01*
X85373000Y-83127000D01*
X84023750Y-83127000D01*
X83865000Y-83285750D01*
X83861928Y-83500000D01*
X77110000Y-83500000D01*
X77110000Y-79387323D01*
X77113676Y-79350000D01*
X77110000Y-79312677D01*
X77110000Y-79312667D01*
X77099003Y-79201014D01*
X77055546Y-79057753D01*
X76984974Y-78925724D01*
X76890001Y-78809999D01*
X76861003Y-78786201D01*
X74563804Y-76489003D01*
X74540001Y-76459999D01*
X74424276Y-76365026D01*
X74292247Y-76294454D01*
X74148986Y-76250997D01*
X74037333Y-76240000D01*
X74037322Y-76240000D01*
X74000000Y-76236324D01*
X73962678Y-76240000D01*
X71081046Y-76240000D01*
X71030537Y-76145506D01*
X70951185Y-76048815D01*
X70891704Y-76000000D01*
X70951185Y-75951185D01*
X71030537Y-75854494D01*
X71089502Y-75744180D01*
X71125812Y-75624482D01*
X71138072Y-75500000D01*
X71138072Y-74500000D01*
X71125812Y-74375518D01*
X71089502Y-74255820D01*
X71030537Y-74145506D01*
X70951185Y-74048815D01*
X70891704Y-74000000D01*
X70951185Y-73951185D01*
X71030537Y-73854494D01*
X71089502Y-73744180D01*
X71125812Y-73624482D01*
X71138072Y-73500000D01*
X71138072Y-72500000D01*
X71125812Y-72375518D01*
X71089502Y-72255820D01*
X71030537Y-72145506D01*
X70951185Y-72048815D01*
X70891704Y-72000000D01*
X70951185Y-71951185D01*
X71030537Y-71854494D01*
X71089502Y-71744180D01*
X71125812Y-71624482D01*
X71138072Y-71500000D01*
X71135000Y-71285750D01*
X70976250Y-71127000D01*
X69627000Y-71127000D01*
X69627000Y-71147000D01*
X69373000Y-71147000D01*
X69373000Y-71127000D01*
X68023750Y-71127000D01*
X67865000Y-71285750D01*
X67861928Y-71500000D01*
X67874188Y-71624482D01*
X67910498Y-71744180D01*
X67969463Y-71854494D01*
X68048815Y-71951185D01*
X68108296Y-72000000D01*
X68048815Y-72048815D01*
X67969463Y-72145506D01*
X67910498Y-72255820D01*
X67874188Y-72375518D01*
X67861928Y-72500000D01*
X67861928Y-73500000D01*
X67874188Y-73624482D01*
X67910498Y-73744180D01*
X67969463Y-73854494D01*
X68048815Y-73951185D01*
X68108296Y-74000000D01*
X68048815Y-74048815D01*
X67969463Y-74145506D01*
X67910498Y-74255820D01*
X67874188Y-74375518D01*
X67861928Y-74500000D01*
X67861928Y-75500000D01*
X67874188Y-75624482D01*
X67910498Y-75744180D01*
X67969463Y-75854494D01*
X68048815Y-75951185D01*
X68108296Y-76000000D01*
X68048815Y-76048815D01*
X67985659Y-76125771D01*
X67968386Y-76111595D01*
X67814850Y-76029528D01*
X67648254Y-75978992D01*
X67475000Y-75961928D01*
X66525000Y-75961928D01*
X66351746Y-75978992D01*
X66185150Y-76029528D01*
X66031614Y-76111595D01*
X65897038Y-76222038D01*
X65786595Y-76356614D01*
X65704528Y-76510150D01*
X65653992Y-76676746D01*
X65636928Y-76850000D01*
X65636928Y-77350000D01*
X65653992Y-77523254D01*
X65704528Y-77689850D01*
X65786595Y-77843386D01*
X65897038Y-77977962D01*
X65903594Y-77983342D01*
X65823815Y-78048815D01*
X65744463Y-78145506D01*
X65685498Y-78255820D01*
X65649188Y-78375518D01*
X65636928Y-78500000D01*
X65640000Y-78714250D01*
X65798750Y-78873000D01*
X66873000Y-78873000D01*
X66873000Y-78853000D01*
X67127000Y-78853000D01*
X67127000Y-78873000D01*
X67147000Y-78873000D01*
X67147000Y-79127000D01*
X67127000Y-79127000D01*
X67127000Y-79976250D01*
X67285750Y-80135000D01*
X67725000Y-80138072D01*
X67849482Y-80125812D01*
X67969180Y-80089502D01*
X68055383Y-80043425D01*
X68048815Y-80048815D01*
X67969463Y-80145506D01*
X67910498Y-80255820D01*
X67874188Y-80375518D01*
X67861928Y-80500000D01*
X67861928Y-81500000D01*
X67874188Y-81624482D01*
X67910498Y-81744180D01*
X67969463Y-81854494D01*
X68048815Y-81951185D01*
X68108296Y-82000000D01*
X68048815Y-82048815D01*
X67969463Y-82145506D01*
X67910498Y-82255820D01*
X67874188Y-82375518D01*
X67861928Y-82500000D01*
X67861928Y-83500000D01*
X67874188Y-83624482D01*
X67910498Y-83744180D01*
X67969463Y-83854494D01*
X68048815Y-83951185D01*
X68145506Y-84030537D01*
X68255820Y-84089502D01*
X68375518Y-84125812D01*
X68500000Y-84138072D01*
X70500000Y-84138072D01*
X70624482Y-84125812D01*
X70744180Y-84089502D01*
X70854494Y-84030537D01*
X70951185Y-83951185D01*
X71030537Y-83854494D01*
X71089502Y-83744180D01*
X71125812Y-83624482D01*
X71138072Y-83500000D01*
X71138072Y-82500000D01*
X71125812Y-82375518D01*
X71089502Y-82255820D01*
X71030537Y-82145506D01*
X70951185Y-82048815D01*
X70891704Y-82000000D01*
X70951185Y-81951185D01*
X71030537Y-81854494D01*
X71081046Y-81760000D01*
X71796289Y-81760000D01*
X71840226Y-81803937D01*
X72009744Y-81917205D01*
X72198102Y-81995226D01*
X72398061Y-82035000D01*
X72601939Y-82035000D01*
X72801898Y-81995226D01*
X72990256Y-81917205D01*
X73159774Y-81803937D01*
X73303937Y-81659774D01*
X73417205Y-81490256D01*
X73495226Y-81301898D01*
X73535000Y-81101939D01*
X73535000Y-80898061D01*
X73495226Y-80698102D01*
X73417205Y-80509744D01*
X73303937Y-80340226D01*
X73159774Y-80196063D01*
X72990256Y-80082795D01*
X72801898Y-80004774D01*
X72777897Y-80000000D01*
X72801898Y-79995226D01*
X72990256Y-79917205D01*
X73159774Y-79803937D01*
X73303937Y-79659774D01*
X73417205Y-79490256D01*
X73495226Y-79301898D01*
X73535000Y-79101939D01*
X73535000Y-78898061D01*
X73495226Y-78698102D01*
X73417205Y-78509744D01*
X73303937Y-78340226D01*
X73159774Y-78196063D01*
X72990256Y-78082795D01*
X72801898Y-78004774D01*
X72601939Y-77965000D01*
X72398061Y-77965000D01*
X72198102Y-78004774D01*
X72009744Y-78082795D01*
X71840226Y-78196063D01*
X71796289Y-78240000D01*
X71081046Y-78240000D01*
X71030537Y-78145506D01*
X70951185Y-78048815D01*
X70891704Y-78000000D01*
X70951185Y-77951185D01*
X71030537Y-77854494D01*
X71081046Y-77760000D01*
X73685199Y-77760000D01*
X75590001Y-79664803D01*
X75590000Y-87961928D01*
X75350000Y-87961928D01*
X75225518Y-87974188D01*
X75105820Y-88010498D01*
X74995506Y-88069463D01*
X74898815Y-88148815D01*
X74819463Y-88245506D01*
X74760498Y-88355820D01*
X74724188Y-88475518D01*
X74711928Y-88600000D01*
X74711928Y-92400000D01*
X74724188Y-92524482D01*
X74760498Y-92644180D01*
X74819463Y-92754494D01*
X74898815Y-92851185D01*
X74995506Y-92930537D01*
X75105820Y-92989502D01*
X75225518Y-93025812D01*
X75350000Y-93038072D01*
X77350000Y-93038072D01*
X77474482Y-93025812D01*
X77594180Y-92989502D01*
X77704494Y-92930537D01*
X77801185Y-92851185D01*
X77880537Y-92754494D01*
X77939502Y-92644180D01*
X77975812Y-92524482D01*
X77988072Y-92400000D01*
X77988072Y-89586729D01*
X80314802Y-87260000D01*
X81044063Y-87260000D01*
X81024188Y-87325518D01*
X81011928Y-87450000D01*
X81011928Y-87493188D01*
X81007753Y-87494454D01*
X80875724Y-87565026D01*
X80875722Y-87565027D01*
X80875723Y-87565027D01*
X80788996Y-87636201D01*
X80788992Y-87636205D01*
X80759999Y-87659999D01*
X80736205Y-87688992D01*
X78988998Y-89436201D01*
X78960000Y-89459999D01*
X78936202Y-89488997D01*
X78936201Y-89488998D01*
X78865026Y-89575724D01*
X78794454Y-89707754D01*
X78778606Y-89760000D01*
X78759136Y-89824188D01*
X78750998Y-89851015D01*
X78736324Y-90000000D01*
X78740001Y-90037332D01*
X78740000Y-92235198D01*
X76334839Y-94640359D01*
X76300000Y-94636928D01*
X75800000Y-94636928D01*
X75765161Y-94640359D01*
X73938072Y-92813271D01*
X73938072Y-91900000D01*
X73925812Y-91775518D01*
X73889502Y-91655820D01*
X73830537Y-91545506D01*
X73751185Y-91448815D01*
X73654494Y-91369463D01*
X73544180Y-91310498D01*
X73424482Y-91274188D01*
X73382175Y-91270021D01*
X73402962Y-91252962D01*
X73513405Y-91118386D01*
X73595472Y-90964850D01*
X73646008Y-90798254D01*
X73663072Y-90625000D01*
X73663072Y-89375000D01*
X73646008Y-89201746D01*
X73595472Y-89035150D01*
X73513405Y-88881614D01*
X73402962Y-88747038D01*
X73268386Y-88636595D01*
X73114850Y-88554528D01*
X72948254Y-88503992D01*
X72775000Y-88486928D01*
X72025000Y-88486928D01*
X71851746Y-88503992D01*
X71685150Y-88554528D01*
X71531614Y-88636595D01*
X71397038Y-88747038D01*
X71286595Y-88881614D01*
X71204528Y-89035150D01*
X71153992Y-89201746D01*
X71136928Y-89375000D01*
X71136928Y-90625000D01*
X71153992Y-90798254D01*
X71204528Y-90964850D01*
X71286595Y-91118386D01*
X71397038Y-91252962D01*
X71464090Y-91307989D01*
X71455820Y-91310498D01*
X71345506Y-91369463D01*
X71248815Y-91448815D01*
X71169463Y-91545506D01*
X71110498Y-91655820D01*
X71074188Y-91775518D01*
X71061928Y-91900000D01*
X71061928Y-94100000D01*
X71074188Y-94224482D01*
X71110498Y-94344180D01*
X71169463Y-94454494D01*
X71206809Y-94500000D01*
X71169463Y-94545506D01*
X71110498Y-94655820D01*
X71074188Y-94775518D01*
X71061928Y-94900000D01*
X71065000Y-95714250D01*
X71223750Y-95873000D01*
X72373000Y-95873000D01*
X72373000Y-95853000D01*
X72627000Y-95853000D01*
X72627000Y-95873000D01*
X73776250Y-95873000D01*
X73935000Y-95714250D01*
X73937836Y-94962637D01*
X74911928Y-95936730D01*
X74911928Y-96475000D01*
X74928992Y-96648254D01*
X74979528Y-96814850D01*
X75061595Y-96968386D01*
X75172038Y-97102962D01*
X75306614Y-97213405D01*
X75460150Y-97295472D01*
X75626746Y-97346008D01*
X75800000Y-97363072D01*
X76300000Y-97363072D01*
X76473254Y-97346008D01*
X76639850Y-97295472D01*
X76793386Y-97213405D01*
X76927962Y-97102962D01*
X76933342Y-97096406D01*
X76998815Y-97176185D01*
X77095506Y-97255537D01*
X77205820Y-97314502D01*
X77325518Y-97350812D01*
X77450000Y-97363072D01*
X77664250Y-97360000D01*
X77823000Y-97201250D01*
X77823000Y-96127000D01*
X78077000Y-96127000D01*
X78077000Y-97201250D01*
X78235750Y-97360000D01*
X78450000Y-97363072D01*
X78574482Y-97350812D01*
X78694180Y-97314502D01*
X78804494Y-97255537D01*
X78901185Y-97176185D01*
X78980537Y-97079494D01*
X79039502Y-96969180D01*
X79075812Y-96849482D01*
X79088072Y-96725000D01*
X79085000Y-96285750D01*
X78926250Y-96127000D01*
X78077000Y-96127000D01*
X77823000Y-96127000D01*
X77803000Y-96127000D01*
X77803000Y-95900524D01*
X105990000Y-95900524D01*
X105990000Y-96099476D01*
X106028814Y-96294606D01*
X106104950Y-96478414D01*
X106215482Y-96643837D01*
X106356163Y-96784518D01*
X106521586Y-96895050D01*
X106705394Y-96971186D01*
X106900524Y-97010000D01*
X107099476Y-97010000D01*
X107294606Y-96971186D01*
X107478414Y-96895050D01*
X107643837Y-96784518D01*
X107784518Y-96643837D01*
X107895050Y-96478414D01*
X107971186Y-96294606D01*
X108010000Y-96099476D01*
X108010000Y-95900524D01*
X107971186Y-95705394D01*
X107895050Y-95521586D01*
X107784518Y-95356163D01*
X107643837Y-95215482D01*
X107478414Y-95104950D01*
X107294606Y-95028814D01*
X107099476Y-94990000D01*
X106900524Y-94990000D01*
X106705394Y-95028814D01*
X106521586Y-95104950D01*
X106356163Y-95215482D01*
X106215482Y-95356163D01*
X106104950Y-95521586D01*
X106028814Y-95705394D01*
X105990000Y-95900524D01*
X77803000Y-95900524D01*
X77803000Y-95873000D01*
X77823000Y-95873000D01*
X77823000Y-95853000D01*
X78077000Y-95853000D01*
X78077000Y-95873000D01*
X78926250Y-95873000D01*
X79085000Y-95714250D01*
X79088072Y-95275000D01*
X79075812Y-95150518D01*
X79039502Y-95030820D01*
X78996303Y-94950000D01*
X84136928Y-94950000D01*
X84149188Y-95074482D01*
X84185498Y-95194180D01*
X84244463Y-95304494D01*
X84323815Y-95401185D01*
X84420506Y-95480537D01*
X84530820Y-95539502D01*
X84650518Y-95575812D01*
X84775000Y-95588072D01*
X85214250Y-95585000D01*
X85373000Y-95426250D01*
X85373000Y-94577000D01*
X85627000Y-94577000D01*
X85627000Y-95426250D01*
X85785750Y-95585000D01*
X86225000Y-95588072D01*
X86349482Y-95575812D01*
X86469180Y-95539502D01*
X86579494Y-95480537D01*
X86676185Y-95401185D01*
X86755537Y-95304494D01*
X86814502Y-95194180D01*
X86835487Y-95125000D01*
X89211928Y-95125000D01*
X89224188Y-95249482D01*
X89260498Y-95369180D01*
X89319463Y-95479494D01*
X89398815Y-95576185D01*
X89495506Y-95655537D01*
X89605820Y-95714502D01*
X89725518Y-95750812D01*
X89850000Y-95763072D01*
X90214250Y-95760000D01*
X90373000Y-95601250D01*
X90373000Y-94589500D01*
X90627000Y-94589500D01*
X90627000Y-95601250D01*
X90785750Y-95760000D01*
X91150000Y-95763072D01*
X91274482Y-95750812D01*
X91394180Y-95714502D01*
X91504494Y-95655537D01*
X91601185Y-95576185D01*
X91680537Y-95479494D01*
X91739502Y-95369180D01*
X91775812Y-95249482D01*
X91788072Y-95125000D01*
X93211928Y-95125000D01*
X93224188Y-95249482D01*
X93260498Y-95369180D01*
X93319463Y-95479494D01*
X93398815Y-95576185D01*
X93495506Y-95655537D01*
X93605820Y-95714502D01*
X93725518Y-95750812D01*
X93850000Y-95763072D01*
X94214250Y-95760000D01*
X94373000Y-95601250D01*
X94373000Y-94589500D01*
X94627000Y-94589500D01*
X94627000Y-95601250D01*
X94785750Y-95760000D01*
X95150000Y-95763072D01*
X95274482Y-95750812D01*
X95394180Y-95714502D01*
X95504494Y-95655537D01*
X95601185Y-95576185D01*
X95680537Y-95479494D01*
X95739502Y-95369180D01*
X95775812Y-95249482D01*
X95788072Y-95125000D01*
X95785000Y-94748250D01*
X95626250Y-94589500D01*
X94627000Y-94589500D01*
X94373000Y-94589500D01*
X93373750Y-94589500D01*
X93215000Y-94748250D01*
X93211928Y-95125000D01*
X91788072Y-95125000D01*
X91785000Y-94748250D01*
X91626250Y-94589500D01*
X90627000Y-94589500D01*
X90373000Y-94589500D01*
X89373750Y-94589500D01*
X89215000Y-94748250D01*
X89211928Y-95125000D01*
X86835487Y-95125000D01*
X86850812Y-95074482D01*
X86863072Y-94950000D01*
X86860000Y-94735750D01*
X86701250Y-94577000D01*
X85627000Y-94577000D01*
X85373000Y-94577000D01*
X84298750Y-94577000D01*
X84140000Y-94735750D01*
X84136928Y-94950000D01*
X78996303Y-94950000D01*
X78980537Y-94920506D01*
X78901185Y-94823815D01*
X78804494Y-94744463D01*
X78694180Y-94685498D01*
X78574482Y-94649188D01*
X78484478Y-94640324D01*
X79574802Y-93550000D01*
X81011928Y-93550000D01*
X81024188Y-93674482D01*
X81060498Y-93794180D01*
X81119463Y-93904494D01*
X81198815Y-94001185D01*
X81295506Y-94080537D01*
X81405820Y-94139502D01*
X81525518Y-94175812D01*
X81650000Y-94188072D01*
X82364250Y-94185000D01*
X82523000Y-94026250D01*
X82523000Y-92927000D01*
X81173750Y-92927000D01*
X81015000Y-93085750D01*
X81011928Y-93550000D01*
X79574802Y-93550000D01*
X80011004Y-93113798D01*
X80040001Y-93090001D01*
X80134974Y-92974276D01*
X80205546Y-92842247D01*
X80249003Y-92698986D01*
X80260000Y-92587333D01*
X80260000Y-92587325D01*
X80263676Y-92550000D01*
X80260000Y-92512675D01*
X80260000Y-90314801D01*
X81056804Y-89517998D01*
X81024188Y-89625518D01*
X81011928Y-89750000D01*
X81011928Y-91250000D01*
X81024188Y-91374482D01*
X81060498Y-91494180D01*
X81119463Y-91604494D01*
X81156809Y-91650000D01*
X81119463Y-91695506D01*
X81060498Y-91805820D01*
X81024188Y-91925518D01*
X81011928Y-92050000D01*
X81015000Y-92514250D01*
X81173750Y-92673000D01*
X82523000Y-92673000D01*
X82523000Y-92653000D01*
X82777000Y-92653000D01*
X82777000Y-92673000D01*
X82797000Y-92673000D01*
X82797000Y-92927000D01*
X82777000Y-92927000D01*
X82777000Y-94026250D01*
X82935750Y-94185000D01*
X83650000Y-94188072D01*
X83774482Y-94175812D01*
X83894180Y-94139502D01*
X84004494Y-94080537D01*
X84101185Y-94001185D01*
X84137036Y-93957501D01*
X84140000Y-94164250D01*
X84298750Y-94323000D01*
X85373000Y-94323000D01*
X85373000Y-94303000D01*
X85627000Y-94303000D01*
X85627000Y-94323000D01*
X86701250Y-94323000D01*
X86860000Y-94164250D01*
X86863072Y-93950000D01*
X86850812Y-93825518D01*
X86814502Y-93705820D01*
X86755537Y-93595506D01*
X86676185Y-93498815D01*
X86596406Y-93433342D01*
X86602962Y-93427962D01*
X86713405Y-93293386D01*
X86795472Y-93139850D01*
X86846008Y-92973254D01*
X86863072Y-92800000D01*
X86863072Y-92300000D01*
X86846008Y-92126746D01*
X86795472Y-91960150D01*
X86713405Y-91806614D01*
X86602962Y-91672038D01*
X86468386Y-91561595D01*
X86314850Y-91479528D01*
X86148254Y-91428992D01*
X85975000Y-91411928D01*
X85436730Y-91411928D01*
X85284802Y-91260000D01*
X85737677Y-91260000D01*
X85774999Y-91263676D01*
X85812321Y-91260000D01*
X85812332Y-91260000D01*
X85923985Y-91249003D01*
X86067246Y-91205546D01*
X86199275Y-91134974D01*
X86315000Y-91040001D01*
X86338803Y-91010997D01*
X89176909Y-88172892D01*
X89161928Y-88324999D01*
X89161928Y-88850001D01*
X89178992Y-89023255D01*
X89229528Y-89189851D01*
X89311595Y-89343387D01*
X89422038Y-89477962D01*
X89448891Y-89500000D01*
X89422038Y-89522038D01*
X89311595Y-89656613D01*
X89229528Y-89810149D01*
X89178992Y-89976745D01*
X89161928Y-90149999D01*
X89161928Y-90675001D01*
X89178992Y-90848255D01*
X89229528Y-91014851D01*
X89311595Y-91168387D01*
X89422038Y-91302962D01*
X89556613Y-91413405D01*
X89567109Y-91419015D01*
X89472038Y-91497038D01*
X89361595Y-91631614D01*
X89279528Y-91785150D01*
X89228992Y-91951746D01*
X89211928Y-92125000D01*
X89211928Y-92950000D01*
X89228992Y-93123254D01*
X89279528Y-93289850D01*
X89345664Y-93413580D01*
X89319463Y-93445506D01*
X89260498Y-93555820D01*
X89224188Y-93675518D01*
X89211928Y-93800000D01*
X89215000Y-94176750D01*
X89373750Y-94335500D01*
X90373000Y-94335500D01*
X90373000Y-94315500D01*
X90627000Y-94315500D01*
X90627000Y-94335500D01*
X91626250Y-94335500D01*
X91785000Y-94176750D01*
X91788072Y-93800000D01*
X91775812Y-93675518D01*
X91739502Y-93555820D01*
X91680537Y-93445506D01*
X91654336Y-93413580D01*
X91720472Y-93289850D01*
X91771008Y-93123254D01*
X91788072Y-92950000D01*
X91788072Y-92125000D01*
X91771008Y-91951746D01*
X91720472Y-91785150D01*
X91638405Y-91631614D01*
X91527962Y-91497038D01*
X91432891Y-91419015D01*
X91443387Y-91413405D01*
X91577962Y-91302962D01*
X91688405Y-91168387D01*
X91770472Y-91014851D01*
X91821008Y-90848255D01*
X91838072Y-90675001D01*
X91838072Y-90149999D01*
X91821008Y-89976745D01*
X91770472Y-89810149D01*
X91688405Y-89656613D01*
X91577962Y-89522038D01*
X91551109Y-89500000D01*
X91577962Y-89477962D01*
X91688405Y-89343387D01*
X91770472Y-89189851D01*
X91821008Y-89023255D01*
X91838072Y-88850001D01*
X91838072Y-88324999D01*
X91821008Y-88151745D01*
X91770472Y-87985149D01*
X91688405Y-87831613D01*
X91577962Y-87697038D01*
X91524767Y-87653382D01*
X91535000Y-87601939D01*
X91535000Y-87534999D01*
X93465000Y-87534999D01*
X93465000Y-87601939D01*
X93475233Y-87653382D01*
X93422038Y-87697038D01*
X93311595Y-87831613D01*
X93229528Y-87985149D01*
X93178992Y-88151745D01*
X93161928Y-88324999D01*
X93161928Y-88850001D01*
X93178992Y-89023255D01*
X93229528Y-89189851D01*
X93311595Y-89343387D01*
X93422038Y-89477962D01*
X93448891Y-89500000D01*
X93422038Y-89522038D01*
X93311595Y-89656613D01*
X93229528Y-89810149D01*
X93178992Y-89976745D01*
X93161928Y-90149999D01*
X93161928Y-90675001D01*
X93178992Y-90848255D01*
X93229528Y-91014851D01*
X93311595Y-91168387D01*
X93422038Y-91302962D01*
X93556613Y-91413405D01*
X93567109Y-91419015D01*
X93472038Y-91497038D01*
X93361595Y-91631614D01*
X93279528Y-91785150D01*
X93228992Y-91951746D01*
X93211928Y-92125000D01*
X93211928Y-92950000D01*
X93228992Y-93123254D01*
X93279528Y-93289850D01*
X93345664Y-93413580D01*
X93319463Y-93445506D01*
X93260498Y-93555820D01*
X93224188Y-93675518D01*
X93211928Y-93800000D01*
X93215000Y-94176750D01*
X93373750Y-94335500D01*
X94373000Y-94335500D01*
X94373000Y-94315500D01*
X94627000Y-94315500D01*
X94627000Y-94335500D01*
X95626250Y-94335500D01*
X95785000Y-94176750D01*
X95788072Y-93800000D01*
X95775812Y-93675518D01*
X95739502Y-93555820D01*
X95680537Y-93445506D01*
X95654336Y-93413580D01*
X95720472Y-93289850D01*
X95771008Y-93123254D01*
X95788072Y-92950000D01*
X95788072Y-92125000D01*
X95771008Y-91951746D01*
X95720472Y-91785150D01*
X95638405Y-91631614D01*
X95527962Y-91497038D01*
X95432891Y-91419015D01*
X95443387Y-91413405D01*
X95577962Y-91302962D01*
X95688405Y-91168387D01*
X95770472Y-91014851D01*
X95821008Y-90848255D01*
X95838072Y-90675001D01*
X95838072Y-90149999D01*
X95821008Y-89976745D01*
X95770472Y-89810149D01*
X95688405Y-89656613D01*
X95577962Y-89522038D01*
X95551109Y-89500000D01*
X95577962Y-89477962D01*
X95688405Y-89343387D01*
X95716334Y-89291135D01*
X96386201Y-89961003D01*
X96409999Y-89990001D01*
X96438997Y-90013799D01*
X96525723Y-90084974D01*
X96591725Y-90120253D01*
X96657753Y-90155546D01*
X96801014Y-90199003D01*
X96912667Y-90210000D01*
X96912677Y-90210000D01*
X96950000Y-90213676D01*
X96987323Y-90210000D01*
X97189919Y-90210000D01*
X97245406Y-90255537D01*
X97355720Y-90314502D01*
X97475418Y-90350812D01*
X97599900Y-90363072D01*
X98799900Y-90363072D01*
X98924382Y-90350812D01*
X99044080Y-90314502D01*
X99154394Y-90255537D01*
X99251085Y-90176185D01*
X99330437Y-90079494D01*
X99389402Y-89969180D01*
X99390349Y-89966058D01*
X99409999Y-89990001D01*
X99438997Y-90013799D01*
X99525723Y-90084974D01*
X99591725Y-90120253D01*
X99657753Y-90155546D01*
X99762473Y-90187312D01*
X99845606Y-90255537D01*
X99955920Y-90314502D01*
X100075618Y-90350812D01*
X100200100Y-90363072D01*
X101400100Y-90363072D01*
X101524582Y-90350812D01*
X101644280Y-90314502D01*
X101754594Y-90255537D01*
X101851285Y-90176185D01*
X101930637Y-90079494D01*
X101989602Y-89969180D01*
X102025912Y-89849482D01*
X102038172Y-89725000D01*
X102038172Y-89175000D01*
X102025912Y-89050518D01*
X102004182Y-88978884D01*
X102436928Y-89411630D01*
X102436928Y-89450001D01*
X102453992Y-89623255D01*
X102504528Y-89789851D01*
X102586595Y-89943387D01*
X102610298Y-89972269D01*
X102561595Y-90031614D01*
X102479528Y-90185150D01*
X102428992Y-90351746D01*
X102411928Y-90525000D01*
X102411928Y-91475000D01*
X102428992Y-91648254D01*
X102479528Y-91814850D01*
X102561595Y-91968386D01*
X102672038Y-92102962D01*
X102806614Y-92213405D01*
X102960150Y-92295472D01*
X103126746Y-92346008D01*
X103300000Y-92363072D01*
X103800000Y-92363072D01*
X103973254Y-92346008D01*
X104139850Y-92295472D01*
X104293386Y-92213405D01*
X104427962Y-92102962D01*
X104433342Y-92096406D01*
X104498815Y-92176185D01*
X104595506Y-92255537D01*
X104705820Y-92314502D01*
X104825518Y-92350812D01*
X104950000Y-92363072D01*
X105164250Y-92360000D01*
X105323000Y-92201250D01*
X105323000Y-91127000D01*
X105577000Y-91127000D01*
X105577000Y-92201250D01*
X105735750Y-92360000D01*
X105950000Y-92363072D01*
X106074482Y-92350812D01*
X106194180Y-92314502D01*
X106304494Y-92255537D01*
X106401185Y-92176185D01*
X106480537Y-92079494D01*
X106539502Y-91969180D01*
X106575654Y-91850000D01*
X111011928Y-91850000D01*
X111024188Y-91974482D01*
X111060498Y-92094180D01*
X111119463Y-92204494D01*
X111198815Y-92301185D01*
X111295506Y-92380537D01*
X111405820Y-92439502D01*
X111525518Y-92475812D01*
X111650000Y-92488072D01*
X112214250Y-92485000D01*
X112373000Y-92326250D01*
X112373000Y-91127000D01*
X112627000Y-91127000D01*
X112627000Y-92326250D01*
X112785750Y-92485000D01*
X113350000Y-92488072D01*
X113474482Y-92475812D01*
X113594180Y-92439502D01*
X113704494Y-92380537D01*
X113801185Y-92301185D01*
X113880537Y-92204494D01*
X113939502Y-92094180D01*
X113975812Y-91974482D01*
X113988072Y-91850000D01*
X113985000Y-91285750D01*
X113826250Y-91127000D01*
X112627000Y-91127000D01*
X112373000Y-91127000D01*
X111173750Y-91127000D01*
X111015000Y-91285750D01*
X111011928Y-91850000D01*
X106575654Y-91850000D01*
X106575812Y-91849482D01*
X106588072Y-91725000D01*
X106585000Y-91285750D01*
X106426250Y-91127000D01*
X105577000Y-91127000D01*
X105323000Y-91127000D01*
X105303000Y-91127000D01*
X105303000Y-90873000D01*
X105323000Y-90873000D01*
X105323000Y-90853000D01*
X105577000Y-90853000D01*
X105577000Y-90873000D01*
X106426250Y-90873000D01*
X106585000Y-90714250D01*
X106588072Y-90275000D01*
X106575812Y-90150518D01*
X106539502Y-90030820D01*
X106480537Y-89920506D01*
X106447290Y-89879994D01*
X106495472Y-89789851D01*
X106546008Y-89623255D01*
X106563072Y-89450001D01*
X106563072Y-88549999D01*
X106546008Y-88376745D01*
X106516671Y-88280034D01*
X106651745Y-88321008D01*
X106824999Y-88338072D01*
X107350001Y-88338072D01*
X107523255Y-88321008D01*
X107689851Y-88270472D01*
X107843387Y-88188405D01*
X107977962Y-88077962D01*
X108000000Y-88051109D01*
X108022038Y-88077962D01*
X108156613Y-88188405D01*
X108310149Y-88270472D01*
X108476745Y-88321008D01*
X108649999Y-88338072D01*
X109175001Y-88338072D01*
X109348255Y-88321008D01*
X109514851Y-88270472D01*
X109668387Y-88188405D01*
X109802962Y-88077962D01*
X109913405Y-87943387D01*
X109995472Y-87789851D01*
X110004527Y-87760000D01*
X110725199Y-87760000D01*
X111058791Y-88093592D01*
X111015000Y-88313740D01*
X111015000Y-88606260D01*
X111072068Y-88893158D01*
X111184010Y-89163411D01*
X111346525Y-89406632D01*
X111478380Y-89538487D01*
X111405820Y-89560498D01*
X111295506Y-89619463D01*
X111198815Y-89698815D01*
X111119463Y-89795506D01*
X111060498Y-89905820D01*
X111024188Y-90025518D01*
X111011928Y-90150000D01*
X111015000Y-90714250D01*
X111173750Y-90873000D01*
X112373000Y-90873000D01*
X112373000Y-90853000D01*
X112627000Y-90853000D01*
X112627000Y-90873000D01*
X113826250Y-90873000D01*
X113985000Y-90714250D01*
X113988072Y-90150000D01*
X113975812Y-90025518D01*
X113939502Y-89905820D01*
X113880537Y-89795506D01*
X113801185Y-89698815D01*
X113704494Y-89619463D01*
X113594180Y-89560498D01*
X113521620Y-89538487D01*
X113653475Y-89406632D01*
X113815990Y-89163411D01*
X113927932Y-88893158D01*
X113985000Y-88606260D01*
X113985000Y-88313740D01*
X113927932Y-88026842D01*
X113815990Y-87756589D01*
X113653475Y-87513368D01*
X113446632Y-87306525D01*
X113272240Y-87190000D01*
X113446632Y-87073475D01*
X113653475Y-86866632D01*
X113815990Y-86623411D01*
X113927932Y-86353158D01*
X113985000Y-86066260D01*
X113985000Y-85773740D01*
X113927932Y-85486842D01*
X113815990Y-85216589D01*
X113653475Y-84973368D01*
X113446632Y-84766525D01*
X113203411Y-84604010D01*
X112933158Y-84492068D01*
X112646260Y-84435000D01*
X112353740Y-84435000D01*
X112135166Y-84478477D01*
X112120001Y-84459999D01*
X112004276Y-84365026D01*
X111872247Y-84294454D01*
X111728986Y-84250997D01*
X111617333Y-84240000D01*
X111617322Y-84240000D01*
X111580000Y-84236324D01*
X111542678Y-84240000D01*
X98703711Y-84240000D01*
X98659774Y-84196063D01*
X98490256Y-84082795D01*
X98301898Y-84004774D01*
X98101939Y-83965000D01*
X97898061Y-83965000D01*
X97760000Y-83992462D01*
X97760000Y-81050000D01*
X106061928Y-81050000D01*
X106074188Y-81174482D01*
X106110498Y-81294180D01*
X106169463Y-81404494D01*
X106248815Y-81501185D01*
X106345506Y-81580537D01*
X106455820Y-81639502D01*
X106575518Y-81675812D01*
X106700000Y-81688072D01*
X107714250Y-81685000D01*
X107873000Y-81526250D01*
X107873000Y-80627000D01*
X108127000Y-80627000D01*
X108127000Y-81526250D01*
X108285750Y-81685000D01*
X109300000Y-81688072D01*
X109424482Y-81675812D01*
X109544180Y-81639502D01*
X109654494Y-81580537D01*
X109751185Y-81501185D01*
X109830537Y-81404494D01*
X109889502Y-81294180D01*
X109925812Y-81174482D01*
X109938072Y-81050000D01*
X109936293Y-80896890D01*
X111058524Y-80896890D01*
X111103175Y-81044099D01*
X111228359Y-81306920D01*
X111402412Y-81540269D01*
X111618645Y-81735178D01*
X111868748Y-81884157D01*
X112143109Y-81981481D01*
X112373000Y-81860814D01*
X112373000Y-80667000D01*
X112627000Y-80667000D01*
X112627000Y-81860814D01*
X112856891Y-81981481D01*
X113131252Y-81884157D01*
X113381355Y-81735178D01*
X113597588Y-81540269D01*
X113771641Y-81306920D01*
X113896825Y-81044099D01*
X113941476Y-80896890D01*
X113820155Y-80667000D01*
X112627000Y-80667000D01*
X112373000Y-80667000D01*
X111179845Y-80667000D01*
X111058524Y-80896890D01*
X109936293Y-80896890D01*
X109935000Y-80785750D01*
X109776250Y-80627000D01*
X108127000Y-80627000D01*
X107873000Y-80627000D01*
X106223750Y-80627000D01*
X106065000Y-80785750D01*
X106061928Y-81050000D01*
X97760000Y-81050000D01*
X97760000Y-71037323D01*
X97761928Y-71017748D01*
X97761928Y-72800000D01*
X97774188Y-72924482D01*
X97810498Y-73044180D01*
X97869463Y-73154494D01*
X97948815Y-73251185D01*
X98045506Y-73330537D01*
X98155820Y-73389502D01*
X98275518Y-73425812D01*
X98400000Y-73438072D01*
X101600000Y-73438072D01*
X101724482Y-73425812D01*
X101844180Y-73389502D01*
X101954494Y-73330537D01*
X102051185Y-73251185D01*
X102130537Y-73154494D01*
X102189502Y-73044180D01*
X102225812Y-72924482D01*
X102238072Y-72800000D01*
X102238072Y-69600000D01*
X102225812Y-69475518D01*
X102189502Y-69355820D01*
X102130537Y-69245506D01*
X102051185Y-69148815D01*
X101954494Y-69069463D01*
X101844180Y-69010498D01*
X101724482Y-68974188D01*
X101600000Y-68961928D01*
X98400000Y-68961928D01*
X98275518Y-68974188D01*
X98155820Y-69010498D01*
X98045506Y-69069463D01*
X97948815Y-69148815D01*
X97869463Y-69245506D01*
X97810498Y-69355820D01*
X97774188Y-69475518D01*
X97761928Y-69600000D01*
X97761928Y-70982252D01*
X97760000Y-70962677D01*
X97760000Y-70962667D01*
X97749003Y-70851014D01*
X97705546Y-70707753D01*
X97704366Y-70705546D01*
X97634974Y-70575723D01*
X97563799Y-70488997D01*
X97540001Y-70459999D01*
X97511004Y-70436202D01*
X95063804Y-67989003D01*
X95040001Y-67959999D01*
X94924276Y-67865026D01*
X94792247Y-67794454D01*
X94648986Y-67750997D01*
X94537333Y-67740000D01*
X94537322Y-67740000D01*
X94500000Y-67736324D01*
X94462678Y-67740000D01*
X93899870Y-67740000D01*
X93889502Y-67705820D01*
X93830537Y-67595506D01*
X93752158Y-67500000D01*
X93830537Y-67404494D01*
X93889502Y-67294180D01*
X93925812Y-67174482D01*
X93938072Y-67050000D01*
X93938072Y-65950000D01*
X93925812Y-65825518D01*
X93889502Y-65705820D01*
X93865010Y-65660000D01*
X106134990Y-65660000D01*
X106110498Y-65705820D01*
X106074188Y-65825518D01*
X106061928Y-65950000D01*
X106061928Y-67050000D01*
X106074188Y-67174482D01*
X106110498Y-67294180D01*
X106169463Y-67404494D01*
X106247842Y-67500000D01*
X106169463Y-67595506D01*
X106110498Y-67705820D01*
X106074188Y-67825518D01*
X106061928Y-67950000D01*
X106061928Y-68630685D01*
X105990256Y-68582795D01*
X105801898Y-68504774D01*
X105601939Y-68465000D01*
X105398061Y-68465000D01*
X105198102Y-68504774D01*
X105009744Y-68582795D01*
X104840226Y-68696063D01*
X104696063Y-68840226D01*
X104582795Y-69009744D01*
X104504774Y-69198102D01*
X104465000Y-69398061D01*
X104465000Y-69601939D01*
X104504774Y-69801898D01*
X104582795Y-69990256D01*
X104696063Y-70159774D01*
X104840226Y-70303937D01*
X105009744Y-70417205D01*
X105198102Y-70495226D01*
X105398061Y-70535000D01*
X105460199Y-70535000D01*
X105936200Y-71011002D01*
X105959999Y-71040001D01*
X105988997Y-71063799D01*
X106069820Y-71130128D01*
X106070434Y-71136368D01*
X105990256Y-71082795D01*
X105801898Y-71004774D01*
X105601939Y-70965000D01*
X105398061Y-70965000D01*
X105198102Y-71004774D01*
X105009744Y-71082795D01*
X104840226Y-71196063D01*
X104696063Y-71340226D01*
X104582795Y-71509744D01*
X104504774Y-71698102D01*
X104465000Y-71898061D01*
X104465000Y-72101939D01*
X104504774Y-72301898D01*
X104582795Y-72490256D01*
X104696063Y-72659774D01*
X104840226Y-72803937D01*
X105009744Y-72917205D01*
X105198102Y-72995226D01*
X105398061Y-73035000D01*
X105455895Y-73035000D01*
X105459999Y-73040001D01*
X105575724Y-73134974D01*
X105707753Y-73205546D01*
X105851014Y-73249003D01*
X105962667Y-73260000D01*
X105962675Y-73260000D01*
X106000000Y-73263676D01*
X106037325Y-73260000D01*
X106100130Y-73260000D01*
X106110498Y-73294180D01*
X106169463Y-73404494D01*
X106247842Y-73500000D01*
X106169463Y-73595506D01*
X106110498Y-73705820D01*
X106100130Y-73740000D01*
X104703711Y-73740000D01*
X104659774Y-73696063D01*
X104490256Y-73582795D01*
X104301898Y-73504774D01*
X104101939Y-73465000D01*
X103898061Y-73465000D01*
X103698102Y-73504774D01*
X103509744Y-73582795D01*
X103340226Y-73696063D01*
X103196063Y-73840226D01*
X103082795Y-74009744D01*
X103004774Y-74198102D01*
X102965000Y-74398061D01*
X102965000Y-74601939D01*
X103004774Y-74801898D01*
X103082795Y-74990256D01*
X103196063Y-75159774D01*
X103340226Y-75303937D01*
X103509744Y-75417205D01*
X103698102Y-75495226D01*
X103722103Y-75500000D01*
X103698102Y-75504774D01*
X103509744Y-75582795D01*
X103340226Y-75696063D01*
X103196063Y-75840226D01*
X103082795Y-76009744D01*
X103004774Y-76198102D01*
X102965000Y-76398061D01*
X102965000Y-76601939D01*
X103004774Y-76801898D01*
X103082795Y-76990256D01*
X103196063Y-77159774D01*
X103340226Y-77303937D01*
X103509744Y-77417205D01*
X103698102Y-77495226D01*
X103898061Y-77535000D01*
X104101939Y-77535000D01*
X104301898Y-77495226D01*
X104490256Y-77417205D01*
X104659774Y-77303937D01*
X104703711Y-77260000D01*
X106100130Y-77260000D01*
X106110498Y-77294180D01*
X106169463Y-77404494D01*
X106247842Y-77500000D01*
X106169463Y-77595506D01*
X106127308Y-77674370D01*
X105990256Y-77582795D01*
X105801898Y-77504774D01*
X105601939Y-77465000D01*
X105398061Y-77465000D01*
X105198102Y-77504774D01*
X105009744Y-77582795D01*
X104840226Y-77696063D01*
X104696063Y-77840226D01*
X104582795Y-78009744D01*
X104504774Y-78198102D01*
X104465000Y-78398061D01*
X104465000Y-78601939D01*
X104504774Y-78801898D01*
X104582795Y-78990256D01*
X104696063Y-79159774D01*
X104840226Y-79303937D01*
X105009744Y-79417205D01*
X105198102Y-79495226D01*
X105398061Y-79535000D01*
X105601939Y-79535000D01*
X105801898Y-79495226D01*
X105990256Y-79417205D01*
X106127308Y-79325630D01*
X106169463Y-79404494D01*
X106247842Y-79500000D01*
X106169463Y-79595506D01*
X106110498Y-79705820D01*
X106074188Y-79825518D01*
X106061928Y-79950000D01*
X106065000Y-80214250D01*
X106223750Y-80373000D01*
X107873000Y-80373000D01*
X107873000Y-80353000D01*
X108127000Y-80353000D01*
X108127000Y-80373000D01*
X109776250Y-80373000D01*
X109935000Y-80214250D01*
X109938072Y-79950000D01*
X109925812Y-79825518D01*
X109889502Y-79705820D01*
X109830537Y-79595506D01*
X109752158Y-79500000D01*
X109830537Y-79404494D01*
X109889502Y-79294180D01*
X109925812Y-79174482D01*
X109938072Y-79050000D01*
X109938072Y-77950000D01*
X109925812Y-77825518D01*
X109889502Y-77705820D01*
X109830537Y-77595506D01*
X109752158Y-77500000D01*
X109830537Y-77404494D01*
X109889502Y-77294180D01*
X109925812Y-77174482D01*
X109938072Y-77050000D01*
X109938072Y-76512874D01*
X111011928Y-77586730D01*
X111011928Y-78850000D01*
X111024188Y-78974482D01*
X111060498Y-79094180D01*
X111119463Y-79204494D01*
X111198815Y-79301185D01*
X111295506Y-79380537D01*
X111405820Y-79439502D01*
X111486466Y-79463966D01*
X111402412Y-79539731D01*
X111228359Y-79773080D01*
X111103175Y-80035901D01*
X111058524Y-80183110D01*
X111179845Y-80413000D01*
X112373000Y-80413000D01*
X112373000Y-80393000D01*
X112627000Y-80393000D01*
X112627000Y-80413000D01*
X113820155Y-80413000D01*
X113941476Y-80183110D01*
X113896825Y-80035901D01*
X113771641Y-79773080D01*
X113597588Y-79539731D01*
X113513534Y-79463966D01*
X113594180Y-79439502D01*
X113704494Y-79380537D01*
X113801185Y-79301185D01*
X113880537Y-79204494D01*
X113939502Y-79094180D01*
X113975812Y-78974482D01*
X113988072Y-78850000D01*
X113988072Y-77150000D01*
X113975812Y-77025518D01*
X113939502Y-76905820D01*
X113880537Y-76795506D01*
X113801185Y-76698815D01*
X113704494Y-76619463D01*
X113594180Y-76560498D01*
X113474482Y-76524188D01*
X113350000Y-76511928D01*
X112086730Y-76511928D01*
X109938072Y-74363271D01*
X109938072Y-73950000D01*
X109925812Y-73825518D01*
X109889502Y-73705820D01*
X109830537Y-73595506D01*
X109752158Y-73500000D01*
X109830537Y-73404494D01*
X109889502Y-73294180D01*
X109925812Y-73174482D01*
X109938072Y-73050000D01*
X109938072Y-71950000D01*
X109925812Y-71825518D01*
X109889502Y-71705820D01*
X109830537Y-71595506D01*
X109752158Y-71500000D01*
X109830537Y-71404494D01*
X109889502Y-71294180D01*
X109925812Y-71174482D01*
X109938072Y-71050000D01*
X109938072Y-70513282D01*
X109960000Y-70540001D01*
X109988998Y-70563799D01*
X111011928Y-71586730D01*
X111011928Y-72850000D01*
X111024188Y-72974482D01*
X111060498Y-73094180D01*
X111119463Y-73204494D01*
X111198815Y-73301185D01*
X111295506Y-73380537D01*
X111405820Y-73439502D01*
X111525518Y-73475812D01*
X111650000Y-73488072D01*
X113350000Y-73488072D01*
X113474482Y-73475812D01*
X113594180Y-73439502D01*
X113704494Y-73380537D01*
X113801185Y-73301185D01*
X113880537Y-73204494D01*
X113939502Y-73094180D01*
X113975812Y-72974482D01*
X113988072Y-72850000D01*
X113988072Y-71150000D01*
X113975812Y-71025518D01*
X113939502Y-70905820D01*
X113880537Y-70795506D01*
X113801185Y-70698815D01*
X113704494Y-70619463D01*
X113594180Y-70560498D01*
X113521620Y-70538487D01*
X113653475Y-70406632D01*
X113815990Y-70163411D01*
X113927932Y-69893158D01*
X113985000Y-69606260D01*
X113985000Y-69313740D01*
X113927932Y-69026842D01*
X113815990Y-68756589D01*
X113653475Y-68513368D01*
X113446632Y-68306525D01*
X113264466Y-68184805D01*
X113381355Y-68115178D01*
X113597588Y-67920269D01*
X113771641Y-67686920D01*
X113896825Y-67424099D01*
X113941476Y-67276890D01*
X113820155Y-67047000D01*
X112627000Y-67047000D01*
X112627000Y-67067000D01*
X112373000Y-67067000D01*
X112373000Y-67047000D01*
X112353000Y-67047000D01*
X112353000Y-66793000D01*
X112373000Y-66793000D01*
X112373000Y-65599186D01*
X112627000Y-65599186D01*
X112627000Y-66793000D01*
X113820155Y-66793000D01*
X113941476Y-66563110D01*
X113896825Y-66415901D01*
X113771641Y-66153080D01*
X113597588Y-65919731D01*
X113381355Y-65724822D01*
X113131252Y-65575843D01*
X112856891Y-65478519D01*
X112627000Y-65599186D01*
X112373000Y-65599186D01*
X112143109Y-65478519D01*
X111868748Y-65575843D01*
X111618645Y-65724822D01*
X111402412Y-65919731D01*
X111228359Y-66153080D01*
X111103175Y-66415901D01*
X111058524Y-66563110D01*
X111179844Y-66792998D01*
X111015000Y-66792998D01*
X111015000Y-66900199D01*
X110103804Y-65989003D01*
X110080001Y-65959999D01*
X109964276Y-65865026D01*
X109927782Y-65845519D01*
X109925812Y-65825518D01*
X109889502Y-65705820D01*
X109830537Y-65595506D01*
X109751185Y-65498815D01*
X109654494Y-65419463D01*
X109544180Y-65360498D01*
X109424482Y-65324188D01*
X109300000Y-65311928D01*
X108581636Y-65311928D01*
X108612710Y-65253793D01*
X108650450Y-65129383D01*
X108663193Y-65000000D01*
X108660000Y-64967581D01*
X108660000Y-59127000D01*
X111569012Y-59127000D01*
X111378882Y-59252627D01*
X111088351Y-59797557D01*
X110909713Y-60388696D01*
X110896439Y-60524940D01*
X110895050Y-60521586D01*
X110784518Y-60356163D01*
X110643837Y-60215482D01*
X110478414Y-60104950D01*
X110294606Y-60028814D01*
X110099476Y-59990000D01*
X109900524Y-59990000D01*
X109705394Y-60028814D01*
X109521586Y-60104950D01*
X109356163Y-60215482D01*
X109215482Y-60356163D01*
X109104950Y-60521586D01*
X109028814Y-60705394D01*
X108990000Y-60900524D01*
X108990000Y-61099476D01*
X109028814Y-61294606D01*
X109104950Y-61478414D01*
X109215482Y-61643837D01*
X109356163Y-61784518D01*
X109521586Y-61895050D01*
X109705394Y-61971186D01*
X109900524Y-62010000D01*
X110099476Y-62010000D01*
X110294606Y-61971186D01*
X110478414Y-61895050D01*
X110643837Y-61784518D01*
X110784518Y-61643837D01*
X110895050Y-61478414D01*
X110896727Y-61474365D01*
X110911010Y-61617831D01*
X111090897Y-62208592D01*
X111378882Y-62747373D01*
X111796852Y-63023543D01*
X113820395Y-61000000D01*
X113806253Y-60985858D01*
X113985858Y-60806253D01*
X114000000Y-60820395D01*
X114014143Y-60806253D01*
X114193748Y-60985858D01*
X114179605Y-61000000D01*
X114193748Y-61014143D01*
X114014143Y-61193748D01*
X114000000Y-61179605D01*
X111976457Y-63203148D01*
X112252627Y-63621118D01*
X112797557Y-63911649D01*
X113388696Y-64090287D01*
X114003328Y-64150168D01*
X114617831Y-64088990D01*
X115208592Y-63909103D01*
X115747373Y-63621118D01*
X115873000Y-63430988D01*
X115873000Y-93569012D01*
X115747373Y-93378882D01*
X115202443Y-93088351D01*
X114611304Y-92909713D01*
X113996672Y-92849832D01*
X113382169Y-92911010D01*
X112791408Y-93090897D01*
X112252627Y-93378882D01*
X111976457Y-93796852D01*
X114000000Y-95820395D01*
X114014143Y-95806253D01*
X114193748Y-95985858D01*
X114179605Y-96000000D01*
X114193748Y-96014143D01*
X114014143Y-96193748D01*
X114000000Y-96179605D01*
X113985858Y-96193748D01*
X113806253Y-96014143D01*
X113820395Y-96000000D01*
X111796852Y-93976457D01*
X111378882Y-94252627D01*
X111088351Y-94797557D01*
X110909713Y-95388696D01*
X110849832Y-96003328D01*
X110911010Y-96617831D01*
X111090897Y-97208592D01*
X111378882Y-97747373D01*
X111569012Y-97873000D01*
X59127000Y-97873000D01*
X59127000Y-96950000D01*
X59661928Y-96950000D01*
X59674188Y-97074482D01*
X59710498Y-97194180D01*
X59769463Y-97304494D01*
X59848815Y-97401185D01*
X59945506Y-97480537D01*
X60055820Y-97539502D01*
X60175518Y-97575812D01*
X60300000Y-97588072D01*
X60864250Y-97585000D01*
X61023000Y-97426250D01*
X61023000Y-96077000D01*
X61277000Y-96077000D01*
X61277000Y-97426250D01*
X61435750Y-97585000D01*
X62000000Y-97588072D01*
X62124482Y-97575812D01*
X62244180Y-97539502D01*
X62354494Y-97480537D01*
X62451185Y-97401185D01*
X62530537Y-97304494D01*
X62589502Y-97194180D01*
X62625812Y-97074482D01*
X62638072Y-96950000D01*
X65111928Y-96950000D01*
X65124188Y-97074482D01*
X65160498Y-97194180D01*
X65219463Y-97304494D01*
X65298815Y-97401185D01*
X65395506Y-97480537D01*
X65505820Y-97539502D01*
X65625518Y-97575812D01*
X65750000Y-97588072D01*
X66314250Y-97585000D01*
X66473000Y-97426250D01*
X66473000Y-96077000D01*
X66727000Y-96077000D01*
X66727000Y-97426250D01*
X66885750Y-97585000D01*
X67450000Y-97588072D01*
X67574482Y-97575812D01*
X67694180Y-97539502D01*
X67804494Y-97480537D01*
X67901185Y-97401185D01*
X67980537Y-97304494D01*
X68039502Y-97194180D01*
X68068071Y-97100000D01*
X71061928Y-97100000D01*
X71074188Y-97224482D01*
X71110498Y-97344180D01*
X71169463Y-97454494D01*
X71248815Y-97551185D01*
X71345506Y-97630537D01*
X71455820Y-97689502D01*
X71575518Y-97725812D01*
X71700000Y-97738072D01*
X72214250Y-97735000D01*
X72373000Y-97576250D01*
X72373000Y-96127000D01*
X72627000Y-96127000D01*
X72627000Y-97576250D01*
X72785750Y-97735000D01*
X73300000Y-97738072D01*
X73424482Y-97725812D01*
X73544180Y-97689502D01*
X73654494Y-97630537D01*
X73751185Y-97551185D01*
X73830537Y-97454494D01*
X73889502Y-97344180D01*
X73925812Y-97224482D01*
X73938072Y-97100000D01*
X73935000Y-96285750D01*
X73776250Y-96127000D01*
X72627000Y-96127000D01*
X72373000Y-96127000D01*
X71223750Y-96127000D01*
X71065000Y-96285750D01*
X71061928Y-97100000D01*
X68068071Y-97100000D01*
X68075812Y-97074482D01*
X68088072Y-96950000D01*
X68085000Y-96235750D01*
X67926250Y-96077000D01*
X66727000Y-96077000D01*
X66473000Y-96077000D01*
X65273750Y-96077000D01*
X65115000Y-96235750D01*
X65111928Y-96950000D01*
X62638072Y-96950000D01*
X62635000Y-96235750D01*
X62476250Y-96077000D01*
X61277000Y-96077000D01*
X61023000Y-96077000D01*
X59823750Y-96077000D01*
X59665000Y-96235750D01*
X59661928Y-96950000D01*
X59127000Y-96950000D01*
X59127000Y-94950000D01*
X59661928Y-94950000D01*
X59665000Y-95664250D01*
X59823750Y-95823000D01*
X61023000Y-95823000D01*
X61023000Y-94473750D01*
X61277000Y-94473750D01*
X61277000Y-95823000D01*
X62476250Y-95823000D01*
X62635000Y-95664250D01*
X62638072Y-94950000D01*
X65111928Y-94950000D01*
X65115000Y-95664250D01*
X65273750Y-95823000D01*
X66473000Y-95823000D01*
X66473000Y-94473750D01*
X66727000Y-94473750D01*
X66727000Y-95823000D01*
X67926250Y-95823000D01*
X68085000Y-95664250D01*
X68088072Y-94950000D01*
X68075812Y-94825518D01*
X68039502Y-94705820D01*
X67980537Y-94595506D01*
X67901185Y-94498815D01*
X67804494Y-94419463D01*
X67694180Y-94360498D01*
X67574482Y-94324188D01*
X67450000Y-94311928D01*
X66885750Y-94315000D01*
X66727000Y-94473750D01*
X66473000Y-94473750D01*
X66314250Y-94315000D01*
X65750000Y-94311928D01*
X65625518Y-94324188D01*
X65505820Y-94360498D01*
X65395506Y-94419463D01*
X65298815Y-94498815D01*
X65219463Y-94595506D01*
X65160498Y-94705820D01*
X65124188Y-94825518D01*
X65111928Y-94950000D01*
X62638072Y-94950000D01*
X62625812Y-94825518D01*
X62589502Y-94705820D01*
X62530537Y-94595506D01*
X62451185Y-94498815D01*
X62354494Y-94419463D01*
X62244180Y-94360498D01*
X62124482Y-94324188D01*
X62000000Y-94311928D01*
X61435750Y-94315000D01*
X61277000Y-94473750D01*
X61023000Y-94473750D01*
X60864250Y-94315000D01*
X60300000Y-94311928D01*
X60175518Y-94324188D01*
X60055820Y-94360498D01*
X59945506Y-94419463D01*
X59848815Y-94498815D01*
X59769463Y-94595506D01*
X59710498Y-94705820D01*
X59674188Y-94825518D01*
X59661928Y-94950000D01*
X59127000Y-94950000D01*
X59127000Y-93588212D01*
X62865000Y-93588212D01*
X62865000Y-93811788D01*
X62908617Y-94031067D01*
X62994176Y-94237624D01*
X63118388Y-94423520D01*
X63276480Y-94581612D01*
X63462376Y-94705824D01*
X63668933Y-94791383D01*
X63888212Y-94835000D01*
X64111788Y-94835000D01*
X64331067Y-94791383D01*
X64537624Y-94705824D01*
X64723520Y-94581612D01*
X64881612Y-94423520D01*
X65005824Y-94237624D01*
X65091383Y-94031067D01*
X65135000Y-93811788D01*
X65135000Y-93640379D01*
X65173772Y-93710860D01*
X65254284Y-93806588D01*
X65351924Y-93884770D01*
X65462941Y-93942401D01*
X65583067Y-93977266D01*
X65707688Y-93988026D01*
X66414250Y-93985000D01*
X66573000Y-93826250D01*
X66573000Y-93223000D01*
X66827000Y-93223000D01*
X66827000Y-93826250D01*
X66985750Y-93985000D01*
X67692312Y-93988026D01*
X67816933Y-93977266D01*
X67937059Y-93942401D01*
X68048076Y-93884770D01*
X68145716Y-93806588D01*
X68226228Y-93710860D01*
X68286517Y-93601264D01*
X68324266Y-93482013D01*
X68335000Y-93381750D01*
X68176250Y-93223000D01*
X66827000Y-93223000D01*
X66573000Y-93223000D01*
X65223750Y-93223000D01*
X65087410Y-93359340D01*
X65005824Y-93162376D01*
X64881612Y-92976480D01*
X64723520Y-92818388D01*
X64537624Y-92694176D01*
X64331067Y-92608617D01*
X64111788Y-92565000D01*
X63888212Y-92565000D01*
X63668933Y-92608617D01*
X63462376Y-92694176D01*
X63276480Y-92818388D01*
X63118388Y-92976480D01*
X62994176Y-93162376D01*
X62908617Y-93368933D01*
X62865000Y-93588212D01*
X59127000Y-93588212D01*
X59127000Y-89188212D01*
X62865000Y-89188212D01*
X62865000Y-89411788D01*
X62908617Y-89631067D01*
X62994176Y-89837624D01*
X63118388Y-90023520D01*
X63276480Y-90181612D01*
X63462376Y-90305824D01*
X63668933Y-90391383D01*
X63888212Y-90435000D01*
X64111788Y-90435000D01*
X64331067Y-90391383D01*
X64537624Y-90305824D01*
X64723520Y-90181612D01*
X64881612Y-90023520D01*
X65005824Y-89837624D01*
X65061928Y-89702177D01*
X65061928Y-90150000D01*
X65074188Y-90274482D01*
X65081929Y-90300000D01*
X65074188Y-90325518D01*
X65061928Y-90450000D01*
X65061928Y-90950000D01*
X65074188Y-91074482D01*
X65081929Y-91100000D01*
X65074188Y-91125518D01*
X65061928Y-91250000D01*
X65061928Y-91750000D01*
X65074188Y-91874482D01*
X65081929Y-91900000D01*
X65074188Y-91925518D01*
X65061928Y-92050000D01*
X65061928Y-92550000D01*
X65074188Y-92674482D01*
X65081684Y-92699192D01*
X65075734Y-92717987D01*
X65065000Y-92818250D01*
X65223750Y-92977000D01*
X65228967Y-92977000D01*
X65248815Y-93001185D01*
X65345506Y-93080537D01*
X65455820Y-93139502D01*
X65575518Y-93175812D01*
X65700000Y-93188072D01*
X67700000Y-93188072D01*
X67824482Y-93175812D01*
X67944180Y-93139502D01*
X68054494Y-93080537D01*
X68151185Y-93001185D01*
X68171033Y-92977000D01*
X68176250Y-92977000D01*
X68335000Y-92818250D01*
X68324266Y-92717987D01*
X68318316Y-92699192D01*
X68325812Y-92674482D01*
X68338072Y-92550000D01*
X68338072Y-92050000D01*
X68325812Y-91925518D01*
X68318071Y-91900000D01*
X68325812Y-91874482D01*
X68338072Y-91750000D01*
X68338072Y-91250000D01*
X68325812Y-91125518D01*
X68318071Y-91100000D01*
X68325812Y-91074482D01*
X68338072Y-90950000D01*
X68338072Y-90660000D01*
X68340375Y-90660000D01*
X68353992Y-90798254D01*
X68404528Y-90964850D01*
X68486595Y-91118386D01*
X68597038Y-91252962D01*
X68731614Y-91363405D01*
X68885150Y-91445472D01*
X69051746Y-91496008D01*
X69225000Y-91513072D01*
X69975000Y-91513072D01*
X70148254Y-91496008D01*
X70314850Y-91445472D01*
X70468386Y-91363405D01*
X70602962Y-91252962D01*
X70713405Y-91118386D01*
X70795472Y-90964850D01*
X70846008Y-90798254D01*
X70863072Y-90625000D01*
X70863072Y-89375000D01*
X70846008Y-89201746D01*
X70795472Y-89035150D01*
X70713405Y-88881614D01*
X70602962Y-88747038D01*
X70468386Y-88636595D01*
X70314850Y-88554528D01*
X70148254Y-88503992D01*
X69975000Y-88486928D01*
X69225000Y-88486928D01*
X69051746Y-88503992D01*
X68885150Y-88554528D01*
X68731614Y-88636595D01*
X68597038Y-88747038D01*
X68486595Y-88881614D01*
X68404528Y-89035150D01*
X68372722Y-89140000D01*
X68079518Y-89140000D01*
X68054494Y-89119463D01*
X67944180Y-89060498D01*
X67824482Y-89024188D01*
X67700000Y-89011928D01*
X65700000Y-89011928D01*
X65575518Y-89024188D01*
X65455820Y-89060498D01*
X65345506Y-89119463D01*
X65248815Y-89198815D01*
X65169463Y-89295506D01*
X65135000Y-89359981D01*
X65135000Y-89188212D01*
X65091383Y-88968933D01*
X65005824Y-88762376D01*
X64881612Y-88576480D01*
X64723520Y-88418388D01*
X64537624Y-88294176D01*
X64331067Y-88208617D01*
X64111788Y-88165000D01*
X63888212Y-88165000D01*
X63668933Y-88208617D01*
X63462376Y-88294176D01*
X63276480Y-88418388D01*
X63118388Y-88576480D01*
X62994176Y-88762376D01*
X62908617Y-88968933D01*
X62865000Y-89188212D01*
X59127000Y-89188212D01*
X59127000Y-88050000D01*
X59661928Y-88050000D01*
X59674188Y-88174482D01*
X59710498Y-88294180D01*
X59769463Y-88404494D01*
X59848815Y-88501185D01*
X59945506Y-88580537D01*
X60055820Y-88639502D01*
X60175518Y-88675812D01*
X60300000Y-88688072D01*
X60864250Y-88685000D01*
X61023000Y-88526250D01*
X61023000Y-87177000D01*
X61277000Y-87177000D01*
X61277000Y-88526250D01*
X61435750Y-88685000D01*
X62000000Y-88688072D01*
X62124482Y-88675812D01*
X62244180Y-88639502D01*
X62354494Y-88580537D01*
X62451185Y-88501185D01*
X62530537Y-88404494D01*
X62589502Y-88294180D01*
X62625812Y-88174482D01*
X62638072Y-88050000D01*
X65111928Y-88050000D01*
X65124188Y-88174482D01*
X65160498Y-88294180D01*
X65219463Y-88404494D01*
X65298815Y-88501185D01*
X65395506Y-88580537D01*
X65505820Y-88639502D01*
X65625518Y-88675812D01*
X65750000Y-88688072D01*
X66314250Y-88685000D01*
X66473000Y-88526250D01*
X66473000Y-87177000D01*
X66727000Y-87177000D01*
X66727000Y-88526250D01*
X66885750Y-88685000D01*
X67450000Y-88688072D01*
X67574482Y-88675812D01*
X67694180Y-88639502D01*
X67804494Y-88580537D01*
X67901185Y-88501185D01*
X67980537Y-88404494D01*
X68039502Y-88294180D01*
X68075812Y-88174482D01*
X68088072Y-88050000D01*
X68085000Y-87335750D01*
X67926250Y-87177000D01*
X66727000Y-87177000D01*
X66473000Y-87177000D01*
X65273750Y-87177000D01*
X65115000Y-87335750D01*
X65111928Y-88050000D01*
X62638072Y-88050000D01*
X62635000Y-87335750D01*
X62476250Y-87177000D01*
X61277000Y-87177000D01*
X61023000Y-87177000D01*
X59823750Y-87177000D01*
X59665000Y-87335750D01*
X59661928Y-88050000D01*
X59127000Y-88050000D01*
X59127000Y-86050000D01*
X59661928Y-86050000D01*
X59665000Y-86764250D01*
X59823750Y-86923000D01*
X61023000Y-86923000D01*
X61023000Y-85573750D01*
X61277000Y-85573750D01*
X61277000Y-86923000D01*
X62476250Y-86923000D01*
X62635000Y-86764250D01*
X62638072Y-86050000D01*
X65111928Y-86050000D01*
X65115000Y-86764250D01*
X65273750Y-86923000D01*
X66473000Y-86923000D01*
X66473000Y-85573750D01*
X66727000Y-85573750D01*
X66727000Y-86923000D01*
X67926250Y-86923000D01*
X68085000Y-86764250D01*
X68088072Y-86050000D01*
X68075812Y-85925518D01*
X68039502Y-85805820D01*
X67980537Y-85695506D01*
X67901185Y-85598815D01*
X67804494Y-85519463D01*
X67694180Y-85460498D01*
X67574482Y-85424188D01*
X67450000Y-85411928D01*
X66885750Y-85415000D01*
X66727000Y-85573750D01*
X66473000Y-85573750D01*
X66314250Y-85415000D01*
X65750000Y-85411928D01*
X65625518Y-85424188D01*
X65505820Y-85460498D01*
X65395506Y-85519463D01*
X65298815Y-85598815D01*
X65219463Y-85695506D01*
X65160498Y-85805820D01*
X65124188Y-85925518D01*
X65111928Y-86050000D01*
X62638072Y-86050000D01*
X62625812Y-85925518D01*
X62589502Y-85805820D01*
X62530537Y-85695506D01*
X62451185Y-85598815D01*
X62354494Y-85519463D01*
X62244180Y-85460498D01*
X62124482Y-85424188D01*
X62000000Y-85411928D01*
X61435750Y-85415000D01*
X61277000Y-85573750D01*
X61023000Y-85573750D01*
X60864250Y-85415000D01*
X60300000Y-85411928D01*
X60175518Y-85424188D01*
X60055820Y-85460498D01*
X59945506Y-85519463D01*
X59848815Y-85598815D01*
X59769463Y-85695506D01*
X59710498Y-85805820D01*
X59674188Y-85925518D01*
X59661928Y-86050000D01*
X59127000Y-86050000D01*
X59127000Y-84430988D01*
X59252627Y-84621118D01*
X59797557Y-84911649D01*
X60388696Y-85090287D01*
X61003328Y-85150168D01*
X61617831Y-85088990D01*
X62208592Y-84909103D01*
X62747373Y-84621118D01*
X63023543Y-84203148D01*
X61000000Y-82179605D01*
X60985858Y-82193748D01*
X60806253Y-82014143D01*
X60820395Y-82000000D01*
X61179605Y-82000000D01*
X63203148Y-84023543D01*
X63621118Y-83747373D01*
X63911649Y-83202443D01*
X64090287Y-82611304D01*
X64150168Y-81996672D01*
X64088990Y-81382169D01*
X63909103Y-80791408D01*
X63621118Y-80252627D01*
X63203148Y-79976457D01*
X61179605Y-82000000D01*
X60820395Y-82000000D01*
X60806253Y-81985858D01*
X60985858Y-81806253D01*
X61000000Y-81820395D01*
X63023543Y-79796852D01*
X62827401Y-79500000D01*
X65636928Y-79500000D01*
X65649188Y-79624482D01*
X65685498Y-79744180D01*
X65744463Y-79854494D01*
X65823815Y-79951185D01*
X65920506Y-80030537D01*
X66030820Y-80089502D01*
X66150518Y-80125812D01*
X66275000Y-80138072D01*
X66714250Y-80135000D01*
X66873000Y-79976250D01*
X66873000Y-79127000D01*
X65798750Y-79127000D01*
X65640000Y-79285750D01*
X65636928Y-79500000D01*
X62827401Y-79500000D01*
X62747373Y-79378882D01*
X62202443Y-79088351D01*
X61611304Y-78909713D01*
X60996672Y-78849832D01*
X60382169Y-78911010D01*
X59791408Y-79090897D01*
X59252627Y-79378882D01*
X59127000Y-79569012D01*
X59127000Y-67371415D01*
X65808190Y-67371415D01*
X65937116Y-67663945D01*
X66273586Y-67832296D01*
X66636435Y-67931771D01*
X67011718Y-67958545D01*
X67385015Y-67911591D01*
X67741978Y-67792713D01*
X67982884Y-67663945D01*
X68111810Y-67371415D01*
X66960000Y-66219605D01*
X65808190Y-67371415D01*
X59127000Y-67371415D01*
X59127000Y-65400524D01*
X60490000Y-65400524D01*
X60490000Y-65599476D01*
X60528814Y-65794606D01*
X60604950Y-65978414D01*
X60715482Y-66143837D01*
X60856163Y-66284518D01*
X61021586Y-66395050D01*
X61205394Y-66471186D01*
X61400524Y-66510000D01*
X61599476Y-66510000D01*
X61794606Y-66471186D01*
X61978414Y-66395050D01*
X62143837Y-66284518D01*
X62284518Y-66143837D01*
X62319342Y-66091718D01*
X65041455Y-66091718D01*
X65088409Y-66465015D01*
X65207287Y-66821978D01*
X65336055Y-67062884D01*
X65628585Y-67191810D01*
X66780395Y-66040000D01*
X65628585Y-64888190D01*
X65336055Y-65017116D01*
X65167704Y-65353586D01*
X65068229Y-65716435D01*
X65041455Y-66091718D01*
X62319342Y-66091718D01*
X62395050Y-65978414D01*
X62471186Y-65794606D01*
X62510000Y-65599476D01*
X62510000Y-65400524D01*
X62471186Y-65205394D01*
X62395050Y-65021586D01*
X62284518Y-64856163D01*
X62143837Y-64715482D01*
X61978414Y-64604950D01*
X61794606Y-64528814D01*
X61599476Y-64490000D01*
X61400524Y-64490000D01*
X61205394Y-64528814D01*
X61021586Y-64604950D01*
X60856163Y-64715482D01*
X60715482Y-64856163D01*
X60604950Y-65021586D01*
X60528814Y-65205394D01*
X60490000Y-65400524D01*
X59127000Y-65400524D01*
X59127000Y-63430988D01*
X59252627Y-63621118D01*
X59797557Y-63911649D01*
X60388696Y-64090287D01*
X61003328Y-64150168D01*
X61617831Y-64088990D01*
X62208592Y-63909103D01*
X62747373Y-63621118D01*
X63023543Y-63203148D01*
X61000000Y-61179605D01*
X60985858Y-61193748D01*
X60806253Y-61014143D01*
X60820395Y-61000000D01*
X60806253Y-60985858D01*
X60985858Y-60806253D01*
X61000000Y-60820395D01*
X61014143Y-60806253D01*
X61193748Y-60985858D01*
X61179605Y-61000000D01*
X63203148Y-63023543D01*
X63621118Y-62747373D01*
X63864213Y-62291415D01*
X65808190Y-62291415D01*
X65937116Y-62583945D01*
X66273586Y-62752296D01*
X66636435Y-62851771D01*
X67011718Y-62878545D01*
X67385015Y-62831591D01*
X67736928Y-62714395D01*
X67736928Y-64292992D01*
X67646414Y-64247704D01*
X67283565Y-64148229D01*
X66908282Y-64121455D01*
X66534985Y-64168409D01*
X66178022Y-64287287D01*
X65937116Y-64416055D01*
X65808190Y-64708585D01*
X66960000Y-65860395D01*
X66974143Y-65846253D01*
X67153748Y-66025858D01*
X67139605Y-66040000D01*
X68291415Y-67191810D01*
X68583945Y-67062884D01*
X68715001Y-66800953D01*
X68715001Y-67861928D01*
X68500000Y-67861928D01*
X68375518Y-67874188D01*
X68255820Y-67910498D01*
X68145506Y-67969463D01*
X68048815Y-68048815D01*
X67969463Y-68145506D01*
X67910498Y-68255820D01*
X67874188Y-68375518D01*
X67861928Y-68500000D01*
X67861928Y-69500000D01*
X67874188Y-69624482D01*
X67910498Y-69744180D01*
X67969463Y-69854494D01*
X68048815Y-69951185D01*
X68108296Y-70000000D01*
X68048815Y-70048815D01*
X67969463Y-70145506D01*
X67910498Y-70255820D01*
X67874188Y-70375518D01*
X67861928Y-70500000D01*
X67865000Y-70714250D01*
X68023750Y-70873000D01*
X69373000Y-70873000D01*
X69373000Y-70853000D01*
X69627000Y-70853000D01*
X69627000Y-70873000D01*
X70976250Y-70873000D01*
X71135000Y-70714250D01*
X71138072Y-70500000D01*
X71125812Y-70375518D01*
X71089502Y-70255820D01*
X71030537Y-70145506D01*
X70951185Y-70048815D01*
X70891704Y-70000000D01*
X70951185Y-69951185D01*
X71030537Y-69854494D01*
X71089502Y-69744180D01*
X71125812Y-69624482D01*
X71138072Y-69500000D01*
X71138072Y-68500000D01*
X71125812Y-68375518D01*
X71089502Y-68255820D01*
X71030537Y-68145506D01*
X70951185Y-68048815D01*
X70854494Y-67969463D01*
X70744180Y-67910498D01*
X70624482Y-67874188D01*
X70500000Y-67861928D01*
X70285000Y-67861928D01*
X70285000Y-67371415D01*
X70888190Y-67371415D01*
X71017116Y-67663945D01*
X71353586Y-67832296D01*
X71716435Y-67931771D01*
X72091718Y-67958545D01*
X72465015Y-67911591D01*
X72821978Y-67792713D01*
X73062884Y-67663945D01*
X73191810Y-67371415D01*
X72040000Y-66219605D01*
X70888190Y-67371415D01*
X70285000Y-67371415D01*
X70285000Y-66815111D01*
X70287287Y-66821978D01*
X70416055Y-67062884D01*
X70708585Y-67191810D01*
X71860395Y-66040000D01*
X72219605Y-66040000D01*
X73371415Y-67191810D01*
X73663945Y-67062884D01*
X73832296Y-66726414D01*
X73931771Y-66363565D01*
X73958545Y-65988282D01*
X73911591Y-65614985D01*
X73792713Y-65258022D01*
X73663945Y-65017116D01*
X73371415Y-64888190D01*
X72219605Y-66040000D01*
X71860395Y-66040000D01*
X71846253Y-66025858D01*
X72025858Y-65846253D01*
X72040000Y-65860395D01*
X73191810Y-64708585D01*
X73062884Y-64416055D01*
X72800955Y-64285000D01*
X74382317Y-64285000D01*
X74419463Y-64354494D01*
X74498815Y-64451185D01*
X74595506Y-64530537D01*
X74705820Y-64589502D01*
X74825518Y-64625812D01*
X74950000Y-64638072D01*
X75261928Y-64638072D01*
X75261928Y-65500000D01*
X75274188Y-65624482D01*
X75310498Y-65744180D01*
X75369463Y-65854494D01*
X75448815Y-65951185D01*
X75545506Y-66030537D01*
X75655820Y-66089502D01*
X75775518Y-66125812D01*
X75900000Y-66138072D01*
X78100000Y-66138072D01*
X78224482Y-66125812D01*
X78344180Y-66089502D01*
X78454494Y-66030537D01*
X78551185Y-65951185D01*
X78630537Y-65854494D01*
X78689502Y-65744180D01*
X78725812Y-65624482D01*
X78738072Y-65500000D01*
X78738072Y-64450000D01*
X78725812Y-64325518D01*
X78689502Y-64205820D01*
X78630537Y-64095506D01*
X78551185Y-63998815D01*
X78454494Y-63919463D01*
X78344180Y-63860498D01*
X78224482Y-63824188D01*
X78100000Y-63811928D01*
X76638072Y-63811928D01*
X76638072Y-63185287D01*
X76714250Y-63185000D01*
X76873000Y-63026250D01*
X76873000Y-62152000D01*
X77127000Y-62152000D01*
X77127000Y-63026250D01*
X77285750Y-63185000D01*
X78100000Y-63188072D01*
X78224482Y-63175812D01*
X78344180Y-63139502D01*
X78454494Y-63080537D01*
X78551185Y-63001185D01*
X78630537Y-62904494D01*
X78689502Y-62794180D01*
X78725812Y-62674482D01*
X78738072Y-62550000D01*
X78735000Y-62310750D01*
X78576250Y-62152000D01*
X77127000Y-62152000D01*
X76873000Y-62152000D01*
X75423750Y-62152000D01*
X75265000Y-62310750D01*
X75264343Y-62361928D01*
X74950000Y-62361928D01*
X74825518Y-62374188D01*
X74705820Y-62410498D01*
X74595506Y-62469463D01*
X74498815Y-62548815D01*
X74419463Y-62645506D01*
X74382317Y-62715000D01*
X72815111Y-62715000D01*
X72821978Y-62712713D01*
X73062884Y-62583945D01*
X73191810Y-62291415D01*
X72040000Y-61139605D01*
X72025858Y-61153748D01*
X71846253Y-60974143D01*
X71860395Y-60960000D01*
X72219605Y-60960000D01*
X73371415Y-62111810D01*
X73391155Y-62103110D01*
X87558524Y-62103110D01*
X87679845Y-62333000D01*
X88873000Y-62333000D01*
X88873000Y-61139186D01*
X89127000Y-61139186D01*
X89127000Y-62333000D01*
X90320155Y-62333000D01*
X90441476Y-62103110D01*
X90396825Y-61955901D01*
X90271641Y-61693080D01*
X90097588Y-61459731D01*
X89881355Y-61264822D01*
X89631252Y-61115843D01*
X89356891Y-61018519D01*
X89127000Y-61139186D01*
X88873000Y-61139186D01*
X88643109Y-61018519D01*
X88368748Y-61115843D01*
X88118645Y-61264822D01*
X87902412Y-61459731D01*
X87728359Y-61693080D01*
X87603175Y-61955901D01*
X87558524Y-62103110D01*
X73391155Y-62103110D01*
X73663945Y-61982884D01*
X73832296Y-61646414D01*
X73872435Y-61500000D01*
X75261928Y-61500000D01*
X75265000Y-61739250D01*
X75423750Y-61898000D01*
X76873000Y-61898000D01*
X76873000Y-61023750D01*
X77127000Y-61023750D01*
X77127000Y-61898000D01*
X78576250Y-61898000D01*
X78735000Y-61739250D01*
X78738072Y-61500000D01*
X78725812Y-61375518D01*
X78689502Y-61255820D01*
X78630537Y-61145506D01*
X78551185Y-61048815D01*
X78454494Y-60969463D01*
X78344180Y-60910498D01*
X78224482Y-60874188D01*
X78100000Y-60861928D01*
X77285750Y-60865000D01*
X77127000Y-61023750D01*
X76873000Y-61023750D01*
X76714250Y-60865000D01*
X75900000Y-60861928D01*
X75775518Y-60874188D01*
X75655820Y-60910498D01*
X75545506Y-60969463D01*
X75448815Y-61048815D01*
X75369463Y-61145506D01*
X75310498Y-61255820D01*
X75274188Y-61375518D01*
X75261928Y-61500000D01*
X73872435Y-61500000D01*
X73931771Y-61283565D01*
X73958545Y-60908282D01*
X73911591Y-60534985D01*
X73792713Y-60178022D01*
X73663945Y-59937116D01*
X73371415Y-59808190D01*
X72219605Y-60960000D01*
X71860395Y-60960000D01*
X70708585Y-59808190D01*
X70416055Y-59937116D01*
X70247704Y-60273586D01*
X70148229Y-60636435D01*
X70121455Y-61011718D01*
X70168409Y-61385015D01*
X70285605Y-61736928D01*
X68707008Y-61736928D01*
X68752296Y-61646414D01*
X68851771Y-61283565D01*
X68878545Y-60908282D01*
X68831591Y-60534985D01*
X68712713Y-60178022D01*
X68583945Y-59937116D01*
X68291415Y-59808190D01*
X67139605Y-60960000D01*
X67153748Y-60974143D01*
X66974143Y-61153748D01*
X66960000Y-61139605D01*
X65808190Y-62291415D01*
X63864213Y-62291415D01*
X63911649Y-62202443D01*
X64090287Y-61611304D01*
X64148702Y-61011718D01*
X65041455Y-61011718D01*
X65088409Y-61385015D01*
X65207287Y-61741978D01*
X65336055Y-61982884D01*
X65628585Y-62111810D01*
X66780395Y-60960000D01*
X65628585Y-59808190D01*
X65336055Y-59937116D01*
X65167704Y-60273586D01*
X65068229Y-60636435D01*
X65041455Y-61011718D01*
X64148702Y-61011718D01*
X64150168Y-60996672D01*
X64088990Y-60382169D01*
X63909103Y-59791408D01*
X63621118Y-59252627D01*
X63430988Y-59127000D01*
X66419105Y-59127000D01*
X66178022Y-59207287D01*
%TA.AperFunction,Conductor*%
D31*
G36*
X66178022Y-59207287D02*
G01*
X65937116Y-59336055D01*
X65808190Y-59628585D01*
X66960000Y-60780395D01*
X68111810Y-59628585D01*
X67982884Y-59336055D01*
X67646414Y-59167704D01*
X67497940Y-59127000D01*
X71499105Y-59127000D01*
X71258022Y-59207287D01*
X71017116Y-59336055D01*
X70888190Y-59628585D01*
X72040000Y-60780395D01*
X73191810Y-59628585D01*
X73062884Y-59336055D01*
X72726414Y-59167704D01*
X72577940Y-59127000D01*
X91340000Y-59127000D01*
X91340001Y-64967571D01*
X91336807Y-65000000D01*
X91349550Y-65129383D01*
X91387290Y-65253793D01*
X91418364Y-65311928D01*
X90700000Y-65311928D01*
X90575518Y-65324188D01*
X90488072Y-65350714D01*
X90488072Y-64150000D01*
X90475812Y-64025518D01*
X90439502Y-63905820D01*
X90380537Y-63795506D01*
X90301185Y-63698815D01*
X90204494Y-63619463D01*
X90094180Y-63560498D01*
X90013534Y-63536034D01*
X90097588Y-63460269D01*
X90271641Y-63226920D01*
X90396825Y-62964099D01*
X90441476Y-62816890D01*
X90320155Y-62587000D01*
X89127000Y-62587000D01*
X89127000Y-62607000D01*
X88873000Y-62607000D01*
X88873000Y-62587000D01*
X87679845Y-62587000D01*
X87558524Y-62816890D01*
X87603175Y-62964099D01*
X87728359Y-63226920D01*
X87902412Y-63460269D01*
X87986466Y-63536034D01*
X87905820Y-63560498D01*
X87795506Y-63619463D01*
X87698815Y-63698815D01*
X87619463Y-63795506D01*
X87560498Y-63905820D01*
X87524188Y-64025518D01*
X87511928Y-64150000D01*
X87511928Y-65850000D01*
X87524188Y-65974482D01*
X87560498Y-66094180D01*
X87619463Y-66204494D01*
X87698815Y-66301185D01*
X87795506Y-66380537D01*
X87905820Y-66439502D01*
X88025518Y-66475812D01*
X88150000Y-66488072D01*
X88240001Y-66488072D01*
X88240000Y-66995473D01*
X88210149Y-67004528D01*
X88056613Y-67086595D01*
X87922038Y-67197038D01*
X87811595Y-67331613D01*
X87729528Y-67485149D01*
X87678992Y-67651745D01*
X87661928Y-67824999D01*
X87661928Y-68350001D01*
X87678992Y-68523255D01*
X87729528Y-68689851D01*
X87811595Y-68843387D01*
X87922038Y-68977962D01*
X87948891Y-69000000D01*
X87922038Y-69022038D01*
X87811595Y-69156613D01*
X87729528Y-69310149D01*
X87678992Y-69476745D01*
X87661928Y-69649999D01*
X87661928Y-70175001D01*
X87678992Y-70348255D01*
X87729528Y-70514851D01*
X87811595Y-70668387D01*
X87922038Y-70802962D01*
X88056613Y-70913405D01*
X88210149Y-70995472D01*
X88376745Y-71046008D01*
X88549999Y-71063072D01*
X89075611Y-71063072D01*
X89076492Y-71063795D01*
X89076496Y-71063799D01*
X89147185Y-71121811D01*
X89163224Y-71134974D01*
X89295253Y-71205546D01*
X89438514Y-71249003D01*
X89550167Y-71260000D01*
X89550176Y-71260000D01*
X89587499Y-71263676D01*
X89624822Y-71260000D01*
X90100130Y-71260000D01*
X90110498Y-71294180D01*
X90169463Y-71404494D01*
X90247842Y-71500000D01*
X90169463Y-71595506D01*
X90110498Y-71705820D01*
X90100130Y-71740000D01*
X89537325Y-71740000D01*
X89500000Y-71736324D01*
X89462675Y-71740000D01*
X89462667Y-71740000D01*
X89351014Y-71750997D01*
X89207753Y-71794454D01*
X89075724Y-71865026D01*
X88959999Y-71959999D01*
X88936196Y-71989003D01*
X88685199Y-72240000D01*
X87081046Y-72240000D01*
X87030537Y-72145506D01*
X86951185Y-72048815D01*
X86891704Y-72000000D01*
X86951185Y-71951185D01*
X87030537Y-71854494D01*
X87089502Y-71744180D01*
X87125812Y-71624482D01*
X87138072Y-71500000D01*
X87138072Y-70500000D01*
X87125812Y-70375518D01*
X87089502Y-70255820D01*
X87030537Y-70145506D01*
X86951185Y-70048815D01*
X86891704Y-70000000D01*
X86951185Y-69951185D01*
X87030537Y-69854494D01*
X87089502Y-69744180D01*
X87125812Y-69624482D01*
X87138072Y-69500000D01*
X87135000Y-69285750D01*
X86976250Y-69127000D01*
X85627000Y-69127000D01*
X85627000Y-69147000D01*
X85373000Y-69147000D01*
X85373000Y-69127000D01*
X84023750Y-69127000D01*
X83865000Y-69285750D01*
X83861928Y-69500000D01*
X83874188Y-69624482D01*
X83910498Y-69744180D01*
X83969463Y-69854494D01*
X84048815Y-69951185D01*
X84108296Y-70000000D01*
X84048815Y-70048815D01*
X83969463Y-70145506D01*
X83910498Y-70255820D01*
X83874188Y-70375518D01*
X83861928Y-70500000D01*
X83861928Y-71500000D01*
X83874188Y-71624482D01*
X83910498Y-71744180D01*
X83969463Y-71854494D01*
X84048815Y-71951185D01*
X84108296Y-72000000D01*
X84048815Y-72048815D01*
X83969463Y-72145506D01*
X83910498Y-72255820D01*
X83874188Y-72375518D01*
X83861928Y-72500000D01*
X83861928Y-73500000D01*
X83874188Y-73624482D01*
X83910498Y-73744180D01*
X83969463Y-73854494D01*
X84048815Y-73951185D01*
X84108296Y-74000000D01*
X84048815Y-74048815D01*
X83969463Y-74145506D01*
X83918954Y-74240000D01*
X83814802Y-74240000D01*
X82847500Y-73272699D01*
X82847500Y-68500000D01*
X83861928Y-68500000D01*
X83865000Y-68714250D01*
X84023750Y-68873000D01*
X85373000Y-68873000D01*
X85373000Y-68023750D01*
X85627000Y-68023750D01*
X85627000Y-68873000D01*
X86976250Y-68873000D01*
X87135000Y-68714250D01*
X87138072Y-68500000D01*
X87125812Y-68375518D01*
X87089502Y-68255820D01*
X87030537Y-68145506D01*
X86951185Y-68048815D01*
X86854494Y-67969463D01*
X86744180Y-67910498D01*
X86624482Y-67874188D01*
X86500000Y-67861928D01*
X85785750Y-67865000D01*
X85627000Y-68023750D01*
X85373000Y-68023750D01*
X85214250Y-67865000D01*
X84500000Y-67861928D01*
X84375518Y-67874188D01*
X84255820Y-67910498D01*
X84145506Y-67969463D01*
X84048815Y-68048815D01*
X83969463Y-68145506D01*
X83910498Y-68255820D01*
X83874188Y-68375518D01*
X83861928Y-68500000D01*
X82847500Y-68500000D01*
X82847500Y-67185030D01*
X82924637Y-67121724D01*
X82948815Y-67151185D01*
X83045506Y-67230537D01*
X83155820Y-67289502D01*
X83275518Y-67325812D01*
X83400000Y-67338072D01*
X83626750Y-67335000D01*
X83785500Y-67176250D01*
X83785500Y-66127000D01*
X84039500Y-66127000D01*
X84039500Y-67176250D01*
X84198250Y-67335000D01*
X84425000Y-67338072D01*
X84549482Y-67325812D01*
X84669180Y-67289502D01*
X84779494Y-67230537D01*
X84876185Y-67151185D01*
X84955537Y-67054494D01*
X85014502Y-66944180D01*
X85050812Y-66824482D01*
X85063072Y-66700000D01*
X85060000Y-66285750D01*
X84901250Y-66127000D01*
X84039500Y-66127000D01*
X83785500Y-66127000D01*
X83765500Y-66127000D01*
X83765500Y-65873000D01*
X83785500Y-65873000D01*
X83785500Y-64823750D01*
X84039500Y-64823750D01*
X84039500Y-65873000D01*
X84901250Y-65873000D01*
X85060000Y-65714250D01*
X85063072Y-65300000D01*
X85050812Y-65175518D01*
X85014502Y-65055820D01*
X84955537Y-64945506D01*
X84876185Y-64848815D01*
X84779494Y-64769463D01*
X84669180Y-64710498D01*
X84549482Y-64674188D01*
X84425000Y-64661928D01*
X84198250Y-64665000D01*
X84039500Y-64823750D01*
X83785500Y-64823750D01*
X83626750Y-64665000D01*
X83400000Y-64661928D01*
X83275518Y-64674188D01*
X83155820Y-64710498D01*
X83045506Y-64769463D01*
X82948815Y-64848815D01*
X82924637Y-64878276D01*
X82843387Y-64811595D01*
X82689851Y-64729528D01*
X82523255Y-64678992D01*
X82350001Y-64661928D01*
X81824999Y-64661928D01*
X81651745Y-64678992D01*
X81485149Y-64729528D01*
X81331613Y-64811595D01*
X81197038Y-64922038D01*
X81086595Y-65056613D01*
X81004528Y-65210149D01*
X80953992Y-65376745D01*
X80936928Y-65549999D01*
X80936928Y-66450001D01*
X80953992Y-66623255D01*
X81004528Y-66789851D01*
X81086595Y-66943387D01*
X81197038Y-67077962D01*
X81327500Y-67185030D01*
X81327501Y-73550168D01*
X81323824Y-73587500D01*
X81338498Y-73736485D01*
X81381954Y-73879746D01*
X81452526Y-74011776D01*
X81516315Y-74089502D01*
X81547500Y-74127501D01*
X81576498Y-74151299D01*
X82936201Y-75511003D01*
X82959999Y-75540001D01*
X83075724Y-75634974D01*
X83207753Y-75705546D01*
X83351014Y-75749003D01*
X83462667Y-75760000D01*
X83462675Y-75760000D01*
X83500000Y-75763676D01*
X83537325Y-75760000D01*
X83918954Y-75760000D01*
X83969463Y-75854494D01*
X84048815Y-75951185D01*
X84108296Y-76000000D01*
X84048815Y-76048815D01*
X83969463Y-76145506D01*
X83910498Y-76255820D01*
X83874188Y-76375518D01*
X83861928Y-76500000D01*
X83861928Y-77500000D01*
X83874188Y-77624482D01*
X83910498Y-77744180D01*
X83969463Y-77854494D01*
X84048815Y-77951185D01*
X84108296Y-78000000D01*
X84048815Y-78048815D01*
X83969463Y-78145506D01*
X83910498Y-78255820D01*
X83874188Y-78375518D01*
X83861928Y-78500000D01*
X83861928Y-79500000D01*
X83867601Y-79557598D01*
X83664001Y-79761198D01*
X83634998Y-79785000D01*
X83601746Y-79825518D01*
X83540025Y-79900725D01*
X83508342Y-79959999D01*
X83469453Y-80032755D01*
X83425996Y-80176016D01*
X83414999Y-80287669D01*
X83414999Y-80287679D01*
X83411323Y-80325001D01*
X83414999Y-80362324D01*
X83415000Y-81722669D01*
X83411323Y-81760001D01*
X83415000Y-81797334D01*
X83425997Y-81908987D01*
X83428490Y-81917205D01*
X83469453Y-82052247D01*
X83540025Y-82184277D01*
X83611200Y-82271003D01*
X83634999Y-82300002D01*
X83663997Y-82323800D01*
X83676195Y-82335998D01*
X83699998Y-82365002D01*
X83815723Y-82459975D01*
X83863362Y-82485439D01*
X83861928Y-82500000D01*
X83865000Y-82714250D01*
X84023750Y-82873000D01*
X85373000Y-82873000D01*
X85373000Y-82853000D01*
X85627000Y-82853000D01*
X85627000Y-82873000D01*
X86976250Y-82873000D01*
X87135000Y-82714250D01*
X87136817Y-82587513D01*
X87162321Y-82585001D01*
X87162332Y-82585001D01*
X87273985Y-82574004D01*
X87413723Y-82531616D01*
X87415000Y-82714250D01*
X87573750Y-82873000D01*
X88423000Y-82873000D01*
X88423000Y-81798750D01*
X88324526Y-81700276D01*
X90061928Y-79962874D01*
X90061928Y-81050000D01*
X90074188Y-81174482D01*
X90110498Y-81294180D01*
X90169463Y-81404494D01*
X90248815Y-81501185D01*
X90345506Y-81580537D01*
X90451004Y-81636928D01*
X90200000Y-81636928D01*
X90026746Y-81653992D01*
X89860150Y-81704528D01*
X89706614Y-81786595D01*
X89572038Y-81897038D01*
X89566658Y-81903594D01*
X89501185Y-81823815D01*
X89404494Y-81744463D01*
X89294180Y-81685498D01*
X89174482Y-81649188D01*
X89050000Y-81636928D01*
X88835750Y-81640000D01*
X88677000Y-81798750D01*
X88677000Y-82873000D01*
X88697000Y-82873000D01*
X88697000Y-83127000D01*
X88677000Y-83127000D01*
X88677000Y-84201250D01*
X88700474Y-84224724D01*
X85708315Y-87216883D01*
X85705546Y-87207753D01*
X85634974Y-87075724D01*
X85563799Y-86988997D01*
X85540001Y-86959999D01*
X85511004Y-86936202D01*
X84563804Y-85989002D01*
X84540001Y-85959999D01*
X84424276Y-85865026D01*
X84292247Y-85794454D01*
X84148986Y-85750997D01*
X84037333Y-85740000D01*
X84037322Y-85740000D01*
X84000000Y-85736324D01*
X83962678Y-85740000D01*
X80037333Y-85740000D01*
X80000000Y-85736323D01*
X79962667Y-85740000D01*
X79851014Y-85750997D01*
X79707753Y-85794454D01*
X79575724Y-85865026D01*
X79459999Y-85959999D01*
X79436201Y-85988997D01*
X77453115Y-87972084D01*
X77350000Y-87961928D01*
X77110000Y-87961928D01*
X77110000Y-83500000D01*
X83861928Y-83500000D01*
X83874188Y-83624482D01*
X83910498Y-83744180D01*
X83969463Y-83854494D01*
X84048815Y-83951185D01*
X84145506Y-84030537D01*
X84255820Y-84089502D01*
X84375518Y-84125812D01*
X84500000Y-84138072D01*
X85214250Y-84135000D01*
X85373000Y-83976250D01*
X85373000Y-83127000D01*
X85627000Y-83127000D01*
X85627000Y-83976250D01*
X85785750Y-84135000D01*
X86500000Y-84138072D01*
X86624482Y-84125812D01*
X86744180Y-84089502D01*
X86854494Y-84030537D01*
X86951185Y-83951185D01*
X87030537Y-83854494D01*
X87089502Y-83744180D01*
X87095320Y-83725000D01*
X87411928Y-83725000D01*
X87424188Y-83849482D01*
X87460498Y-83969180D01*
X87519463Y-84079494D01*
X87598815Y-84176185D01*
X87695506Y-84255537D01*
X87805820Y-84314502D01*
X87925518Y-84350812D01*
X88050000Y-84363072D01*
X88264250Y-84360000D01*
X88423000Y-84201250D01*
X88423000Y-83127000D01*
X87573750Y-83127000D01*
X87415000Y-83285750D01*
X87411928Y-83725000D01*
X87095320Y-83725000D01*
X87125812Y-83624482D01*
X87138072Y-83500000D01*
X87135000Y-83285750D01*
X86976250Y-83127000D01*
X85627000Y-83127000D01*
X85373000Y-83127000D01*
X84023750Y-83127000D01*
X83865000Y-83285750D01*
X83861928Y-83500000D01*
X77110000Y-83500000D01*
X77110000Y-79387323D01*
X77113676Y-79350000D01*
X77110000Y-79312677D01*
X77110000Y-79312667D01*
X77099003Y-79201014D01*
X77055546Y-79057753D01*
X76984974Y-78925724D01*
X76890001Y-78809999D01*
X76861003Y-78786201D01*
X74563804Y-76489003D01*
X74540001Y-76459999D01*
X74424276Y-76365026D01*
X74292247Y-76294454D01*
X74148986Y-76250997D01*
X74037333Y-76240000D01*
X74037322Y-76240000D01*
X74000000Y-76236324D01*
X73962678Y-76240000D01*
X71081046Y-76240000D01*
X71030537Y-76145506D01*
X70951185Y-76048815D01*
X70891704Y-76000000D01*
X70951185Y-75951185D01*
X71030537Y-75854494D01*
X71089502Y-75744180D01*
X71125812Y-75624482D01*
X71138072Y-75500000D01*
X71138072Y-74500000D01*
X71125812Y-74375518D01*
X71089502Y-74255820D01*
X71030537Y-74145506D01*
X70951185Y-74048815D01*
X70891704Y-74000000D01*
X70951185Y-73951185D01*
X71030537Y-73854494D01*
X71089502Y-73744180D01*
X71125812Y-73624482D01*
X71138072Y-73500000D01*
X71138072Y-72500000D01*
X71125812Y-72375518D01*
X71089502Y-72255820D01*
X71030537Y-72145506D01*
X70951185Y-72048815D01*
X70891704Y-72000000D01*
X70951185Y-71951185D01*
X71030537Y-71854494D01*
X71089502Y-71744180D01*
X71125812Y-71624482D01*
X71138072Y-71500000D01*
X71135000Y-71285750D01*
X70976250Y-71127000D01*
X69627000Y-71127000D01*
X69627000Y-71147000D01*
X69373000Y-71147000D01*
X69373000Y-71127000D01*
X68023750Y-71127000D01*
X67865000Y-71285750D01*
X67861928Y-71500000D01*
X67874188Y-71624482D01*
X67910498Y-71744180D01*
X67969463Y-71854494D01*
X68048815Y-71951185D01*
X68108296Y-72000000D01*
X68048815Y-72048815D01*
X67969463Y-72145506D01*
X67910498Y-72255820D01*
X67874188Y-72375518D01*
X67861928Y-72500000D01*
X67861928Y-73500000D01*
X67874188Y-73624482D01*
X67910498Y-73744180D01*
X67969463Y-73854494D01*
X68048815Y-73951185D01*
X68108296Y-74000000D01*
X68048815Y-74048815D01*
X67969463Y-74145506D01*
X67910498Y-74255820D01*
X67874188Y-74375518D01*
X67861928Y-74500000D01*
X67861928Y-75500000D01*
X67874188Y-75624482D01*
X67910498Y-75744180D01*
X67969463Y-75854494D01*
X68048815Y-75951185D01*
X68108296Y-76000000D01*
X68048815Y-76048815D01*
X67985659Y-76125771D01*
X67968386Y-76111595D01*
X67814850Y-76029528D01*
X67648254Y-75978992D01*
X67475000Y-75961928D01*
X66525000Y-75961928D01*
X66351746Y-75978992D01*
X66185150Y-76029528D01*
X66031614Y-76111595D01*
X65897038Y-76222038D01*
X65786595Y-76356614D01*
X65704528Y-76510150D01*
X65653992Y-76676746D01*
X65636928Y-76850000D01*
X65636928Y-77350000D01*
X65653992Y-77523254D01*
X65704528Y-77689850D01*
X65786595Y-77843386D01*
X65897038Y-77977962D01*
X65903594Y-77983342D01*
X65823815Y-78048815D01*
X65744463Y-78145506D01*
X65685498Y-78255820D01*
X65649188Y-78375518D01*
X65636928Y-78500000D01*
X65640000Y-78714250D01*
X65798750Y-78873000D01*
X66873000Y-78873000D01*
X66873000Y-78853000D01*
X67127000Y-78853000D01*
X67127000Y-78873000D01*
X67147000Y-78873000D01*
X67147000Y-79127000D01*
X67127000Y-79127000D01*
X67127000Y-79976250D01*
X67285750Y-80135000D01*
X67725000Y-80138072D01*
X67849482Y-80125812D01*
X67969180Y-80089502D01*
X68055383Y-80043425D01*
X68048815Y-80048815D01*
X67969463Y-80145506D01*
X67910498Y-80255820D01*
X67874188Y-80375518D01*
X67861928Y-80500000D01*
X67861928Y-81500000D01*
X67874188Y-81624482D01*
X67910498Y-81744180D01*
X67969463Y-81854494D01*
X68048815Y-81951185D01*
X68108296Y-82000000D01*
X68048815Y-82048815D01*
X67969463Y-82145506D01*
X67910498Y-82255820D01*
X67874188Y-82375518D01*
X67861928Y-82500000D01*
X67861928Y-83500000D01*
X67874188Y-83624482D01*
X67910498Y-83744180D01*
X67969463Y-83854494D01*
X68048815Y-83951185D01*
X68145506Y-84030537D01*
X68255820Y-84089502D01*
X68375518Y-84125812D01*
X68500000Y-84138072D01*
X70500000Y-84138072D01*
X70624482Y-84125812D01*
X70744180Y-84089502D01*
X70854494Y-84030537D01*
X70951185Y-83951185D01*
X71030537Y-83854494D01*
X71089502Y-83744180D01*
X71125812Y-83624482D01*
X71138072Y-83500000D01*
X71138072Y-82500000D01*
X71125812Y-82375518D01*
X71089502Y-82255820D01*
X71030537Y-82145506D01*
X70951185Y-82048815D01*
X70891704Y-82000000D01*
X70951185Y-81951185D01*
X71030537Y-81854494D01*
X71081046Y-81760000D01*
X71796289Y-81760000D01*
X71840226Y-81803937D01*
X72009744Y-81917205D01*
X72198102Y-81995226D01*
X72398061Y-82035000D01*
X72601939Y-82035000D01*
X72801898Y-81995226D01*
X72990256Y-81917205D01*
X73159774Y-81803937D01*
X73303937Y-81659774D01*
X73417205Y-81490256D01*
X73495226Y-81301898D01*
X73535000Y-81101939D01*
X73535000Y-80898061D01*
X73495226Y-80698102D01*
X73417205Y-80509744D01*
X73303937Y-80340226D01*
X73159774Y-80196063D01*
X72990256Y-80082795D01*
X72801898Y-80004774D01*
X72777897Y-80000000D01*
X72801898Y-79995226D01*
X72990256Y-79917205D01*
X73159774Y-79803937D01*
X73303937Y-79659774D01*
X73417205Y-79490256D01*
X73495226Y-79301898D01*
X73535000Y-79101939D01*
X73535000Y-78898061D01*
X73495226Y-78698102D01*
X73417205Y-78509744D01*
X73303937Y-78340226D01*
X73159774Y-78196063D01*
X72990256Y-78082795D01*
X72801898Y-78004774D01*
X72601939Y-77965000D01*
X72398061Y-77965000D01*
X72198102Y-78004774D01*
X72009744Y-78082795D01*
X71840226Y-78196063D01*
X71796289Y-78240000D01*
X71081046Y-78240000D01*
X71030537Y-78145506D01*
X70951185Y-78048815D01*
X70891704Y-78000000D01*
X70951185Y-77951185D01*
X71030537Y-77854494D01*
X71081046Y-77760000D01*
X73685199Y-77760000D01*
X75590001Y-79664803D01*
X75590000Y-87961928D01*
X75350000Y-87961928D01*
X75225518Y-87974188D01*
X75105820Y-88010498D01*
X74995506Y-88069463D01*
X74898815Y-88148815D01*
X74819463Y-88245506D01*
X74760498Y-88355820D01*
X74724188Y-88475518D01*
X74711928Y-88600000D01*
X74711928Y-92400000D01*
X74724188Y-92524482D01*
X74760498Y-92644180D01*
X74819463Y-92754494D01*
X74898815Y-92851185D01*
X74995506Y-92930537D01*
X75105820Y-92989502D01*
X75225518Y-93025812D01*
X75350000Y-93038072D01*
X77350000Y-93038072D01*
X77474482Y-93025812D01*
X77594180Y-92989502D01*
X77704494Y-92930537D01*
X77801185Y-92851185D01*
X77880537Y-92754494D01*
X77939502Y-92644180D01*
X77975812Y-92524482D01*
X77988072Y-92400000D01*
X77988072Y-89586729D01*
X80314802Y-87260000D01*
X81044063Y-87260000D01*
X81024188Y-87325518D01*
X81011928Y-87450000D01*
X81011928Y-87493188D01*
X81007753Y-87494454D01*
X80875724Y-87565026D01*
X80875722Y-87565027D01*
X80875723Y-87565027D01*
X80788996Y-87636201D01*
X80788992Y-87636205D01*
X80759999Y-87659999D01*
X80736205Y-87688992D01*
X78988998Y-89436201D01*
X78960000Y-89459999D01*
X78936202Y-89488997D01*
X78936201Y-89488998D01*
X78865026Y-89575724D01*
X78794454Y-89707754D01*
X78778606Y-89760000D01*
X78759136Y-89824188D01*
X78750998Y-89851015D01*
X78736324Y-90000000D01*
X78740001Y-90037332D01*
X78740000Y-92235198D01*
X76334839Y-94640359D01*
X76300000Y-94636928D01*
X75800000Y-94636928D01*
X75765161Y-94640359D01*
X73938072Y-92813271D01*
X73938072Y-91900000D01*
X73925812Y-91775518D01*
X73889502Y-91655820D01*
X73830537Y-91545506D01*
X73751185Y-91448815D01*
X73654494Y-91369463D01*
X73544180Y-91310498D01*
X73424482Y-91274188D01*
X73382175Y-91270021D01*
X73402962Y-91252962D01*
X73513405Y-91118386D01*
X73595472Y-90964850D01*
X73646008Y-90798254D01*
X73663072Y-90625000D01*
X73663072Y-89375000D01*
X73646008Y-89201746D01*
X73595472Y-89035150D01*
X73513405Y-88881614D01*
X73402962Y-88747038D01*
X73268386Y-88636595D01*
X73114850Y-88554528D01*
X72948254Y-88503992D01*
X72775000Y-88486928D01*
X72025000Y-88486928D01*
X71851746Y-88503992D01*
X71685150Y-88554528D01*
X71531614Y-88636595D01*
X71397038Y-88747038D01*
X71286595Y-88881614D01*
X71204528Y-89035150D01*
X71153992Y-89201746D01*
X71136928Y-89375000D01*
X71136928Y-90625000D01*
X71153992Y-90798254D01*
X71204528Y-90964850D01*
X71286595Y-91118386D01*
X71397038Y-91252962D01*
X71464090Y-91307989D01*
X71455820Y-91310498D01*
X71345506Y-91369463D01*
X71248815Y-91448815D01*
X71169463Y-91545506D01*
X71110498Y-91655820D01*
X71074188Y-91775518D01*
X71061928Y-91900000D01*
X71061928Y-94100000D01*
X71074188Y-94224482D01*
X71110498Y-94344180D01*
X71169463Y-94454494D01*
X71206809Y-94500000D01*
X71169463Y-94545506D01*
X71110498Y-94655820D01*
X71074188Y-94775518D01*
X71061928Y-94900000D01*
X71065000Y-95714250D01*
X71223750Y-95873000D01*
X72373000Y-95873000D01*
X72373000Y-95853000D01*
X72627000Y-95853000D01*
X72627000Y-95873000D01*
X73776250Y-95873000D01*
X73935000Y-95714250D01*
X73937836Y-94962637D01*
X74911928Y-95936730D01*
X74911928Y-96475000D01*
X74928992Y-96648254D01*
X74979528Y-96814850D01*
X75061595Y-96968386D01*
X75172038Y-97102962D01*
X75306614Y-97213405D01*
X75460150Y-97295472D01*
X75626746Y-97346008D01*
X75800000Y-97363072D01*
X76300000Y-97363072D01*
X76473254Y-97346008D01*
X76639850Y-97295472D01*
X76793386Y-97213405D01*
X76927962Y-97102962D01*
X76933342Y-97096406D01*
X76998815Y-97176185D01*
X77095506Y-97255537D01*
X77205820Y-97314502D01*
X77325518Y-97350812D01*
X77450000Y-97363072D01*
X77664250Y-97360000D01*
X77823000Y-97201250D01*
X77823000Y-96127000D01*
X78077000Y-96127000D01*
X78077000Y-97201250D01*
X78235750Y-97360000D01*
X78450000Y-97363072D01*
X78574482Y-97350812D01*
X78694180Y-97314502D01*
X78804494Y-97255537D01*
X78901185Y-97176185D01*
X78980537Y-97079494D01*
X79039502Y-96969180D01*
X79075812Y-96849482D01*
X79088072Y-96725000D01*
X79085000Y-96285750D01*
X78926250Y-96127000D01*
X78077000Y-96127000D01*
X77823000Y-96127000D01*
X77803000Y-96127000D01*
X77803000Y-95900524D01*
X105990000Y-95900524D01*
X105990000Y-96099476D01*
X106028814Y-96294606D01*
X106104950Y-96478414D01*
X106215482Y-96643837D01*
X106356163Y-96784518D01*
X106521586Y-96895050D01*
X106705394Y-96971186D01*
X106900524Y-97010000D01*
X107099476Y-97010000D01*
X107294606Y-96971186D01*
X107478414Y-96895050D01*
X107643837Y-96784518D01*
X107784518Y-96643837D01*
X107895050Y-96478414D01*
X107971186Y-96294606D01*
X108010000Y-96099476D01*
X108010000Y-95900524D01*
X107971186Y-95705394D01*
X107895050Y-95521586D01*
X107784518Y-95356163D01*
X107643837Y-95215482D01*
X107478414Y-95104950D01*
X107294606Y-95028814D01*
X107099476Y-94990000D01*
X106900524Y-94990000D01*
X106705394Y-95028814D01*
X106521586Y-95104950D01*
X106356163Y-95215482D01*
X106215482Y-95356163D01*
X106104950Y-95521586D01*
X106028814Y-95705394D01*
X105990000Y-95900524D01*
X77803000Y-95900524D01*
X77803000Y-95873000D01*
X77823000Y-95873000D01*
X77823000Y-95853000D01*
X78077000Y-95853000D01*
X78077000Y-95873000D01*
X78926250Y-95873000D01*
X79085000Y-95714250D01*
X79088072Y-95275000D01*
X79075812Y-95150518D01*
X79039502Y-95030820D01*
X78996303Y-94950000D01*
X84136928Y-94950000D01*
X84149188Y-95074482D01*
X84185498Y-95194180D01*
X84244463Y-95304494D01*
X84323815Y-95401185D01*
X84420506Y-95480537D01*
X84530820Y-95539502D01*
X84650518Y-95575812D01*
X84775000Y-95588072D01*
X85214250Y-95585000D01*
X85373000Y-95426250D01*
X85373000Y-94577000D01*
X85627000Y-94577000D01*
X85627000Y-95426250D01*
X85785750Y-95585000D01*
X86225000Y-95588072D01*
X86349482Y-95575812D01*
X86469180Y-95539502D01*
X86579494Y-95480537D01*
X86676185Y-95401185D01*
X86755537Y-95304494D01*
X86814502Y-95194180D01*
X86835487Y-95125000D01*
X89211928Y-95125000D01*
X89224188Y-95249482D01*
X89260498Y-95369180D01*
X89319463Y-95479494D01*
X89398815Y-95576185D01*
X89495506Y-95655537D01*
X89605820Y-95714502D01*
X89725518Y-95750812D01*
X89850000Y-95763072D01*
X90214250Y-95760000D01*
X90373000Y-95601250D01*
X90373000Y-94589500D01*
X90627000Y-94589500D01*
X90627000Y-95601250D01*
X90785750Y-95760000D01*
X91150000Y-95763072D01*
X91274482Y-95750812D01*
X91394180Y-95714502D01*
X91504494Y-95655537D01*
X91601185Y-95576185D01*
X91680537Y-95479494D01*
X91739502Y-95369180D01*
X91775812Y-95249482D01*
X91788072Y-95125000D01*
X93211928Y-95125000D01*
X93224188Y-95249482D01*
X93260498Y-95369180D01*
X93319463Y-95479494D01*
X93398815Y-95576185D01*
X93495506Y-95655537D01*
X93605820Y-95714502D01*
X93725518Y-95750812D01*
X93850000Y-95763072D01*
X94214250Y-95760000D01*
X94373000Y-95601250D01*
X94373000Y-94589500D01*
X94627000Y-94589500D01*
X94627000Y-95601250D01*
X94785750Y-95760000D01*
X95150000Y-95763072D01*
X95274482Y-95750812D01*
X95394180Y-95714502D01*
X95504494Y-95655537D01*
X95601185Y-95576185D01*
X95680537Y-95479494D01*
X95739502Y-95369180D01*
X95775812Y-95249482D01*
X95788072Y-95125000D01*
X95785000Y-94748250D01*
X95626250Y-94589500D01*
X94627000Y-94589500D01*
X94373000Y-94589500D01*
X93373750Y-94589500D01*
X93215000Y-94748250D01*
X93211928Y-95125000D01*
X91788072Y-95125000D01*
X91785000Y-94748250D01*
X91626250Y-94589500D01*
X90627000Y-94589500D01*
X90373000Y-94589500D01*
X89373750Y-94589500D01*
X89215000Y-94748250D01*
X89211928Y-95125000D01*
X86835487Y-95125000D01*
X86850812Y-95074482D01*
X86863072Y-94950000D01*
X86860000Y-94735750D01*
X86701250Y-94577000D01*
X85627000Y-94577000D01*
X85373000Y-94577000D01*
X84298750Y-94577000D01*
X84140000Y-94735750D01*
X84136928Y-94950000D01*
X78996303Y-94950000D01*
X78980537Y-94920506D01*
X78901185Y-94823815D01*
X78804494Y-94744463D01*
X78694180Y-94685498D01*
X78574482Y-94649188D01*
X78484478Y-94640324D01*
X79574802Y-93550000D01*
X81011928Y-93550000D01*
X81024188Y-93674482D01*
X81060498Y-93794180D01*
X81119463Y-93904494D01*
X81198815Y-94001185D01*
X81295506Y-94080537D01*
X81405820Y-94139502D01*
X81525518Y-94175812D01*
X81650000Y-94188072D01*
X82364250Y-94185000D01*
X82523000Y-94026250D01*
X82523000Y-92927000D01*
X81173750Y-92927000D01*
X81015000Y-93085750D01*
X81011928Y-93550000D01*
X79574802Y-93550000D01*
X80011004Y-93113798D01*
X80040001Y-93090001D01*
X80134974Y-92974276D01*
X80205546Y-92842247D01*
X80249003Y-92698986D01*
X80260000Y-92587333D01*
X80260000Y-92587325D01*
X80263676Y-92550000D01*
X80260000Y-92512675D01*
X80260000Y-90314801D01*
X81056804Y-89517998D01*
X81024188Y-89625518D01*
X81011928Y-89750000D01*
X81011928Y-91250000D01*
X81024188Y-91374482D01*
X81060498Y-91494180D01*
X81119463Y-91604494D01*
X81156809Y-91650000D01*
X81119463Y-91695506D01*
X81060498Y-91805820D01*
X81024188Y-91925518D01*
X81011928Y-92050000D01*
X81015000Y-92514250D01*
X81173750Y-92673000D01*
X82523000Y-92673000D01*
X82523000Y-92653000D01*
X82777000Y-92653000D01*
X82777000Y-92673000D01*
X82797000Y-92673000D01*
X82797000Y-92927000D01*
X82777000Y-92927000D01*
X82777000Y-94026250D01*
X82935750Y-94185000D01*
X83650000Y-94188072D01*
X83774482Y-94175812D01*
X83894180Y-94139502D01*
X84004494Y-94080537D01*
X84101185Y-94001185D01*
X84137036Y-93957501D01*
X84140000Y-94164250D01*
X84298750Y-94323000D01*
X85373000Y-94323000D01*
X85373000Y-94303000D01*
X85627000Y-94303000D01*
X85627000Y-94323000D01*
X86701250Y-94323000D01*
X86860000Y-94164250D01*
X86863072Y-93950000D01*
X86850812Y-93825518D01*
X86814502Y-93705820D01*
X86755537Y-93595506D01*
X86676185Y-93498815D01*
X86596406Y-93433342D01*
X86602962Y-93427962D01*
X86713405Y-93293386D01*
X86795472Y-93139850D01*
X86846008Y-92973254D01*
X86863072Y-92800000D01*
X86863072Y-92300000D01*
X86846008Y-92126746D01*
X86795472Y-91960150D01*
X86713405Y-91806614D01*
X86602962Y-91672038D01*
X86468386Y-91561595D01*
X86314850Y-91479528D01*
X86148254Y-91428992D01*
X85975000Y-91411928D01*
X85436730Y-91411928D01*
X85284802Y-91260000D01*
X85737677Y-91260000D01*
X85774999Y-91263676D01*
X85812321Y-91260000D01*
X85812332Y-91260000D01*
X85923985Y-91249003D01*
X86067246Y-91205546D01*
X86199275Y-91134974D01*
X86315000Y-91040001D01*
X86338803Y-91010997D01*
X89176909Y-88172892D01*
X89161928Y-88324999D01*
X89161928Y-88850001D01*
X89178992Y-89023255D01*
X89229528Y-89189851D01*
X89311595Y-89343387D01*
X89422038Y-89477962D01*
X89448891Y-89500000D01*
X89422038Y-89522038D01*
X89311595Y-89656613D01*
X89229528Y-89810149D01*
X89178992Y-89976745D01*
X89161928Y-90149999D01*
X89161928Y-90675001D01*
X89178992Y-90848255D01*
X89229528Y-91014851D01*
X89311595Y-91168387D01*
X89422038Y-91302962D01*
X89556613Y-91413405D01*
X89567109Y-91419015D01*
X89472038Y-91497038D01*
X89361595Y-91631614D01*
X89279528Y-91785150D01*
X89228992Y-91951746D01*
X89211928Y-92125000D01*
X89211928Y-92950000D01*
X89228992Y-93123254D01*
X89279528Y-93289850D01*
X89345664Y-93413580D01*
X89319463Y-93445506D01*
X89260498Y-93555820D01*
X89224188Y-93675518D01*
X89211928Y-93800000D01*
X89215000Y-94176750D01*
X89373750Y-94335500D01*
X90373000Y-94335500D01*
X90373000Y-94315500D01*
X90627000Y-94315500D01*
X90627000Y-94335500D01*
X91626250Y-94335500D01*
X91785000Y-94176750D01*
X91788072Y-93800000D01*
X91775812Y-93675518D01*
X91739502Y-93555820D01*
X91680537Y-93445506D01*
X91654336Y-93413580D01*
X91720472Y-93289850D01*
X91771008Y-93123254D01*
X91788072Y-92950000D01*
X91788072Y-92125000D01*
X91771008Y-91951746D01*
X91720472Y-91785150D01*
X91638405Y-91631614D01*
X91527962Y-91497038D01*
X91432891Y-91419015D01*
X91443387Y-91413405D01*
X91577962Y-91302962D01*
X91688405Y-91168387D01*
X91770472Y-91014851D01*
X91821008Y-90848255D01*
X91838072Y-90675001D01*
X91838072Y-90149999D01*
X91821008Y-89976745D01*
X91770472Y-89810149D01*
X91688405Y-89656613D01*
X91577962Y-89522038D01*
X91551109Y-89500000D01*
X91577962Y-89477962D01*
X91688405Y-89343387D01*
X91770472Y-89189851D01*
X91821008Y-89023255D01*
X91838072Y-88850001D01*
X91838072Y-88324999D01*
X91821008Y-88151745D01*
X91770472Y-87985149D01*
X91688405Y-87831613D01*
X91577962Y-87697038D01*
X91524767Y-87653382D01*
X91535000Y-87601939D01*
X91535000Y-87534999D01*
X93465000Y-87534999D01*
X93465000Y-87601939D01*
X93475233Y-87653382D01*
X93422038Y-87697038D01*
X93311595Y-87831613D01*
X93229528Y-87985149D01*
X93178992Y-88151745D01*
X93161928Y-88324999D01*
X93161928Y-88850001D01*
X93178992Y-89023255D01*
X93229528Y-89189851D01*
X93311595Y-89343387D01*
X93422038Y-89477962D01*
X93448891Y-89500000D01*
X93422038Y-89522038D01*
X93311595Y-89656613D01*
X93229528Y-89810149D01*
X93178992Y-89976745D01*
X93161928Y-90149999D01*
X93161928Y-90675001D01*
X93178992Y-90848255D01*
X93229528Y-91014851D01*
X93311595Y-91168387D01*
X93422038Y-91302962D01*
X93556613Y-91413405D01*
X93567109Y-91419015D01*
X93472038Y-91497038D01*
X93361595Y-91631614D01*
X93279528Y-91785150D01*
X93228992Y-91951746D01*
X93211928Y-92125000D01*
X93211928Y-92950000D01*
X93228992Y-93123254D01*
X93279528Y-93289850D01*
X93345664Y-93413580D01*
X93319463Y-93445506D01*
X93260498Y-93555820D01*
X93224188Y-93675518D01*
X93211928Y-93800000D01*
X93215000Y-94176750D01*
X93373750Y-94335500D01*
X94373000Y-94335500D01*
X94373000Y-94315500D01*
X94627000Y-94315500D01*
X94627000Y-94335500D01*
X95626250Y-94335500D01*
X95785000Y-94176750D01*
X95788072Y-93800000D01*
X95775812Y-93675518D01*
X95739502Y-93555820D01*
X95680537Y-93445506D01*
X95654336Y-93413580D01*
X95720472Y-93289850D01*
X95771008Y-93123254D01*
X95788072Y-92950000D01*
X95788072Y-92125000D01*
X95771008Y-91951746D01*
X95720472Y-91785150D01*
X95638405Y-91631614D01*
X95527962Y-91497038D01*
X95432891Y-91419015D01*
X95443387Y-91413405D01*
X95577962Y-91302962D01*
X95688405Y-91168387D01*
X95770472Y-91014851D01*
X95821008Y-90848255D01*
X95838072Y-90675001D01*
X95838072Y-90149999D01*
X95821008Y-89976745D01*
X95770472Y-89810149D01*
X95688405Y-89656613D01*
X95577962Y-89522038D01*
X95551109Y-89500000D01*
X95577962Y-89477962D01*
X95688405Y-89343387D01*
X95716334Y-89291135D01*
X96386201Y-89961003D01*
X96409999Y-89990001D01*
X96438997Y-90013799D01*
X96525723Y-90084974D01*
X96591725Y-90120253D01*
X96657753Y-90155546D01*
X96801014Y-90199003D01*
X96912667Y-90210000D01*
X96912677Y-90210000D01*
X96950000Y-90213676D01*
X96987323Y-90210000D01*
X97189919Y-90210000D01*
X97245406Y-90255537D01*
X97355720Y-90314502D01*
X97475418Y-90350812D01*
X97599900Y-90363072D01*
X98799900Y-90363072D01*
X98924382Y-90350812D01*
X99044080Y-90314502D01*
X99154394Y-90255537D01*
X99251085Y-90176185D01*
X99330437Y-90079494D01*
X99389402Y-89969180D01*
X99390349Y-89966058D01*
X99409999Y-89990001D01*
X99438997Y-90013799D01*
X99525723Y-90084974D01*
X99591725Y-90120253D01*
X99657753Y-90155546D01*
X99762473Y-90187312D01*
X99845606Y-90255537D01*
X99955920Y-90314502D01*
X100075618Y-90350812D01*
X100200100Y-90363072D01*
X101400100Y-90363072D01*
X101524582Y-90350812D01*
X101644280Y-90314502D01*
X101754594Y-90255537D01*
X101851285Y-90176185D01*
X101930637Y-90079494D01*
X101989602Y-89969180D01*
X102025912Y-89849482D01*
X102038172Y-89725000D01*
X102038172Y-89175000D01*
X102025912Y-89050518D01*
X102004182Y-88978884D01*
X102436928Y-89411630D01*
X102436928Y-89450001D01*
X102453992Y-89623255D01*
X102504528Y-89789851D01*
X102586595Y-89943387D01*
X102610298Y-89972269D01*
X102561595Y-90031614D01*
X102479528Y-90185150D01*
X102428992Y-90351746D01*
X102411928Y-90525000D01*
X102411928Y-91475000D01*
X102428992Y-91648254D01*
X102479528Y-91814850D01*
X102561595Y-91968386D01*
X102672038Y-92102962D01*
X102806614Y-92213405D01*
X102960150Y-92295472D01*
X103126746Y-92346008D01*
X103300000Y-92363072D01*
X103800000Y-92363072D01*
X103973254Y-92346008D01*
X104139850Y-92295472D01*
X104293386Y-92213405D01*
X104427962Y-92102962D01*
X104433342Y-92096406D01*
X104498815Y-92176185D01*
X104595506Y-92255537D01*
X104705820Y-92314502D01*
X104825518Y-92350812D01*
X104950000Y-92363072D01*
X105164250Y-92360000D01*
X105323000Y-92201250D01*
X105323000Y-91127000D01*
X105577000Y-91127000D01*
X105577000Y-92201250D01*
X105735750Y-92360000D01*
X105950000Y-92363072D01*
X106074482Y-92350812D01*
X106194180Y-92314502D01*
X106304494Y-92255537D01*
X106401185Y-92176185D01*
X106480537Y-92079494D01*
X106539502Y-91969180D01*
X106575654Y-91850000D01*
X111011928Y-91850000D01*
X111024188Y-91974482D01*
X111060498Y-92094180D01*
X111119463Y-92204494D01*
X111198815Y-92301185D01*
X111295506Y-92380537D01*
X111405820Y-92439502D01*
X111525518Y-92475812D01*
X111650000Y-92488072D01*
X112214250Y-92485000D01*
X112373000Y-92326250D01*
X112373000Y-91127000D01*
X112627000Y-91127000D01*
X112627000Y-92326250D01*
X112785750Y-92485000D01*
X113350000Y-92488072D01*
X113474482Y-92475812D01*
X113594180Y-92439502D01*
X113704494Y-92380537D01*
X113801185Y-92301185D01*
X113880537Y-92204494D01*
X113939502Y-92094180D01*
X113975812Y-91974482D01*
X113988072Y-91850000D01*
X113985000Y-91285750D01*
X113826250Y-91127000D01*
X112627000Y-91127000D01*
X112373000Y-91127000D01*
X111173750Y-91127000D01*
X111015000Y-91285750D01*
X111011928Y-91850000D01*
X106575654Y-91850000D01*
X106575812Y-91849482D01*
X106588072Y-91725000D01*
X106585000Y-91285750D01*
X106426250Y-91127000D01*
X105577000Y-91127000D01*
X105323000Y-91127000D01*
X105303000Y-91127000D01*
X105303000Y-90873000D01*
X105323000Y-90873000D01*
X105323000Y-90853000D01*
X105577000Y-90853000D01*
X105577000Y-90873000D01*
X106426250Y-90873000D01*
X106585000Y-90714250D01*
X106588072Y-90275000D01*
X106575812Y-90150518D01*
X106539502Y-90030820D01*
X106480537Y-89920506D01*
X106447290Y-89879994D01*
X106495472Y-89789851D01*
X106546008Y-89623255D01*
X106563072Y-89450001D01*
X106563072Y-88549999D01*
X106546008Y-88376745D01*
X106516671Y-88280034D01*
X106651745Y-88321008D01*
X106824999Y-88338072D01*
X107350001Y-88338072D01*
X107523255Y-88321008D01*
X107689851Y-88270472D01*
X107843387Y-88188405D01*
X107977962Y-88077962D01*
X108000000Y-88051109D01*
X108022038Y-88077962D01*
X108156613Y-88188405D01*
X108310149Y-88270472D01*
X108476745Y-88321008D01*
X108649999Y-88338072D01*
X109175001Y-88338072D01*
X109348255Y-88321008D01*
X109514851Y-88270472D01*
X109668387Y-88188405D01*
X109802962Y-88077962D01*
X109913405Y-87943387D01*
X109995472Y-87789851D01*
X110004527Y-87760000D01*
X110725199Y-87760000D01*
X111058791Y-88093592D01*
X111015000Y-88313740D01*
X111015000Y-88606260D01*
X111072068Y-88893158D01*
X111184010Y-89163411D01*
X111346525Y-89406632D01*
X111478380Y-89538487D01*
X111405820Y-89560498D01*
X111295506Y-89619463D01*
X111198815Y-89698815D01*
X111119463Y-89795506D01*
X111060498Y-89905820D01*
X111024188Y-90025518D01*
X111011928Y-90150000D01*
X111015000Y-90714250D01*
X111173750Y-90873000D01*
X112373000Y-90873000D01*
X112373000Y-90853000D01*
X112627000Y-90853000D01*
X112627000Y-90873000D01*
X113826250Y-90873000D01*
X113985000Y-90714250D01*
X113988072Y-90150000D01*
X113975812Y-90025518D01*
X113939502Y-89905820D01*
X113880537Y-89795506D01*
X113801185Y-89698815D01*
X113704494Y-89619463D01*
X113594180Y-89560498D01*
X113521620Y-89538487D01*
X113653475Y-89406632D01*
X113815990Y-89163411D01*
X113927932Y-88893158D01*
X113985000Y-88606260D01*
X113985000Y-88313740D01*
X113927932Y-88026842D01*
X113815990Y-87756589D01*
X113653475Y-87513368D01*
X113446632Y-87306525D01*
X113272240Y-87190000D01*
X113446632Y-87073475D01*
X113653475Y-86866632D01*
X113815990Y-86623411D01*
X113927932Y-86353158D01*
X113985000Y-86066260D01*
X113985000Y-85773740D01*
X113927932Y-85486842D01*
X113815990Y-85216589D01*
X113653475Y-84973368D01*
X113446632Y-84766525D01*
X113203411Y-84604010D01*
X112933158Y-84492068D01*
X112646260Y-84435000D01*
X112353740Y-84435000D01*
X112135166Y-84478477D01*
X112120001Y-84459999D01*
X112004276Y-84365026D01*
X111872247Y-84294454D01*
X111728986Y-84250997D01*
X111617333Y-84240000D01*
X111617322Y-84240000D01*
X111580000Y-84236324D01*
X111542678Y-84240000D01*
X98703711Y-84240000D01*
X98659774Y-84196063D01*
X98490256Y-84082795D01*
X98301898Y-84004774D01*
X98101939Y-83965000D01*
X97898061Y-83965000D01*
X97760000Y-83992462D01*
X97760000Y-81050000D01*
X106061928Y-81050000D01*
X106074188Y-81174482D01*
X106110498Y-81294180D01*
X106169463Y-81404494D01*
X106248815Y-81501185D01*
X106345506Y-81580537D01*
X106455820Y-81639502D01*
X106575518Y-81675812D01*
X106700000Y-81688072D01*
X107714250Y-81685000D01*
X107873000Y-81526250D01*
X107873000Y-80627000D01*
X108127000Y-80627000D01*
X108127000Y-81526250D01*
X108285750Y-81685000D01*
X109300000Y-81688072D01*
X109424482Y-81675812D01*
X109544180Y-81639502D01*
X109654494Y-81580537D01*
X109751185Y-81501185D01*
X109830537Y-81404494D01*
X109889502Y-81294180D01*
X109925812Y-81174482D01*
X109938072Y-81050000D01*
X109936293Y-80896890D01*
X111058524Y-80896890D01*
X111103175Y-81044099D01*
X111228359Y-81306920D01*
X111402412Y-81540269D01*
X111618645Y-81735178D01*
X111868748Y-81884157D01*
X112143109Y-81981481D01*
X112373000Y-81860814D01*
X112373000Y-80667000D01*
X112627000Y-80667000D01*
X112627000Y-81860814D01*
X112856891Y-81981481D01*
X113131252Y-81884157D01*
X113381355Y-81735178D01*
X113597588Y-81540269D01*
X113771641Y-81306920D01*
X113896825Y-81044099D01*
X113941476Y-80896890D01*
X113820155Y-80667000D01*
X112627000Y-80667000D01*
X112373000Y-80667000D01*
X111179845Y-80667000D01*
X111058524Y-80896890D01*
X109936293Y-80896890D01*
X109935000Y-80785750D01*
X109776250Y-80627000D01*
X108127000Y-80627000D01*
X107873000Y-80627000D01*
X106223750Y-80627000D01*
X106065000Y-80785750D01*
X106061928Y-81050000D01*
X97760000Y-81050000D01*
X97760000Y-71037323D01*
X97761928Y-71017748D01*
X97761928Y-72800000D01*
X97774188Y-72924482D01*
X97810498Y-73044180D01*
X97869463Y-73154494D01*
X97948815Y-73251185D01*
X98045506Y-73330537D01*
X98155820Y-73389502D01*
X98275518Y-73425812D01*
X98400000Y-73438072D01*
X101600000Y-73438072D01*
X101724482Y-73425812D01*
X101844180Y-73389502D01*
X101954494Y-73330537D01*
X102051185Y-73251185D01*
X102130537Y-73154494D01*
X102189502Y-73044180D01*
X102225812Y-72924482D01*
X102238072Y-72800000D01*
X102238072Y-69600000D01*
X102225812Y-69475518D01*
X102189502Y-69355820D01*
X102130537Y-69245506D01*
X102051185Y-69148815D01*
X101954494Y-69069463D01*
X101844180Y-69010498D01*
X101724482Y-68974188D01*
X101600000Y-68961928D01*
X98400000Y-68961928D01*
X98275518Y-68974188D01*
X98155820Y-69010498D01*
X98045506Y-69069463D01*
X97948815Y-69148815D01*
X97869463Y-69245506D01*
X97810498Y-69355820D01*
X97774188Y-69475518D01*
X97761928Y-69600000D01*
X97761928Y-70982252D01*
X97760000Y-70962677D01*
X97760000Y-70962667D01*
X97749003Y-70851014D01*
X97705546Y-70707753D01*
X97704366Y-70705546D01*
X97634974Y-70575723D01*
X97563799Y-70488997D01*
X97540001Y-70459999D01*
X97511004Y-70436202D01*
X95063804Y-67989003D01*
X95040001Y-67959999D01*
X94924276Y-67865026D01*
X94792247Y-67794454D01*
X94648986Y-67750997D01*
X94537333Y-67740000D01*
X94537322Y-67740000D01*
X94500000Y-67736324D01*
X94462678Y-67740000D01*
X93899870Y-67740000D01*
X93889502Y-67705820D01*
X93830537Y-67595506D01*
X93752158Y-67500000D01*
X93830537Y-67404494D01*
X93889502Y-67294180D01*
X93925812Y-67174482D01*
X93938072Y-67050000D01*
X93938072Y-65950000D01*
X93925812Y-65825518D01*
X93889502Y-65705820D01*
X93865010Y-65660000D01*
X106134990Y-65660000D01*
X106110498Y-65705820D01*
X106074188Y-65825518D01*
X106061928Y-65950000D01*
X106061928Y-67050000D01*
X106074188Y-67174482D01*
X106110498Y-67294180D01*
X106169463Y-67404494D01*
X106247842Y-67500000D01*
X106169463Y-67595506D01*
X106110498Y-67705820D01*
X106074188Y-67825518D01*
X106061928Y-67950000D01*
X106061928Y-68630685D01*
X105990256Y-68582795D01*
X105801898Y-68504774D01*
X105601939Y-68465000D01*
X105398061Y-68465000D01*
X105198102Y-68504774D01*
X105009744Y-68582795D01*
X104840226Y-68696063D01*
X104696063Y-68840226D01*
X104582795Y-69009744D01*
X104504774Y-69198102D01*
X104465000Y-69398061D01*
X104465000Y-69601939D01*
X104504774Y-69801898D01*
X104582795Y-69990256D01*
X104696063Y-70159774D01*
X104840226Y-70303937D01*
X105009744Y-70417205D01*
X105198102Y-70495226D01*
X105398061Y-70535000D01*
X105460199Y-70535000D01*
X105936200Y-71011002D01*
X105959999Y-71040001D01*
X105988997Y-71063799D01*
X106069820Y-71130128D01*
X106070434Y-71136368D01*
X105990256Y-71082795D01*
X105801898Y-71004774D01*
X105601939Y-70965000D01*
X105398061Y-70965000D01*
X105198102Y-71004774D01*
X105009744Y-71082795D01*
X104840226Y-71196063D01*
X104696063Y-71340226D01*
X104582795Y-71509744D01*
X104504774Y-71698102D01*
X104465000Y-71898061D01*
X104465000Y-72101939D01*
X104504774Y-72301898D01*
X104582795Y-72490256D01*
X104696063Y-72659774D01*
X104840226Y-72803937D01*
X105009744Y-72917205D01*
X105198102Y-72995226D01*
X105398061Y-73035000D01*
X105455895Y-73035000D01*
X105459999Y-73040001D01*
X105575724Y-73134974D01*
X105707753Y-73205546D01*
X105851014Y-73249003D01*
X105962667Y-73260000D01*
X105962675Y-73260000D01*
X106000000Y-73263676D01*
X106037325Y-73260000D01*
X106100130Y-73260000D01*
X106110498Y-73294180D01*
X106169463Y-73404494D01*
X106247842Y-73500000D01*
X106169463Y-73595506D01*
X106110498Y-73705820D01*
X106100130Y-73740000D01*
X104703711Y-73740000D01*
X104659774Y-73696063D01*
X104490256Y-73582795D01*
X104301898Y-73504774D01*
X104101939Y-73465000D01*
X103898061Y-73465000D01*
X103698102Y-73504774D01*
X103509744Y-73582795D01*
X103340226Y-73696063D01*
X103196063Y-73840226D01*
X103082795Y-74009744D01*
X103004774Y-74198102D01*
X102965000Y-74398061D01*
X102965000Y-74601939D01*
X103004774Y-74801898D01*
X103082795Y-74990256D01*
X103196063Y-75159774D01*
X103340226Y-75303937D01*
X103509744Y-75417205D01*
X103698102Y-75495226D01*
X103722103Y-75500000D01*
X103698102Y-75504774D01*
X103509744Y-75582795D01*
X103340226Y-75696063D01*
X103196063Y-75840226D01*
X103082795Y-76009744D01*
X103004774Y-76198102D01*
X102965000Y-76398061D01*
X102965000Y-76601939D01*
X103004774Y-76801898D01*
X103082795Y-76990256D01*
X103196063Y-77159774D01*
X103340226Y-77303937D01*
X103509744Y-77417205D01*
X103698102Y-77495226D01*
X103898061Y-77535000D01*
X104101939Y-77535000D01*
X104301898Y-77495226D01*
X104490256Y-77417205D01*
X104659774Y-77303937D01*
X104703711Y-77260000D01*
X106100130Y-77260000D01*
X106110498Y-77294180D01*
X106169463Y-77404494D01*
X106247842Y-77500000D01*
X106169463Y-77595506D01*
X106127308Y-77674370D01*
X105990256Y-77582795D01*
X105801898Y-77504774D01*
X105601939Y-77465000D01*
X105398061Y-77465000D01*
X105198102Y-77504774D01*
X105009744Y-77582795D01*
X104840226Y-77696063D01*
X104696063Y-77840226D01*
X104582795Y-78009744D01*
X104504774Y-78198102D01*
X104465000Y-78398061D01*
X104465000Y-78601939D01*
X104504774Y-78801898D01*
X104582795Y-78990256D01*
X104696063Y-79159774D01*
X104840226Y-79303937D01*
X105009744Y-79417205D01*
X105198102Y-79495226D01*
X105398061Y-79535000D01*
X105601939Y-79535000D01*
X105801898Y-79495226D01*
X105990256Y-79417205D01*
X106127308Y-79325630D01*
X106169463Y-79404494D01*
X106247842Y-79500000D01*
X106169463Y-79595506D01*
X106110498Y-79705820D01*
X106074188Y-79825518D01*
X106061928Y-79950000D01*
X106065000Y-80214250D01*
X106223750Y-80373000D01*
X107873000Y-80373000D01*
X107873000Y-80353000D01*
X108127000Y-80353000D01*
X108127000Y-80373000D01*
X109776250Y-80373000D01*
X109935000Y-80214250D01*
X109938072Y-79950000D01*
X109925812Y-79825518D01*
X109889502Y-79705820D01*
X109830537Y-79595506D01*
X109752158Y-79500000D01*
X109830537Y-79404494D01*
X109889502Y-79294180D01*
X109925812Y-79174482D01*
X109938072Y-79050000D01*
X109938072Y-77950000D01*
X109925812Y-77825518D01*
X109889502Y-77705820D01*
X109830537Y-77595506D01*
X109752158Y-77500000D01*
X109830537Y-77404494D01*
X109889502Y-77294180D01*
X109925812Y-77174482D01*
X109938072Y-77050000D01*
X109938072Y-76512874D01*
X111011928Y-77586730D01*
X111011928Y-78850000D01*
X111024188Y-78974482D01*
X111060498Y-79094180D01*
X111119463Y-79204494D01*
X111198815Y-79301185D01*
X111295506Y-79380537D01*
X111405820Y-79439502D01*
X111486466Y-79463966D01*
X111402412Y-79539731D01*
X111228359Y-79773080D01*
X111103175Y-80035901D01*
X111058524Y-80183110D01*
X111179845Y-80413000D01*
X112373000Y-80413000D01*
X112373000Y-80393000D01*
X112627000Y-80393000D01*
X112627000Y-80413000D01*
X113820155Y-80413000D01*
X113941476Y-80183110D01*
X113896825Y-80035901D01*
X113771641Y-79773080D01*
X113597588Y-79539731D01*
X113513534Y-79463966D01*
X113594180Y-79439502D01*
X113704494Y-79380537D01*
X113801185Y-79301185D01*
X113880537Y-79204494D01*
X113939502Y-79094180D01*
X113975812Y-78974482D01*
X113988072Y-78850000D01*
X113988072Y-77150000D01*
X113975812Y-77025518D01*
X113939502Y-76905820D01*
X113880537Y-76795506D01*
X113801185Y-76698815D01*
X113704494Y-76619463D01*
X113594180Y-76560498D01*
X113474482Y-76524188D01*
X113350000Y-76511928D01*
X112086730Y-76511928D01*
X109938072Y-74363271D01*
X109938072Y-73950000D01*
X109925812Y-73825518D01*
X109889502Y-73705820D01*
X109830537Y-73595506D01*
X109752158Y-73500000D01*
X109830537Y-73404494D01*
X109889502Y-73294180D01*
X109925812Y-73174482D01*
X109938072Y-73050000D01*
X109938072Y-71950000D01*
X109925812Y-71825518D01*
X109889502Y-71705820D01*
X109830537Y-71595506D01*
X109752158Y-71500000D01*
X109830537Y-71404494D01*
X109889502Y-71294180D01*
X109925812Y-71174482D01*
X109938072Y-71050000D01*
X109938072Y-70513282D01*
X109960000Y-70540001D01*
X109988998Y-70563799D01*
X111011928Y-71586730D01*
X111011928Y-72850000D01*
X111024188Y-72974482D01*
X111060498Y-73094180D01*
X111119463Y-73204494D01*
X111198815Y-73301185D01*
X111295506Y-73380537D01*
X111405820Y-73439502D01*
X111525518Y-73475812D01*
X111650000Y-73488072D01*
X113350000Y-73488072D01*
X113474482Y-73475812D01*
X113594180Y-73439502D01*
X113704494Y-73380537D01*
X113801185Y-73301185D01*
X113880537Y-73204494D01*
X113939502Y-73094180D01*
X113975812Y-72974482D01*
X113988072Y-72850000D01*
X113988072Y-71150000D01*
X113975812Y-71025518D01*
X113939502Y-70905820D01*
X113880537Y-70795506D01*
X113801185Y-70698815D01*
X113704494Y-70619463D01*
X113594180Y-70560498D01*
X113521620Y-70538487D01*
X113653475Y-70406632D01*
X113815990Y-70163411D01*
X113927932Y-69893158D01*
X113985000Y-69606260D01*
X113985000Y-69313740D01*
X113927932Y-69026842D01*
X113815990Y-68756589D01*
X113653475Y-68513368D01*
X113446632Y-68306525D01*
X113264466Y-68184805D01*
X113381355Y-68115178D01*
X113597588Y-67920269D01*
X113771641Y-67686920D01*
X113896825Y-67424099D01*
X113941476Y-67276890D01*
X113820155Y-67047000D01*
X112627000Y-67047000D01*
X112627000Y-67067000D01*
X112373000Y-67067000D01*
X112373000Y-67047000D01*
X112353000Y-67047000D01*
X112353000Y-66793000D01*
X112373000Y-66793000D01*
X112373000Y-65599186D01*
X112627000Y-65599186D01*
X112627000Y-66793000D01*
X113820155Y-66793000D01*
X113941476Y-66563110D01*
X113896825Y-66415901D01*
X113771641Y-66153080D01*
X113597588Y-65919731D01*
X113381355Y-65724822D01*
X113131252Y-65575843D01*
X112856891Y-65478519D01*
X112627000Y-65599186D01*
X112373000Y-65599186D01*
X112143109Y-65478519D01*
X111868748Y-65575843D01*
X111618645Y-65724822D01*
X111402412Y-65919731D01*
X111228359Y-66153080D01*
X111103175Y-66415901D01*
X111058524Y-66563110D01*
X111179844Y-66792998D01*
X111015000Y-66792998D01*
X111015000Y-66900199D01*
X110103804Y-65989003D01*
X110080001Y-65959999D01*
X109964276Y-65865026D01*
X109927782Y-65845519D01*
X109925812Y-65825518D01*
X109889502Y-65705820D01*
X109830537Y-65595506D01*
X109751185Y-65498815D01*
X109654494Y-65419463D01*
X109544180Y-65360498D01*
X109424482Y-65324188D01*
X109300000Y-65311928D01*
X108581636Y-65311928D01*
X108612710Y-65253793D01*
X108650450Y-65129383D01*
X108663193Y-65000000D01*
X108660000Y-64967581D01*
X108660000Y-59127000D01*
X111569012Y-59127000D01*
X111378882Y-59252627D01*
X111088351Y-59797557D01*
X110909713Y-60388696D01*
X110896439Y-60524940D01*
X110895050Y-60521586D01*
X110784518Y-60356163D01*
X110643837Y-60215482D01*
X110478414Y-60104950D01*
X110294606Y-60028814D01*
X110099476Y-59990000D01*
X109900524Y-59990000D01*
X109705394Y-60028814D01*
X109521586Y-60104950D01*
X109356163Y-60215482D01*
X109215482Y-60356163D01*
X109104950Y-60521586D01*
X109028814Y-60705394D01*
X108990000Y-60900524D01*
X108990000Y-61099476D01*
X109028814Y-61294606D01*
X109104950Y-61478414D01*
X109215482Y-61643837D01*
X109356163Y-61784518D01*
X109521586Y-61895050D01*
X109705394Y-61971186D01*
X109900524Y-62010000D01*
X110099476Y-62010000D01*
X110294606Y-61971186D01*
X110478414Y-61895050D01*
X110643837Y-61784518D01*
X110784518Y-61643837D01*
X110895050Y-61478414D01*
X110896727Y-61474365D01*
X110911010Y-61617831D01*
X111090897Y-62208592D01*
X111378882Y-62747373D01*
X111796852Y-63023543D01*
X113820395Y-61000000D01*
X113806253Y-60985858D01*
X113985858Y-60806253D01*
X114000000Y-60820395D01*
X114014143Y-60806253D01*
X114193748Y-60985858D01*
X114179605Y-61000000D01*
X114193748Y-61014143D01*
X114014143Y-61193748D01*
X114000000Y-61179605D01*
X111976457Y-63203148D01*
X112252627Y-63621118D01*
X112797557Y-63911649D01*
X113388696Y-64090287D01*
X114003328Y-64150168D01*
X114617831Y-64088990D01*
X115208592Y-63909103D01*
X115747373Y-63621118D01*
X115873000Y-63430988D01*
X115873000Y-93569012D01*
X115747373Y-93378882D01*
X115202443Y-93088351D01*
X114611304Y-92909713D01*
X113996672Y-92849832D01*
X113382169Y-92911010D01*
X112791408Y-93090897D01*
X112252627Y-93378882D01*
X111976457Y-93796852D01*
X114000000Y-95820395D01*
X114014143Y-95806253D01*
X114193748Y-95985858D01*
X114179605Y-96000000D01*
X114193748Y-96014143D01*
X114014143Y-96193748D01*
X114000000Y-96179605D01*
X113985858Y-96193748D01*
X113806253Y-96014143D01*
X113820395Y-96000000D01*
X111796852Y-93976457D01*
X111378882Y-94252627D01*
X111088351Y-94797557D01*
X110909713Y-95388696D01*
X110849832Y-96003328D01*
X110911010Y-96617831D01*
X111090897Y-97208592D01*
X111378882Y-97747373D01*
X111569012Y-97873000D01*
X59127000Y-97873000D01*
X59127000Y-96950000D01*
X59661928Y-96950000D01*
X59674188Y-97074482D01*
X59710498Y-97194180D01*
X59769463Y-97304494D01*
X59848815Y-97401185D01*
X59945506Y-97480537D01*
X60055820Y-97539502D01*
X60175518Y-97575812D01*
X60300000Y-97588072D01*
X60864250Y-97585000D01*
X61023000Y-97426250D01*
X61023000Y-96077000D01*
X61277000Y-96077000D01*
X61277000Y-97426250D01*
X61435750Y-97585000D01*
X62000000Y-97588072D01*
X62124482Y-97575812D01*
X62244180Y-97539502D01*
X62354494Y-97480537D01*
X62451185Y-97401185D01*
X62530537Y-97304494D01*
X62589502Y-97194180D01*
X62625812Y-97074482D01*
X62638072Y-96950000D01*
X65111928Y-96950000D01*
X65124188Y-97074482D01*
X65160498Y-97194180D01*
X65219463Y-97304494D01*
X65298815Y-97401185D01*
X65395506Y-97480537D01*
X65505820Y-97539502D01*
X65625518Y-97575812D01*
X65750000Y-97588072D01*
X66314250Y-97585000D01*
X66473000Y-97426250D01*
X66473000Y-96077000D01*
X66727000Y-96077000D01*
X66727000Y-97426250D01*
X66885750Y-97585000D01*
X67450000Y-97588072D01*
X67574482Y-97575812D01*
X67694180Y-97539502D01*
X67804494Y-97480537D01*
X67901185Y-97401185D01*
X67980537Y-97304494D01*
X68039502Y-97194180D01*
X68068071Y-97100000D01*
X71061928Y-97100000D01*
X71074188Y-97224482D01*
X71110498Y-97344180D01*
X71169463Y-97454494D01*
X71248815Y-97551185D01*
X71345506Y-97630537D01*
X71455820Y-97689502D01*
X71575518Y-97725812D01*
X71700000Y-97738072D01*
X72214250Y-97735000D01*
X72373000Y-97576250D01*
X72373000Y-96127000D01*
X72627000Y-96127000D01*
X72627000Y-97576250D01*
X72785750Y-97735000D01*
X73300000Y-97738072D01*
X73424482Y-97725812D01*
X73544180Y-97689502D01*
X73654494Y-97630537D01*
X73751185Y-97551185D01*
X73830537Y-97454494D01*
X73889502Y-97344180D01*
X73925812Y-97224482D01*
X73938072Y-97100000D01*
X73935000Y-96285750D01*
X73776250Y-96127000D01*
X72627000Y-96127000D01*
X72373000Y-96127000D01*
X71223750Y-96127000D01*
X71065000Y-96285750D01*
X71061928Y-97100000D01*
X68068071Y-97100000D01*
X68075812Y-97074482D01*
X68088072Y-96950000D01*
X68085000Y-96235750D01*
X67926250Y-96077000D01*
X66727000Y-96077000D01*
X66473000Y-96077000D01*
X65273750Y-96077000D01*
X65115000Y-96235750D01*
X65111928Y-96950000D01*
X62638072Y-96950000D01*
X62635000Y-96235750D01*
X62476250Y-96077000D01*
X61277000Y-96077000D01*
X61023000Y-96077000D01*
X59823750Y-96077000D01*
X59665000Y-96235750D01*
X59661928Y-96950000D01*
X59127000Y-96950000D01*
X59127000Y-94950000D01*
X59661928Y-94950000D01*
X59665000Y-95664250D01*
X59823750Y-95823000D01*
X61023000Y-95823000D01*
X61023000Y-94473750D01*
X61277000Y-94473750D01*
X61277000Y-95823000D01*
X62476250Y-95823000D01*
X62635000Y-95664250D01*
X62638072Y-94950000D01*
X65111928Y-94950000D01*
X65115000Y-95664250D01*
X65273750Y-95823000D01*
X66473000Y-95823000D01*
X66473000Y-94473750D01*
X66727000Y-94473750D01*
X66727000Y-95823000D01*
X67926250Y-95823000D01*
X68085000Y-95664250D01*
X68088072Y-94950000D01*
X68075812Y-94825518D01*
X68039502Y-94705820D01*
X67980537Y-94595506D01*
X67901185Y-94498815D01*
X67804494Y-94419463D01*
X67694180Y-94360498D01*
X67574482Y-94324188D01*
X67450000Y-94311928D01*
X66885750Y-94315000D01*
X66727000Y-94473750D01*
X66473000Y-94473750D01*
X66314250Y-94315000D01*
X65750000Y-94311928D01*
X65625518Y-94324188D01*
X65505820Y-94360498D01*
X65395506Y-94419463D01*
X65298815Y-94498815D01*
X65219463Y-94595506D01*
X65160498Y-94705820D01*
X65124188Y-94825518D01*
X65111928Y-94950000D01*
X62638072Y-94950000D01*
X62625812Y-94825518D01*
X62589502Y-94705820D01*
X62530537Y-94595506D01*
X62451185Y-94498815D01*
X62354494Y-94419463D01*
X62244180Y-94360498D01*
X62124482Y-94324188D01*
X62000000Y-94311928D01*
X61435750Y-94315000D01*
X61277000Y-94473750D01*
X61023000Y-94473750D01*
X60864250Y-94315000D01*
X60300000Y-94311928D01*
X60175518Y-94324188D01*
X60055820Y-94360498D01*
X59945506Y-94419463D01*
X59848815Y-94498815D01*
X59769463Y-94595506D01*
X59710498Y-94705820D01*
X59674188Y-94825518D01*
X59661928Y-94950000D01*
X59127000Y-94950000D01*
X59127000Y-93588212D01*
X62865000Y-93588212D01*
X62865000Y-93811788D01*
X62908617Y-94031067D01*
X62994176Y-94237624D01*
X63118388Y-94423520D01*
X63276480Y-94581612D01*
X63462376Y-94705824D01*
X63668933Y-94791383D01*
X63888212Y-94835000D01*
X64111788Y-94835000D01*
X64331067Y-94791383D01*
X64537624Y-94705824D01*
X64723520Y-94581612D01*
X64881612Y-94423520D01*
X65005824Y-94237624D01*
X65091383Y-94031067D01*
X65135000Y-93811788D01*
X65135000Y-93640379D01*
X65173772Y-93710860D01*
X65254284Y-93806588D01*
X65351924Y-93884770D01*
X65462941Y-93942401D01*
X65583067Y-93977266D01*
X65707688Y-93988026D01*
X66414250Y-93985000D01*
X66573000Y-93826250D01*
X66573000Y-93223000D01*
X66827000Y-93223000D01*
X66827000Y-93826250D01*
X66985750Y-93985000D01*
X67692312Y-93988026D01*
X67816933Y-93977266D01*
X67937059Y-93942401D01*
X68048076Y-93884770D01*
X68145716Y-93806588D01*
X68226228Y-93710860D01*
X68286517Y-93601264D01*
X68324266Y-93482013D01*
X68335000Y-93381750D01*
X68176250Y-93223000D01*
X66827000Y-93223000D01*
X66573000Y-93223000D01*
X65223750Y-93223000D01*
X65087410Y-93359340D01*
X65005824Y-93162376D01*
X64881612Y-92976480D01*
X64723520Y-92818388D01*
X64537624Y-92694176D01*
X64331067Y-92608617D01*
X64111788Y-92565000D01*
X63888212Y-92565000D01*
X63668933Y-92608617D01*
X63462376Y-92694176D01*
X63276480Y-92818388D01*
X63118388Y-92976480D01*
X62994176Y-93162376D01*
X62908617Y-93368933D01*
X62865000Y-93588212D01*
X59127000Y-93588212D01*
X59127000Y-89188212D01*
X62865000Y-89188212D01*
X62865000Y-89411788D01*
X62908617Y-89631067D01*
X62994176Y-89837624D01*
X63118388Y-90023520D01*
X63276480Y-90181612D01*
X63462376Y-90305824D01*
X63668933Y-90391383D01*
X63888212Y-90435000D01*
X64111788Y-90435000D01*
X64331067Y-90391383D01*
X64537624Y-90305824D01*
X64723520Y-90181612D01*
X64881612Y-90023520D01*
X65005824Y-89837624D01*
X65061928Y-89702177D01*
X65061928Y-90150000D01*
X65074188Y-90274482D01*
X65081929Y-90300000D01*
X65074188Y-90325518D01*
X65061928Y-90450000D01*
X65061928Y-90950000D01*
X65074188Y-91074482D01*
X65081929Y-91100000D01*
X65074188Y-91125518D01*
X65061928Y-91250000D01*
X65061928Y-91750000D01*
X65074188Y-91874482D01*
X65081929Y-91900000D01*
X65074188Y-91925518D01*
X65061928Y-92050000D01*
X65061928Y-92550000D01*
X65074188Y-92674482D01*
X65081684Y-92699192D01*
X65075734Y-92717987D01*
X65065000Y-92818250D01*
X65223750Y-92977000D01*
X65228967Y-92977000D01*
X65248815Y-93001185D01*
X65345506Y-93080537D01*
X65455820Y-93139502D01*
X65575518Y-93175812D01*
X65700000Y-93188072D01*
X67700000Y-93188072D01*
X67824482Y-93175812D01*
X67944180Y-93139502D01*
X68054494Y-93080537D01*
X68151185Y-93001185D01*
X68171033Y-92977000D01*
X68176250Y-92977000D01*
X68335000Y-92818250D01*
X68324266Y-92717987D01*
X68318316Y-92699192D01*
X68325812Y-92674482D01*
X68338072Y-92550000D01*
X68338072Y-92050000D01*
X68325812Y-91925518D01*
X68318071Y-91900000D01*
X68325812Y-91874482D01*
X68338072Y-91750000D01*
X68338072Y-91250000D01*
X68325812Y-91125518D01*
X68318071Y-91100000D01*
X68325812Y-91074482D01*
X68338072Y-90950000D01*
X68338072Y-90660000D01*
X68340375Y-90660000D01*
X68353992Y-90798254D01*
X68404528Y-90964850D01*
X68486595Y-91118386D01*
X68597038Y-91252962D01*
X68731614Y-91363405D01*
X68885150Y-91445472D01*
X69051746Y-91496008D01*
X69225000Y-91513072D01*
X69975000Y-91513072D01*
X70148254Y-91496008D01*
X70314850Y-91445472D01*
X70468386Y-91363405D01*
X70602962Y-91252962D01*
X70713405Y-91118386D01*
X70795472Y-90964850D01*
X70846008Y-90798254D01*
X70863072Y-90625000D01*
X70863072Y-89375000D01*
X70846008Y-89201746D01*
X70795472Y-89035150D01*
X70713405Y-88881614D01*
X70602962Y-88747038D01*
X70468386Y-88636595D01*
X70314850Y-88554528D01*
X70148254Y-88503992D01*
X69975000Y-88486928D01*
X69225000Y-88486928D01*
X69051746Y-88503992D01*
X68885150Y-88554528D01*
X68731614Y-88636595D01*
X68597038Y-88747038D01*
X68486595Y-88881614D01*
X68404528Y-89035150D01*
X68372722Y-89140000D01*
X68079518Y-89140000D01*
X68054494Y-89119463D01*
X67944180Y-89060498D01*
X67824482Y-89024188D01*
X67700000Y-89011928D01*
X65700000Y-89011928D01*
X65575518Y-89024188D01*
X65455820Y-89060498D01*
X65345506Y-89119463D01*
X65248815Y-89198815D01*
X65169463Y-89295506D01*
X65135000Y-89359981D01*
X65135000Y-89188212D01*
X65091383Y-88968933D01*
X65005824Y-88762376D01*
X64881612Y-88576480D01*
X64723520Y-88418388D01*
X64537624Y-88294176D01*
X64331067Y-88208617D01*
X64111788Y-88165000D01*
X63888212Y-88165000D01*
X63668933Y-88208617D01*
X63462376Y-88294176D01*
X63276480Y-88418388D01*
X63118388Y-88576480D01*
X62994176Y-88762376D01*
X62908617Y-88968933D01*
X62865000Y-89188212D01*
X59127000Y-89188212D01*
X59127000Y-88050000D01*
X59661928Y-88050000D01*
X59674188Y-88174482D01*
X59710498Y-88294180D01*
X59769463Y-88404494D01*
X59848815Y-88501185D01*
X59945506Y-88580537D01*
X60055820Y-88639502D01*
X60175518Y-88675812D01*
X60300000Y-88688072D01*
X60864250Y-88685000D01*
X61023000Y-88526250D01*
X61023000Y-87177000D01*
X61277000Y-87177000D01*
X61277000Y-88526250D01*
X61435750Y-88685000D01*
X62000000Y-88688072D01*
X62124482Y-88675812D01*
X62244180Y-88639502D01*
X62354494Y-88580537D01*
X62451185Y-88501185D01*
X62530537Y-88404494D01*
X62589502Y-88294180D01*
X62625812Y-88174482D01*
X62638072Y-88050000D01*
X65111928Y-88050000D01*
X65124188Y-88174482D01*
X65160498Y-88294180D01*
X65219463Y-88404494D01*
X65298815Y-88501185D01*
X65395506Y-88580537D01*
X65505820Y-88639502D01*
X65625518Y-88675812D01*
X65750000Y-88688072D01*
X66314250Y-88685000D01*
X66473000Y-88526250D01*
X66473000Y-87177000D01*
X66727000Y-87177000D01*
X66727000Y-88526250D01*
X66885750Y-88685000D01*
X67450000Y-88688072D01*
X67574482Y-88675812D01*
X67694180Y-88639502D01*
X67804494Y-88580537D01*
X67901185Y-88501185D01*
X67980537Y-88404494D01*
X68039502Y-88294180D01*
X68075812Y-88174482D01*
X68088072Y-88050000D01*
X68085000Y-87335750D01*
X67926250Y-87177000D01*
X66727000Y-87177000D01*
X66473000Y-87177000D01*
X65273750Y-87177000D01*
X65115000Y-87335750D01*
X65111928Y-88050000D01*
X62638072Y-88050000D01*
X62635000Y-87335750D01*
X62476250Y-87177000D01*
X61277000Y-87177000D01*
X61023000Y-87177000D01*
X59823750Y-87177000D01*
X59665000Y-87335750D01*
X59661928Y-88050000D01*
X59127000Y-88050000D01*
X59127000Y-86050000D01*
X59661928Y-86050000D01*
X59665000Y-86764250D01*
X59823750Y-86923000D01*
X61023000Y-86923000D01*
X61023000Y-85573750D01*
X61277000Y-85573750D01*
X61277000Y-86923000D01*
X62476250Y-86923000D01*
X62635000Y-86764250D01*
X62638072Y-86050000D01*
X65111928Y-86050000D01*
X65115000Y-86764250D01*
X65273750Y-86923000D01*
X66473000Y-86923000D01*
X66473000Y-85573750D01*
X66727000Y-85573750D01*
X66727000Y-86923000D01*
X67926250Y-86923000D01*
X68085000Y-86764250D01*
X68088072Y-86050000D01*
X68075812Y-85925518D01*
X68039502Y-85805820D01*
X67980537Y-85695506D01*
X67901185Y-85598815D01*
X67804494Y-85519463D01*
X67694180Y-85460498D01*
X67574482Y-85424188D01*
X67450000Y-85411928D01*
X66885750Y-85415000D01*
X66727000Y-85573750D01*
X66473000Y-85573750D01*
X66314250Y-85415000D01*
X65750000Y-85411928D01*
X65625518Y-85424188D01*
X65505820Y-85460498D01*
X65395506Y-85519463D01*
X65298815Y-85598815D01*
X65219463Y-85695506D01*
X65160498Y-85805820D01*
X65124188Y-85925518D01*
X65111928Y-86050000D01*
X62638072Y-86050000D01*
X62625812Y-85925518D01*
X62589502Y-85805820D01*
X62530537Y-85695506D01*
X62451185Y-85598815D01*
X62354494Y-85519463D01*
X62244180Y-85460498D01*
X62124482Y-85424188D01*
X62000000Y-85411928D01*
X61435750Y-85415000D01*
X61277000Y-85573750D01*
X61023000Y-85573750D01*
X60864250Y-85415000D01*
X60300000Y-85411928D01*
X60175518Y-85424188D01*
X60055820Y-85460498D01*
X59945506Y-85519463D01*
X59848815Y-85598815D01*
X59769463Y-85695506D01*
X59710498Y-85805820D01*
X59674188Y-85925518D01*
X59661928Y-86050000D01*
X59127000Y-86050000D01*
X59127000Y-84430988D01*
X59252627Y-84621118D01*
X59797557Y-84911649D01*
X60388696Y-85090287D01*
X61003328Y-85150168D01*
X61617831Y-85088990D01*
X62208592Y-84909103D01*
X62747373Y-84621118D01*
X63023543Y-84203148D01*
X61000000Y-82179605D01*
X60985858Y-82193748D01*
X60806253Y-82014143D01*
X60820395Y-82000000D01*
X61179605Y-82000000D01*
X63203148Y-84023543D01*
X63621118Y-83747373D01*
X63911649Y-83202443D01*
X64090287Y-82611304D01*
X64150168Y-81996672D01*
X64088990Y-81382169D01*
X63909103Y-80791408D01*
X63621118Y-80252627D01*
X63203148Y-79976457D01*
X61179605Y-82000000D01*
X60820395Y-82000000D01*
X60806253Y-81985858D01*
X60985858Y-81806253D01*
X61000000Y-81820395D01*
X63023543Y-79796852D01*
X62827401Y-79500000D01*
X65636928Y-79500000D01*
X65649188Y-79624482D01*
X65685498Y-79744180D01*
X65744463Y-79854494D01*
X65823815Y-79951185D01*
X65920506Y-80030537D01*
X66030820Y-80089502D01*
X66150518Y-80125812D01*
X66275000Y-80138072D01*
X66714250Y-80135000D01*
X66873000Y-79976250D01*
X66873000Y-79127000D01*
X65798750Y-79127000D01*
X65640000Y-79285750D01*
X65636928Y-79500000D01*
X62827401Y-79500000D01*
X62747373Y-79378882D01*
X62202443Y-79088351D01*
X61611304Y-78909713D01*
X60996672Y-78849832D01*
X60382169Y-78911010D01*
X59791408Y-79090897D01*
X59252627Y-79378882D01*
X59127000Y-79569012D01*
X59127000Y-67371415D01*
X65808190Y-67371415D01*
X65937116Y-67663945D01*
X66273586Y-67832296D01*
X66636435Y-67931771D01*
X67011718Y-67958545D01*
X67385015Y-67911591D01*
X67741978Y-67792713D01*
X67982884Y-67663945D01*
X68111810Y-67371415D01*
X66960000Y-66219605D01*
X65808190Y-67371415D01*
X59127000Y-67371415D01*
X59127000Y-65400524D01*
X60490000Y-65400524D01*
X60490000Y-65599476D01*
X60528814Y-65794606D01*
X60604950Y-65978414D01*
X60715482Y-66143837D01*
X60856163Y-66284518D01*
X61021586Y-66395050D01*
X61205394Y-66471186D01*
X61400524Y-66510000D01*
X61599476Y-66510000D01*
X61794606Y-66471186D01*
X61978414Y-66395050D01*
X62143837Y-66284518D01*
X62284518Y-66143837D01*
X62319342Y-66091718D01*
X65041455Y-66091718D01*
X65088409Y-66465015D01*
X65207287Y-66821978D01*
X65336055Y-67062884D01*
X65628585Y-67191810D01*
X66780395Y-66040000D01*
X65628585Y-64888190D01*
X65336055Y-65017116D01*
X65167704Y-65353586D01*
X65068229Y-65716435D01*
X65041455Y-66091718D01*
X62319342Y-66091718D01*
X62395050Y-65978414D01*
X62471186Y-65794606D01*
X62510000Y-65599476D01*
X62510000Y-65400524D01*
X62471186Y-65205394D01*
X62395050Y-65021586D01*
X62284518Y-64856163D01*
X62143837Y-64715482D01*
X61978414Y-64604950D01*
X61794606Y-64528814D01*
X61599476Y-64490000D01*
X61400524Y-64490000D01*
X61205394Y-64528814D01*
X61021586Y-64604950D01*
X60856163Y-64715482D01*
X60715482Y-64856163D01*
X60604950Y-65021586D01*
X60528814Y-65205394D01*
X60490000Y-65400524D01*
X59127000Y-65400524D01*
X59127000Y-63430988D01*
X59252627Y-63621118D01*
X59797557Y-63911649D01*
X60388696Y-64090287D01*
X61003328Y-64150168D01*
X61617831Y-64088990D01*
X62208592Y-63909103D01*
X62747373Y-63621118D01*
X63023543Y-63203148D01*
X61000000Y-61179605D01*
X60985858Y-61193748D01*
X60806253Y-61014143D01*
X60820395Y-61000000D01*
X60806253Y-60985858D01*
X60985858Y-60806253D01*
X61000000Y-60820395D01*
X61014143Y-60806253D01*
X61193748Y-60985858D01*
X61179605Y-61000000D01*
X63203148Y-63023543D01*
X63621118Y-62747373D01*
X63864213Y-62291415D01*
X65808190Y-62291415D01*
X65937116Y-62583945D01*
X66273586Y-62752296D01*
X66636435Y-62851771D01*
X67011718Y-62878545D01*
X67385015Y-62831591D01*
X67736928Y-62714395D01*
X67736928Y-64292992D01*
X67646414Y-64247704D01*
X67283565Y-64148229D01*
X66908282Y-64121455D01*
X66534985Y-64168409D01*
X66178022Y-64287287D01*
X65937116Y-64416055D01*
X65808190Y-64708585D01*
X66960000Y-65860395D01*
X66974143Y-65846253D01*
X67153748Y-66025858D01*
X67139605Y-66040000D01*
X68291415Y-67191810D01*
X68583945Y-67062884D01*
X68715001Y-66800953D01*
X68715001Y-67861928D01*
X68500000Y-67861928D01*
X68375518Y-67874188D01*
X68255820Y-67910498D01*
X68145506Y-67969463D01*
X68048815Y-68048815D01*
X67969463Y-68145506D01*
X67910498Y-68255820D01*
X67874188Y-68375518D01*
X67861928Y-68500000D01*
X67861928Y-69500000D01*
X67874188Y-69624482D01*
X67910498Y-69744180D01*
X67969463Y-69854494D01*
X68048815Y-69951185D01*
X68108296Y-70000000D01*
X68048815Y-70048815D01*
X67969463Y-70145506D01*
X67910498Y-70255820D01*
X67874188Y-70375518D01*
X67861928Y-70500000D01*
X67865000Y-70714250D01*
X68023750Y-70873000D01*
X69373000Y-70873000D01*
X69373000Y-70853000D01*
X69627000Y-70853000D01*
X69627000Y-70873000D01*
X70976250Y-70873000D01*
X71135000Y-70714250D01*
X71138072Y-70500000D01*
X71125812Y-70375518D01*
X71089502Y-70255820D01*
X71030537Y-70145506D01*
X70951185Y-70048815D01*
X70891704Y-70000000D01*
X70951185Y-69951185D01*
X71030537Y-69854494D01*
X71089502Y-69744180D01*
X71125812Y-69624482D01*
X71138072Y-69500000D01*
X71138072Y-68500000D01*
X71125812Y-68375518D01*
X71089502Y-68255820D01*
X71030537Y-68145506D01*
X70951185Y-68048815D01*
X70854494Y-67969463D01*
X70744180Y-67910498D01*
X70624482Y-67874188D01*
X70500000Y-67861928D01*
X70285000Y-67861928D01*
X70285000Y-67371415D01*
X70888190Y-67371415D01*
X71017116Y-67663945D01*
X71353586Y-67832296D01*
X71716435Y-67931771D01*
X72091718Y-67958545D01*
X72465015Y-67911591D01*
X72821978Y-67792713D01*
X73062884Y-67663945D01*
X73191810Y-67371415D01*
X72040000Y-66219605D01*
X70888190Y-67371415D01*
X70285000Y-67371415D01*
X70285000Y-66815111D01*
X70287287Y-66821978D01*
X70416055Y-67062884D01*
X70708585Y-67191810D01*
X71860395Y-66040000D01*
X72219605Y-66040000D01*
X73371415Y-67191810D01*
X73663945Y-67062884D01*
X73832296Y-66726414D01*
X73931771Y-66363565D01*
X73958545Y-65988282D01*
X73911591Y-65614985D01*
X73792713Y-65258022D01*
X73663945Y-65017116D01*
X73371415Y-64888190D01*
X72219605Y-66040000D01*
X71860395Y-66040000D01*
X71846253Y-66025858D01*
X72025858Y-65846253D01*
X72040000Y-65860395D01*
X73191810Y-64708585D01*
X73062884Y-64416055D01*
X72800955Y-64285000D01*
X74382317Y-64285000D01*
X74419463Y-64354494D01*
X74498815Y-64451185D01*
X74595506Y-64530537D01*
X74705820Y-64589502D01*
X74825518Y-64625812D01*
X74950000Y-64638072D01*
X75261928Y-64638072D01*
X75261928Y-65500000D01*
X75274188Y-65624482D01*
X75310498Y-65744180D01*
X75369463Y-65854494D01*
X75448815Y-65951185D01*
X75545506Y-66030537D01*
X75655820Y-66089502D01*
X75775518Y-66125812D01*
X75900000Y-66138072D01*
X78100000Y-66138072D01*
X78224482Y-66125812D01*
X78344180Y-66089502D01*
X78454494Y-66030537D01*
X78551185Y-65951185D01*
X78630537Y-65854494D01*
X78689502Y-65744180D01*
X78725812Y-65624482D01*
X78738072Y-65500000D01*
X78738072Y-64450000D01*
X78725812Y-64325518D01*
X78689502Y-64205820D01*
X78630537Y-64095506D01*
X78551185Y-63998815D01*
X78454494Y-63919463D01*
X78344180Y-63860498D01*
X78224482Y-63824188D01*
X78100000Y-63811928D01*
X76638072Y-63811928D01*
X76638072Y-63185287D01*
X76714250Y-63185000D01*
X76873000Y-63026250D01*
X76873000Y-62152000D01*
X77127000Y-62152000D01*
X77127000Y-63026250D01*
X77285750Y-63185000D01*
X78100000Y-63188072D01*
X78224482Y-63175812D01*
X78344180Y-63139502D01*
X78454494Y-63080537D01*
X78551185Y-63001185D01*
X78630537Y-62904494D01*
X78689502Y-62794180D01*
X78725812Y-62674482D01*
X78738072Y-62550000D01*
X78735000Y-62310750D01*
X78576250Y-62152000D01*
X77127000Y-62152000D01*
X76873000Y-62152000D01*
X75423750Y-62152000D01*
X75265000Y-62310750D01*
X75264343Y-62361928D01*
X74950000Y-62361928D01*
X74825518Y-62374188D01*
X74705820Y-62410498D01*
X74595506Y-62469463D01*
X74498815Y-62548815D01*
X74419463Y-62645506D01*
X74382317Y-62715000D01*
X72815111Y-62715000D01*
X72821978Y-62712713D01*
X73062884Y-62583945D01*
X73191810Y-62291415D01*
X72040000Y-61139605D01*
X72025858Y-61153748D01*
X71846253Y-60974143D01*
X71860395Y-60960000D01*
X72219605Y-60960000D01*
X73371415Y-62111810D01*
X73391155Y-62103110D01*
X87558524Y-62103110D01*
X87679845Y-62333000D01*
X88873000Y-62333000D01*
X88873000Y-61139186D01*
X89127000Y-61139186D01*
X89127000Y-62333000D01*
X90320155Y-62333000D01*
X90441476Y-62103110D01*
X90396825Y-61955901D01*
X90271641Y-61693080D01*
X90097588Y-61459731D01*
X89881355Y-61264822D01*
X89631252Y-61115843D01*
X89356891Y-61018519D01*
X89127000Y-61139186D01*
X88873000Y-61139186D01*
X88643109Y-61018519D01*
X88368748Y-61115843D01*
X88118645Y-61264822D01*
X87902412Y-61459731D01*
X87728359Y-61693080D01*
X87603175Y-61955901D01*
X87558524Y-62103110D01*
X73391155Y-62103110D01*
X73663945Y-61982884D01*
X73832296Y-61646414D01*
X73872435Y-61500000D01*
X75261928Y-61500000D01*
X75265000Y-61739250D01*
X75423750Y-61898000D01*
X76873000Y-61898000D01*
X76873000Y-61023750D01*
X77127000Y-61023750D01*
X77127000Y-61898000D01*
X78576250Y-61898000D01*
X78735000Y-61739250D01*
X78738072Y-61500000D01*
X78725812Y-61375518D01*
X78689502Y-61255820D01*
X78630537Y-61145506D01*
X78551185Y-61048815D01*
X78454494Y-60969463D01*
X78344180Y-60910498D01*
X78224482Y-60874188D01*
X78100000Y-60861928D01*
X77285750Y-60865000D01*
X77127000Y-61023750D01*
X76873000Y-61023750D01*
X76714250Y-60865000D01*
X75900000Y-60861928D01*
X75775518Y-60874188D01*
X75655820Y-60910498D01*
X75545506Y-60969463D01*
X75448815Y-61048815D01*
X75369463Y-61145506D01*
X75310498Y-61255820D01*
X75274188Y-61375518D01*
X75261928Y-61500000D01*
X73872435Y-61500000D01*
X73931771Y-61283565D01*
X73958545Y-60908282D01*
X73911591Y-60534985D01*
X73792713Y-60178022D01*
X73663945Y-59937116D01*
X73371415Y-59808190D01*
X72219605Y-60960000D01*
X71860395Y-60960000D01*
X70708585Y-59808190D01*
X70416055Y-59937116D01*
X70247704Y-60273586D01*
X70148229Y-60636435D01*
X70121455Y-61011718D01*
X70168409Y-61385015D01*
X70285605Y-61736928D01*
X68707008Y-61736928D01*
X68752296Y-61646414D01*
X68851771Y-61283565D01*
X68878545Y-60908282D01*
X68831591Y-60534985D01*
X68712713Y-60178022D01*
X68583945Y-59937116D01*
X68291415Y-59808190D01*
X67139605Y-60960000D01*
X67153748Y-60974143D01*
X66974143Y-61153748D01*
X66960000Y-61139605D01*
X65808190Y-62291415D01*
X63864213Y-62291415D01*
X63911649Y-62202443D01*
X64090287Y-61611304D01*
X64148702Y-61011718D01*
X65041455Y-61011718D01*
X65088409Y-61385015D01*
X65207287Y-61741978D01*
X65336055Y-61982884D01*
X65628585Y-62111810D01*
X66780395Y-60960000D01*
X65628585Y-59808190D01*
X65336055Y-59937116D01*
X65167704Y-60273586D01*
X65068229Y-60636435D01*
X65041455Y-61011718D01*
X64148702Y-61011718D01*
X64150168Y-60996672D01*
X64088990Y-60382169D01*
X63909103Y-59791408D01*
X63621118Y-59252627D01*
X63430988Y-59127000D01*
X66419105Y-59127000D01*
X66178022Y-59207287D01*
G37*
%TD.AperFunction*%
D30*
X100947100Y-88536928D02*
X100653100Y-88536928D01*
X100653100Y-88463072D01*
X100947100Y-88463072D01*
X100947100Y-88536928D01*
%TA.AperFunction,Conductor*%
D31*
G36*
X100947100Y-88536928D02*
G01*
X100653100Y-88536928D01*
X100653100Y-88463072D01*
X100947100Y-88463072D01*
X100947100Y-88536928D01*
G37*
%TD.AperFunction*%
%TD*%
M02*
